<mxfile host="Electron" modified="2024-02-16T08:10:55.460Z" agent="Mozilla/5.0 (Macintosh; Intel Mac OS X 10_15_7) AppleWebKit/537.36 (KHTML, like Gecko) draw.io/23.0.2 Chrome/120.0.6099.109 Electron/28.1.0 Safari/537.36" etag="2fdAQwv-t-njCuPl51Lv" version="23.0.2" type="device" pages="7">
  <diagram id="npFeLRW_yGzMutncMtkJ" name="Overview">
    <mxGraphModel dx="2882" dy="1432" grid="1" gridSize="10" guides="1" tooltips="1" connect="1" arrows="1" fold="1" page="1" pageScale="1" pageWidth="827" pageHeight="1169" math="0" shadow="0">
      <root>
        <mxCell id="0" />
        <mxCell id="1" parent="0" />
        <mxCell id="fYPXvOwIKjFMCcllzxuq-1" value="" style="shape=image;verticalLabelPosition=bottom;labelBackgroundColor=default;verticalAlign=top;aspect=fixed;imageAspect=0;image=data:image/png,iVBORw0KGgoAAAANSUhEUgAAArEAAAHKCAYAAAAU1xOyAAAAAXNSR0IArs4c6QAAAARnQU1BAACxjwv8YQUAAAAJcEhZcwAAFxEAABcRAcom8z8AAPJfSURBVHhe7L13WFRZ1vb9/PF+1/s91/e+T5o8PXl6eqan83TOOefu6Z7O3dNpUudkwpzISXIQkIwKKNmEIqKIOaIYAAVMBCVI0vXte9XZWBQFEqqAqlo/r3VZ1Nkn1jl732fttdf+NxIEQRAEQRAEB0NErCAIgiAIguBwiIgVBEEQBEEQHA4RsYIguDx79+2n7Nw8yi9YwZabX0Cr1hTSmfp6o4QgCIIw3hARKwiCy5OeuZy++OY7mjDZje07/n8quXv5UFZOHlVWVRslBUEQhPGCiFhBEFye7Nx8mjJtBs2cM6+XTZs5mya5TaNZ89wpbUkGVVUdM9YQBEEQxhoRsYIguDy5+Susilht02fNoUlTp9Psue60eGmGeGYFQRDGASJiBUFweRJTUmnyACJWG4tZNyVm57lT6uKldORopbEFQRAEYbQRESsIgssTHhU9KBGrzSRmp/Hn1LSlVFkpnllBEITRRkSsIAguTVdXF4VGRNKU6TP7iNXLWS8xu1iJWQkzEARBGDVExAqC4NI0NDWRb0AgTZ0xq49IHaz1FrPpdOBgBV28eNHYgyAIgmAPRMQKguDSNDQ2ko//yESsNnMxm5CUImJWEATBjoiIFQTBpak+dpzmunuxALUUpcM1bGvy1Ok0Y7ZJzB6sOEQXRMwKgiDYFBGxgiC4NFXVx2jOfE+bilhtl8TsXEpMTqXde/ZyDK4gCIIwckTECoLg0thTxGrDtpGHFhYRtZC279xJnZ0iZgVBEEaCiFhBEFyamppamj3Pw64iVhs8skjlhUwI4ZHRtH3Hrl6eWYk4EARBGDwiYgVBcDkuXLhAjU1NdPLUKVq9Zi1NmTb09FojMRazU6eT2/RZFBIWSUkpaZSQlErxiSmUtiSdcvMLKH/FSirbspX27tvPcbvIRVtXd4Kam1uMsxAEQXBtRMQKguB0dHZ20rlzzVRTW0sHDhykTZvLqGDFalqWlUPRsXEUHBZBvv6B5OHtq0TlfBaV1sSmvQ37dZs+syfUAAZPLaa4RZaDCZPdyG3GLJrr7sneYncvH/JfEEyhEVEsdnPyCqho/QbauWsPVVZV0Zkz9XT27Dnq7u42roQgCILzIiJWEASH5fz5dmpsbKSqqmNUunkLizoMoIqMjqGAoBCeHhYeT3ORqA0ptabNnD1mAnawhuPDcSLcAf9D1FqeC85xqlrm5eNP/oHBFLUwhpZmLDMJ3N171PWppuaWFurqEnErCILzICJWEASHAAOh0J2+e88+WruuiJJTF3NXPLyU02fNZVEKMTfRbVqPSB2NONfxYlrsmq7DDPbkwstrEsBzyTcgiGLi4ildidu1Reup4tBhamholGwJgiA4LCJiBUEYd3R0dFCtEqz7yw/QmsJ1lJK2lAKDw2jOfNMALAg0LdLwNwTcePeoDmQ4dghNa8tGYvq6wCBuIe4nTpmqbBrNmjuf5nt6U3BoOIdZFJds5Ot99tw541cQBEEY34iIFQRhzEFYAAYvlW3dRmlL05VgDSV3Tx8lvGaz6NKeVVt0/0P06q559tbOHhtvrQ4NgPdYnxfOFeIc35mHQUCsw/Q10OdgbbuDNX0N9DFMmDyVr7dvwAJaGLuI1qwt4hnHTp0+wy8VgiAI4w0RsYIgjDpt589TTU0dx7GmLl5KoeFRSsTN6xFuuht8OIIV68CrCZGmvY/YrskDOZWXI1YWg6Qw3ew8D+9h7WeoZjou0+QHEKoIg/BbEExZ2bl06PAROnK0kvbu20fbtm+nVWsKadXqQlqSnqlsGUVEL+QBXd6+/rye3h4GfmFb5tcM+8Cy4ZwT1um5Zsrwv7uXL4VGRFJewUraum07T9MrCIIwHhARKwiC3bl48SI1NjZRyaZSSs9cTkGh4T2CSYuwoYouLdQg2iDgsB2IVGzTtK35tCA4jONAIZQhwko2buIucwjGkydPUUtLCyWlLOb9W9vHSA3HoY8NwhoCND4pmTaVltHxmhrq6Og0rtDlQVqwpqaz7LGGh3R/+UEOAViWlU1x8Uk8mA3ZFiDQ2cM6fVYvLzauk7VjHMhmKMO2WNQq8Y1zwT4weG7lqjVUfuAgX0NBEISxQESsIAh2AaLr8JEjtGbtOoqNT2TPJwYcaaE53RCh1sSTNdOeVXNvLWyehxcFh0ZQcmoaZefksUAsV0K1traO2tvbL5tuCjlabSliIfpMx2jyjAYGhVB2bh7t23+AMynYY0IDXOvOri4WlLW1J2jb9h38wpCxbDlFGJkaIKBxnuaCFMc3lN8AZfX54XfEb+IfGKTOL5+9tBh4JwiCMFqIiBUEwWYgN+uhw0d5oFBIWAQLH3R5Y4aqoQgmLZYgtCC6kHEAA5EQrxkVE8uiqWTTJjpYcYhjNltb24wjGBoYmb8gJIzFsbXjGIxpTzCE3SS36SzWE5JTaOOmzZzaqqWl1djb2ABv77nmZnWdTtPuPXt5coeUtCW0IDiU5nv68LFrbziuw1B+J/1iofPa4oUiLiGRioo30PHjtSyuBUEQ7IWIWEEQRkRLayvPKpW5LIv8AoOUKDKleIIoGmwXthatLFinTFOf59A8dy/2Ymao7W4o2UiVShBili1bgkkRvHz9hyRizb2RE6YgxnYeh0cgXGHnrt108tRpY+vjm7a28+w5hYcYMbjJStj6BQSxx1Z7WnFd8BsOVtTq3xCCFtuJWhirrssKqj52TAaHCYJgc0TECoIwZNra2jhfKzyuED4QL/BCwqs3WMGDcix4lGCCWIIHM1KJnpy8fN42wgGQG9aeYApXTx8/Pn5rx6hNHyuEHc4RcaHwZiJfLfKtOkuu1Vb1QnLs2HEq3VzGsbYQ5/CA4/fR8bWD/X0hfiGGYbi+YZFRVLByFVVWVtGFC3aIqRAEweUQESsIwqCA8Dh85CiLTHTrQ5jAawqBMxhho4Wg9tLi77AICJvVtG37zjFJvH/s+HGa627KPWt5rDgvLcLwd0TUQkrPXEZbtm6ns2fPGltwbhBTDG9tadkWWpKewb8XroW+LkP57SH+EVoCURyzKIFDDiSGVhCEkSAiVhCEAamprWPBER0TRzNmmXKZDla8TFPiEOIFMa1YJzgsghYrMbR12w6qqakd8y5mZAjQIhaiXAtXxPDqfKnoaod4H0omAWflvBK1VdXV/OIRpe4HH79A48XEJGgHEz6CMlgHHnjE0MYqQbt9xy72AguCIAwFEbGCIPQBA6UQ34mR+xAaLOyU8LicSIGwRRnkGIWXFjNsQexgMBHSMXV0ji8huL+8nM8Nx4oYTuRiXZqxjD3DSGclDAy854ipRdo0PyX68fvD24oXl8EIWrw44PpjwgWkQ1uenUvV1ccvm1FCEAQBiIgVBKEHxKFiIA5SMkFYYIDO5eJFYabQgqm8DoRr7KJE2rBxE8dXjufoR2Q3WBgXzxMLmPK2yuCj4QJP9YGDByknv4CiFsZxjlm8zECkDublB8IX5ZFPF15/hDA0j3FmB0EQxjciYgXBxenu6ubBSRidDm+kSYxefoCW9qKhW9jd05u9tpu3bGXvnKOkVsJxShoo24MBecgmgVAMxBLjftHe/MvdV1jO3lklar18/Cgnr4C3JQiCYImIWEFwUTA4aU1hEYVGRLF4gBi9nNcVHjWOcTW63+HF3FCyiU6fPmNsVRB6A0F7tLKKVheuo9DwyB4P/+XiqrEMZRBPjb+TUxfTrt17xFsuCEIPImIFwcXAiPBVq9eSt38gi4nLxbpCTEDcIicqyoVFRtO69cVUU1NnbFEQBocp5KCCY2jhZcULEV6eLhdugOUcmqAMqbrWFRXzxBqCILg2ImIFwQXAVKf7yw/Q0sxlPLe+HkxjTTBo425dJRrgDfP29afM5dksQJwlJ6owtpw9e47TlcXFJ/L9NthwA5RBWeQnXrO2iJqazhlbFATB1RARKwhOzEWlXiFeIRSQ7gpds5fzeuk0UyiHfJ7bd+yk5mbxegn2Afdobd0JWrm6kPPQ6ljry92n7MVV97OPfyDlr1glIS2C4IKIiBUEJwSDlfbtL+ccnIMRBVhmEgXTe0QB8oF2d8ugJ2H0aG/voD1799OihCSeFIFzEs8cuMdAv3R5+fjzjGDIPywIgmsgIlYQnAjMqrV3XznFxCX08qhaa/xhWIYy02bOoZDwSCrZuIkaG5uMrQnC2FFdfYyycvPI2w+x25ef0hj3O+JrIX4xs5qIWUFwfkTECoITwDGv+w9w97/2vA7U4KMMumJRBqmxEHKAUeSCMN7AS9W69RsoJCyChezlBiJiGcJmEPudniFiVhCcGRGxguDAmGJeD5rCBmZcXrzCW4UGfp6nFy1emkmHDh8xtiQI45v2DoQa7OP47umz51w2qwGWYfYwdy8fyi9YKTOwCYITIiJWEBwUzK6VmrZECVMj5lU17NYac4hakwfLlDx+eU4unTp92tiKIDgWXV3d/PKVmJzK9/blQmamcq/DdPL1D+RsBmfPSTYDQXAWRMQKgoNx+kw95a9YyQ305RpwiFeUwbz2aMAl3lVwJg4fOUpJKYt5itvLeWY5ZtZtmhKzC2htUTG1trYZWxEEwVERESsIDgKSuxcqIertF8CeJQzGstZYw7R49VXiFes0NjYaWxEE5wPTJielLuZ7/3JiFvmRMeMcJu1A3mOE5AiC4JiIiBWEcQ4mF9i+fQctCA4zpRxSjbC1xhlmykgwwyRe1ynx2iSeV8F1QJgBpqedMWfgMAMdYjNdvQhC/FZWVhtbEATBkRARKwjjGMw5vygxmcUrGl1rDTIMjTUGsXh6+xmzGMkgFsF1OXT4KMfM4rkYSMzq5TNmz6OsnDxqaztvbEEQBEdARKwgjEOazp6lZVnZ3NBi6tf+Mg6gEUac3+y57qoRzqUTJ08aWxAEAZ7ZhKQUTimHl8D+niOdlg69HRs3bZaplQXBQRARKwjjCMy0VVq2lQKDQtn7enkP0lxKTE6jyirpDhUEa1y8cJFnrwsNj+RnZqBwHOSgxUsh0nhJfllBGP+IiBWEcUL1seMUHRPHDe1AoQM62Ttyw1YckjyvgjAYMKXt5s1byMvXn4Vqfy+InLZLPWNz3T0pJy+fe0UEQRifiIgVhDGms7OTVheuo9nzPHq8q9YaVz3Llo9/IO3ctZu6u7qNLQiCMFiQZm7l6kL1vM3n3o6BnrcJanlAUIh63vYYawuCMJ4QESsIY0hlVRVFRsco8TqDG01rjSkaWTS28z29aY0Su5LrVRBGTlV1NaUtWcrhBQP2fKhlKIMY9QZ59gRhXCEiVhDGgA54X9es5S5LeFf78wahccWMQ4sSkujYsePG2oIg2Ipdu/dwSjr0gvT3IqkHUPoFBtHeffuNNQVBGGtExArCKIO0WdExi7hR7K/RxPfwvi4IDqU9e/dLQnZBsCOtbW2cV3meu5d6LvsP6eGXyhmzKT1zOZ09K9PXCsJYIyJWEEaJjo4OWrtuPc2Z58EC1lojicYTHqF5Ht6UnZsv87wLwihyvKaGB0ziGUQYgbVn1OSVnU7+gUG0e89eY01BEMYCEbGCMArA+xoVEzeg91XPthWfmEwnTp4y1hQEYTS5cPEibdm2nYJCwwdMc6ezhCzNWMZTQguCMPqIiBUEO4IGcW3Repo1dz57d6w1hvC+wrODgVubSsuou/uCsbYgCGMFhGnGsmx+PiFYrT27ELEQuoHBoTyxgiAIo4uIWEGwE5j6FV7Vy3tfp1NCcirV1NYZawqCMF7AQC6k2ZqkntP+vLL6BXVDyUbq6pTZvgRhtBARKwh2ALFyAUHBLGCtDRLBdxPVMncvX9XwbaLubsn5KgjjlebmFspcnqVeRuf0m44LL6rw2C5SL64SXiAIo4OIWEGwIcgisGbtOvaw9jcwxNTYzeQ53evqThhrCoIw3tlffoDTcWEShIFeTheEhFH5gQpjLUEQ7IWIWEGwEWfO1POc65On9Z9vUg8GWVdUrASvsaIgCA7DqdOn+TnHs4yX1f6ec3hti9ZvMNYSBMEeiIgVBBtwsOIQ+QUE9TuNZc8AkKAQqjh0yFhLEARH5MKFixwGNGe+BwtWy+cdpsMLklMXU0N9g7GmIAi2RESsIIwAZBJYXbiOhWt/jRm8NfDKZGXnSqycIDgRNTW1FB4VTRMmu/UbXoBlAQtC6MjRSmMtQRBshYhYQRgm7e0dtCQ9kyZO6T/7AEYtY2rZHTt3GWsJguBMtLS0UmZWNr+sDhReMHueu4QXCIKNERErCMOg+thxCo+MpsmqceovfACZCRbGLlJla4y1BEFwVrZu287hBf3lg4bAxQtvbl4BdXZ2GmsJgjASRMQKwhBB3sh5Hphj3frUsSaPzGzKWJalGivJGSkIrsKx4zUUEb2Q6wZrOWXxwgshuyghic6elSmlBWGkiIgVhCGwaXMZz77VX/wrGi93Lx/auWu3sYYgCK7E+fPtHGaEXhpr4QUQsvDW+gcG83TUgiAMHxGxgjAIMBnBsqwcjn3tr2GCgA2LjKZjEj4gCC4Nshds2bqN4+H7e+GdPHUGL9+zd5+xliAIQ0VErCBchuaWFkpJW8IJzq11EULYokFKSVtMzc2SfUAQBBOVVdXk6e3HL7jWYufd1Avx9FlzqbhkI0+UIgjC0BARKwgDcOr0GQoJj+w3/yumoMT3K1cXSiMkCEIf6usbKD4xRQnZ6VbrEJ1PdmnGMurqkumnBWEoiIgVhH44fOQoLQgOYy+KZcMDQ1wbBnjt2rPXWEMQBKEvEKd5+St4Slpr6fh0NpOk1DRqbW011hIE4XKIiBUEKyADwUADuBBagNm3amrrjDUEQRAGZm1RMc2a5z5gvRK7KJ7OSViSIAwKEbGCYMGOHbtYwCJUwLKRgccE8a/RMXF05ky9sYYgCMLg2Le/nDy8fbknx7J+gcEjGxwWQWfqpX4RhMshIlYQzNhUutnI89o3A8E0CNhpMyhzebYkKxcEYdhUVVeT/4LgAUOVAoNCqaLisLGGIAjWEBErCAarVhfStBmzrcas8eCL6TNp9Zq1RmlBcFzwElZXd9L4SxgL0JMDj2t/s/6ZPLXz2XMrCIJ1RMQKgiK/YCWPHrYmYKeq79ymz6KNmzYbpQemta2NduzcTVu2baet23aIjcB27NwlA11sTNPZs7QoMYm8fAOovqHB+NY6zc0t/BtssfLbiA3Ntu3YSe3t7caVNYH0fWlL0jkWtr/sJwht2rtPhKwgWENErODSdHR0UN6KlTzQwloOWB1aMFgBC6qPHeN1sU29vtjQDdcPDbvMamQ7IEojo2NYNCFtHGK7W1vbjKV9OXT4COcxlXt5ZIbrhxfk06f7xrl2dHbSsuwc9shae4lmITsHQna/sYYgCBoRsYLL0tZ2nmLjE7nxsCZg0Z3n6eNHBysOGWsMjqrqYyy+VqxcRRWHjtD+/QfEhmi4bitXr+Hf5ejRSuPKCiMFYQSLzTx/+L9g5WpjaV+QZg69EPgtDh8+avW3EhvYDql7OSdvhSFizxhXti+Fa9ex4O1XyM6dT7t27zFKC4IARMQKLgm8TwtjF9GEyda78SBgffwDh+UFhIjFNjaXbaGWljZqbDwrNkTDdduydbvJEysi1qa0tLRSRNRCvsfxkgDbvcf61KdaxOK3aGtrt/pbiQ1sra3naUNJKV/ngUQsKNm0mQWr1bAmQ+CWbt5ilBYEQUSs4HKgEV8YG8/dqZYNBQwJyYNCwoadQkuL2I2bSrkRO3XqjNgQDdcNjTVEbGWliFhbc+LkSZ6oA9OeQjTN9/S2KrC0iMVvcfZss9XfSmxga2o6R0XrSwYlYkHJxtIBhezUGRCyZUZpQXBtRMQKLkUrC9hF/QpYpLwJQY7GEeSAFRE7cjMXscfU9RRsz6bSMhZLEFfwysbFJ/VJHSciduQ2VBELNg4oZGezmN0kQlYQRMQKrgNiYAcSsPgey8+dG9lsOSJiR264bpvLtvJ1TE1bSsuycsRGaMhvnJ6xnA5WVBh3KlFOXj6/uOn42OzcfGOJCRGxI7fhiFiAwaRI6wdvuXk9BevxyJZJaIHg2oiIFVwCpLJZGDdACIEhYCF0R4qI2JEbrlvZlm3c8GNkt9jIDd7WbydNoTVr1xl3KlFLaytFRMewKILXD2J2z95L8bEiYkduwxWxABkJPLx8+fezrLP0b9ZfPLMguAIiYgWXYPHSDPpuslufhgCmBSxiZW2BiNiRm7mIhfgSG7nB4/rtxMm0urD3hB0l6j7VIgnPCMJpurq6eJmI2JHbSEQsOFJZRe6YprYfITtrrjvt23/AKC0IroWIWMGpuXjxIuWvWMUNMbxMlo2AScDG20zAAhGxIzdcNx1OELMonuITk2lRQpLYiCyRYuLiafeevcadasoDO8/Ti6dUZkE0z53TOOG5ASJiR24jFbHgaGU1eSgha80ji9hZpN/aJ3lkBRdERKzg1GCa2ElTTamELCt/7YEdKNn7cBARO3LDdYNwwnXE9YSounDhgpgNTFNVdUwJIz+Ou8QLHp6H4g0lxlITImJHbrYQseDI0UoWsnjZMK/HYJeErMzsJbgWImIFp6W0tIxjxqyN8EXXanQMYmBtK2CBLUXsmdP1VH+mgc4YZq3MYA2zBTU0OIao1iIW4qpSZuyyOYgRDwoJ7xnUhXADTHqgPbCasRKxuFeRKxi5afF/Q0MTf2et7Hg3W4lYsL/8AHtjrdVpWsgeOnzUKC0Izo+IWMEpwahdPfDBsrKHxwlxf5iC0x7YUsTWq8abrb6Jzp1r4cTp1spdziAATpw4xd43a8vHm5mLWJnswLYg3jUxOZWFK+5TCNllWdnG0t6MhYjFvVpXd5JycvMpamEMLU3PoGPHavj+v9yLHNY9f76DRe/Jk6etlhlts6WIBQPlkYXADQwKtcl+BMEREBErOB0Y0QvxY63bDQ32gpAwOn3GfpW8rUQsPFCeXj70/Asv0dPPPkdvvPkWrVq1ZlhiAuJ32bLldOWVV9KOnbu4YbVWbrzYUESshfNQGICuzi4WrNoDi1CbBCVoO42BXJaMhYiFWN2xYyf96le/optvvZXuuedeuuuOO8gvIFC9eLayUNVlcZ9AsOKzflFLS02j3bv29Hr2zMuNttlaxIKBhCx+22D1km7LOH9BGK+IiBWcCghYdKlZE7DwPGEmLnsKWGArEdve3knPPP00Pf/c8zRvvge9/trrdMXPfkbLlmezwEXjeO5sS095NPD19Y3sgdJeW5RDGRzHtu07WAgcPVpFjWpdlIcwQZct7MwZ07rYlv4e29DbhBfMtM3z/H9jo8nbBXHQanT7wkYa9gDD8Q5GxB44WMFhISdOnDS+EQZi2/adnGYLA7kgdhBS0Nzcf17ksRKxpaWb6Y9XX82D+06oeywyMpp++KMfU0bGMr7H9P1ZUXGEqo/VULNaB99hetw/XnMtx/bCI4tn5Pz5TjpYcZjLYd3R9tDaQ8SCywnZuPjEPpNXCIKzISJWcBpOnTrdb05FVPYYFFFbW2eUth+2ErFohF944QWKiV5obJnommuvpQ8//JA/FxUVU0bmchaNMEwKgJyRWA/LPv/0M/rXP/5BySlpfBwHDh5SYiCKt713735VfgltV6JmmhL3vr5+LATrlZCFuC0t3UKff/YZeXt5c6N/9uw5FrN+Pr70+qt/oW+//obLQBQcPnyUvv7yK3r7zTdp3rz5dESJZJS1PJ+h2GBELAbkhYZH0TcTJpGnjx+VlskMRpfjnBKsqYuX0ndKyLp7+nB4yUCMlYjdvLmMrlP3enn5Qb6fu7uJnn/+BXrn7bf5uNasLqQP33+f7r3vfrpfWdG69Sxqv/3mW/qv//pvevrpZyg3N5/WF5fQu+++R/c98CA9/MijtGbN2lE7D232ErEAdUx/QhaTVyxZmkHdZoP5BMHZEBErOAUtLS0saPoTsPM8vOnoKA0QsrWIdVfCsK7uBKVnLKM77ryTlqqG6cKFi/Tp51/Qn5WghOiEN/QutSxr2XIe2HHnHXeQx/z5FK1Ea/TCGHV9zlNeXj5dffXV3O1arBr3n/3sZ/SIati/+OIruummm8jD04u3W5C/gh5+6GGaPXsOvaq2/9477yhhcY6CQ0LpqaeeptTkVPL09KQVK1erfbfQ+x98SH/7+G+UmpRMHu4etHv3vhGdN+xyIrZbqZoUJcLhXUcZeBezcvKMpcJA4DdepUQgXj4ux1iL2D3qpQwisLv7IgvU6264Qb0gqRe2lFQKVfcjps79TL1sPfvMMyxik9W9iZCZoOBQTkuVkppG4WHh7NH96KOP6S+vvkrt7V1W92svs6eIBcjAYnoOemdgwXOB+P909aJrOWBPEJwFEbGCw4OBKosSkrkLzbwSh8FDARGLRmy0sJWI7ejoUiL2Rfq5Epv33HUX/eqXv6QXX3qZu0W7urrp8y+/otfeeLNHxN53772Ul5NLG0o20c9+/nPKL1jJ8aJwxEAQ5+bm0Y033sjbRrfr75WgRWgC8PcPpJdffJH3+cyzz9HfVIMPkLLnhz/4Ae3atYf+8Y9/0WuvvU6nzzTyss7ObqqpqaNbbrmFfLx9qbWtg7+H2Blpl+3lRGypEjlawErXqf0YTyJ2wncT6MrfXaXu/1p1/1+ggoIVNHPWbLrvgQfoiUcfo7bW83ycN918C23dtoPDcbCt1avW0IwZs+j+++6jV/78Ct/j1vZrL7O3iAWYVhieVzwP5vUf9okXe4QeCIIzIiJWcGg6O7toSXqmEjImQWNZgSM2FnOQjya29sTOmDqNKioOUfn+cnrllVfpL395TTXEnfTVN9/S62++xSIW+3ng/vspMz2DOpS4/PyLL+mqq66iW5XAXBC4gDpV+fz8Ava4Ytto7G+46U8seIGfXwC99upfOKXXTUroXn/ddfTCSy/Rk089pYTD71jE7tu7nx5+6CFe9uwzz/K67UoQpKUupmuvuZZuvOEG+tvf/8HhBCMdRDOQiIUHca6HV88LiruXjxIHp42lgi0ZDyIW+8WL2JvqXn/tL3+hru4LNH3adHpAidL4+ASaM3sOi1iElxRv2Mj3NUQbxOrMWbPogQcepNTUNPryiy/oZfUS6IwiFi9wqYvTezJOmBueEzxH+8rLjdKC4DyIiBUcmjWFRf16IDBNo+UUm6OBLUXs8y88T7FmMbGhYeF05W9/S6eU2Pzq62/prXfe5e5RhAvA05S+JJ26uy6yuNxStpUC/APot7/+tRLBhzke0FzEXn/jTbSuqJi36+vrzyL2XHML3a/E8N8//pgOHDzMHtsKJRqR8gieV8Terl9fTG+99Ta9+sorLDjAkcOVlJuTS3fecSd5eXmzF8zyfIZi/YlYhI0EBoVwY43fGLZfiXvBPlQfOzYmIhYDuyBia46bYtiR8/kH3/8BJSQkqnvtKP3ohz+klKRkXpaYmESPqJer9vYOvp+vu+FG2rv/AIe6fP9736MU9ZIFfH18WcTCqzuag7tGQ8SCtrbzFBxqyv1rXhfC8LI3192TKquqjdKC4ByIiBUcFkyPOW2mSciYV9gQPhA5mcus5760N7YSsRCCiPX7x9//TukZyylRNdq33XILffzx36izq5umKpH+kGq80SCHhkXSf//nf1F2VjaPxE6IT6CTahsQA7ffeisdOnSEVq5cxd5ZbBve6Suv+j0Vri3iY/b08KLnnn6GP6Oxv/H662iTKrNr126Oqz1WXUM5eRgos4FjD91UQ/nk40+oRrmeB4jtV6IB3tfHHnucpk2dSh0d3X3OZyhmTcR2d1/g+D7tbZow2Y2nFAYQLDt27uYpVcVsZft4YNT0WXNHXcRu3badfvKTn9Dbb71Ff1P3/03qheuLzz7n3xkhLA888AC99MILFODnx7Hgt6l7HIPUKg4dpuuViMWAxhJ1rz72xJP09NNPU3BQED2pPt926y1UWVk9oudyqDZaIhYg84pfYJBVjyy+818QwtdQEJwFEbGCQ3Ls2HEeXQ0Pg2VlDXETHRPHXe5jga1ELMTi1998S7fcdjvdquz+Bx6kqW5T+dyxbOvW7dx43/ynP3Hs7LvvvMu5YCFAXnzxJXpQNfTPKGGK9ERtre1UsnETffDhR7zt3bv30puqPLaBkIxFixLou2+/42wD8La6TXHj8ID77ruPpk2fzlkLkNngySefoscffZReeull2lxaRo1KuH7z7bf0hBIIjzz0MP3zn5+wmLBpOEGlScRCUMHLhO8Q5xeXkNTzG0O8TJwyjYWCmO0M6erwjJVt2WZTEYuXn/6eDWS2QNx3cHAITVD3/5TJUygnN4/OKjGI+wqicLd6gf3m62/os08+5WUIF4A4hQBOT8+gT5SIXb1yNb/Qubm50aQJE9VL3GqKjY3reeGytm8Y7n/z5Q0jzLQxmiIWYGIIDy8fq4Nc8V18YjLH1AuCMyAiVnA4kMQbmQgmWuk2g7chMDiUTp4auxhJSxGLRhn/m3dhomFDY2ne2FkaGvpjx2vp0KGjdPDgIao7cYq331Bvys8KUXHwQAWtLVxHtbUnOMQADRjSYWHdsrIt3GAjpyv+xjbhndXbr8E6xn6w/vGaOv4bM4Q1KzELLyxScUEY4FhxzPDobi7dzOUQi4t10eDv219O5eUHuCyOC/vU+WX1/oZi5iL2eE2N2s8ZJajcOcYZYmC+h7c6pnq+HqDi0CH6duIUFlxitjNcbwgfiFj8/vit8bub/646JnuwvzXfb3Un6fCRSqvLYSjT1tbBvREw7KPneVH7wbHge+SAxYsXPmMdHAP/3dHFxwTDsrbzHXxv4r7EdsyfA3PDNuDpraw0zWyHexihNCNJGTfaIhbgecQLiGXqLTxPyFiAQZ+C4AyIiBUcCiSKQYxbf3FfXj5+qoE8YSo8RpiLWDRgVVXHOSbVXLQiZ+vx4xBnA88Hj8azSTXE8Lxu37adIsIjWazq9bB9NNooB+MGWjXk+P+sarSxXG8L66AMlkNonlfbxPe6vHlDjbIog/XNjxGiAGLAvCzKYQDOwuiFLHKOKHHi5+evBPTBAT1eA5m5iEVcZlPTWfXiEtnjicX1XWvE84IjR4+yyIUHSsxG5u3Lg+bwXEHEIkYbA6f076zvp4XRMVS8foO6Dy5NvDGQ4f5BirfX/vIav6SZ30vDMayP7QxWRA9kEMuF6qXwz39+hbe7sWQj3Xn7HbRm9RpeZm2dy9lYiFiA+GDz50UbjgPf47cUBEdHRKzgUKxcXcjeVsuKmUfgzppLhw4dNkqOHeYiFqmAAgMCOUclPELcYKvG9oXnX6CsrJxeXlL8by50teF7DKrCoJb77rmH6lUZXU6vo7ehv9Om/4ZwgDDE32hUSzdtpuycXCVGLnXpotxA27JcppfDy5W9PIvjdSFoN5SU0rXXXEOrVq6mlsucn/l2teF7cxGrY2IR7+dvxPthxqmpM2bTlq3beFlHRwedOHlSCZlTYjayU6dP045du/nZwm+BdG1RkVH00IMP9nhG8Xs//sijFBwUou7RC/w9PPnaO2p6iTGJS/y2zc1t/HutW7uebr7pRqquPs5l8FygPDyo+BuC1FTeNKscBDTue2wXzxT2hXsEz8/iJen0yaef8axx2A6vZ3hj8T/2rV/ctCFDAf43F77YF8DUzlf/4Q/sgd2zZy998q9PaKvhicb+sV99ftgftgHD9+z1VceBsjBsd6xELHLDZixbbvWFHx722fM8uK4SBEdGRKzgMOzZu58bAmtdZKioV6rGZzxgLmKRGmj2zFlGfspuU6N34hTPBZ+enskNnm6M0fjjMxpX3fBCfKIRhIhdsmQpj8JGY65n1tKiEI2q/ox1sAyNOQQBtrm6cB3nfMXfaNjffudd+ts//sn7x3pYH4IW68CDqxtn/I9lOAZ8xrb1seE7HCtE7MqCFXSvEtjopsU2EHOLGEWk7EIZHV6A/WM9vW19DvgOn/E/to9jthSxAKOr53t6cyMMw4sLwhgE+4DrrbMT4F6OWRhDTzz+eM/vht/22aeepvDwCDqvBNy6dUV0/FgNZWfnUHRUtHoWTCIV9wTuHcSlxkTHcGqs+++9l6qrjvH9dfx4LUVGRFJYaBhVqfsGXl1068Nju23bdrXfWN7WipWraO7ceZwBY8f2nXwfYUIO5EjOWpbFYTGnTzdQfl4+hQSHsAcVGTdwr21Sz+POnbuppGQTBS8Iom1bt/Pxm46tldauLaLYmFiO/UZqOoTmYFt5eQWcNg7lVq5YySnecH7wSNfUmDzJEOeYZCRKnfNSJaoxKG6zuma4l7GPsRCxoKOzkxYlJlkVsggTQehVY4Mp77MgOCIiYgWHADNWzffw4q5Ny8oYFfTy7Fyj5NhjKWLnzZlLr7/2ei8RiwYcntjTp+rp008+JV8/P3r/vb/S3XffzSPw0eDDs4R0Vs8+/TS9/uqr9PZbb9NTTzzB22APVNpieuWVV3iwlb9/AJ1TjSViVr/56mv68vMv6eMPP1LCv5z++c9/0VNPP8OWtngJbd6yjf7wh6vpD1ddRdOnTWPPcJgSIS+9+CIL0c8++5zjbyEuZs2aTZMmTuSUW/eqY4Mw0eIVIRHvvPMOPfTAA/TCs8/Sg/c/wMcGDxbOd9PGUm7Ep0ycxOEFL7/8MueyxWxREM8QLhhMhgFoyHTw6aefkaeHZ0/Db03Egp279rA3FqIAQnbOfA8qP3DQWCrYEvM8sVrEPqnuQXMRi6wWEH7I3/ryK6/Sow8/wqECd91xJ33wwYd0ou4Uv+gg3dufbryJXnz+eU7jhhc53HsYxIUcsG+89hq9+uc/0xuvv8Hx2hCIt992Ow9cxNSxCCN69JFHaPJkN/rw/Q8oPzePKtT9fuedd3HauS8++4w9uxj8+OSTT9LLL75EN1x/PeUqQXtBHfyM6TO4HO5DDFjEswQRDS9vlBLWyHLwwnPP0RPq+9tvu43vQ6SYu/ba6zmLR6t6Hl5+4QVOZfeqOs+rf/97+qd6EcTAyC1bttI96vl4/NHH6Jo/XkM33HADP9c16h7HczRWIhacqa/n0BBrA72QnhAz3wmCoyIiVhj3IP9hSFgECxfLShgCNjxqoWpIxs9sTUMRsfAA3XzLrXSbajQL8gvITTXA9yBkQJWDx+f6a69VovQrKi4qoveUyH1MNeLtqtEtWlfEOV8RXgHP0h//8AdOoYVR+t/7n+/RRx//jbZuKaNpU6fRc889z8eFuNwDSuxVVdfQ0888w2JhixK08HDNnTefstXxYLu33X47RURG8zrv//V9uvI3v6GkxEQKDwmlm9U+4WGFkEUGhLeU+ChcvVoJBzcWAfC6wYOFzAbri9bz3ziHp596ilasWEH/Ug07xDREuNuUKbxteLfefusd+t73vkfLMpcpYTOwiAUbSjayuIIwQD5gTx8/Om020EuwDUMRsQg3ePrZ5+hVJWARRrJrzz669o9/pP37ytW9fISu+NkVlJmRydtFWrY71D0Pj7u3Elh3qnuuvkE9G0o4XqPWSUxI4mVX/e53FBoSxutgxq5n1AsdXvAA7iHYl199w5k2MMgL91tZ2VYeNAbP6CNKVH72xZdcfqJ6mcJ0zPCo4kULIrpMiU+8+P1eCdJIVY+AjIxlPOEHRCzO+7rrb1AidAOLXQj0r77+mkf3IwvCtdddz8eMlF54MQRL0zPp+9//HseG4xzwrIyliAWYchsve3jpM68/8XxB3BZvKDFKCoJjISJWGPdk5eTyiFrzyheGChldy/C+jCeGImIhAu67/wEKCQ3ndTE9LmJL0Q2/KD6Bfn/VVdwQgqVL0+kx1YhicgN4SyEAY5WoiAgLo5/++Mc0SV0jCNVrrrmGsxIAdKnecMON7E1dsWIVtZ1vZy8oGv2vlSjo7ka2hzZOi4WuVOR//e2VV5K3rz+vD0/r1199zZ/L1TZxbJWq7HrVqP/kJz+l1UpEg7Vr1rIX94w6P3hY71CipHh9MQsdeOQK167jcnGLEuj2O+9SguUsvfLyy/ToY4/z9+4eXvQbdT6IVcQ2+gsnMGdVz5zxc1nIhoRHqnMxxTUKtmEoIhbLn33+BZql7ncI2n3qfuEcxRWHKCEpmX70wx+p37KKY1qLiorZs39aCcA3X3+dp1R+Qb0UwZAfFqmwIP7+pF6aUBY5gtetLaIbrruO41X/9re/c3gRvv/8i6/ojbfe5hdCHA9G3n/80Uf02iuv0K9+8UuarF4MwXfqfn9X3c/gqBKYENE7duzi6Wu///3vc/gCwnYQ8oD9QsTiebzhRnUM6n7Hc/PYI4/ycwiWZWXTTX+6mUMN4mIXsdjF9K/ffPMNv7idOGHKajAeRCwo27pNPS8z+Hkxr0cRnoVcwBXqRUMQHA0RscK4BimeIFZRyZpXvNyVrCpfTHgw3rAUsXNmzWaPZVfXRW7U0IWKKTOXL8/mRhf5X4MNbxPi8uAhgoh1UwLtd7/7Ha+Dhj8tbTEPosHsXJip69e//BV99cWX9PeP/0Z/V4061sX1uk419Gic0ahDECJO7/HHH2eROGP6dCUUO7nR//zLr7grtLz8IDfOyLkZFBKq1r+efP0D+XjMRSwGt0CU1NScoIz0DPrRj36kzrGMzxFdu4hLtCZi71aiddVqU7xyeEQU3X3vfXRCXQOk8Hr4oYd5kNtD6n//gAXsZYOnbDAiFmQuz+IXnO8mu1F8UgqdP3/eWCLYAksRi4FdTz35JH/GvQvR9+Jzz3NMrBaxbtOm8/0KkYn75fChwxSjRClErH7hRKzrPXfdxff5O2+/w59379rD99iBAxUc64oXK3hEISohmhFzCy9/TEwcPaJe5tDDcF69lH2h7k+8lHV1X+SXqyvVS1hiQiKLxzfUc4eXNTBhwkR6QwlmHCdm/YL3FzGyeXn59J//+Z8sYgGeI4Qw9CdiMcASYNDUn26+hcrV8TY0nqOXX3qJ7lDP7rfffEtlpWV8fbCN8SJiEVKxeGlGP/GxMylIvUg3t8hECIJjISJWGLfU1taxR9BaFxhyxGLK2fGIpYhFnCdm1upo72IPFbo8b7355h5P7L333U8LgkJ4XTSg8BBB/EG0/uIXv1Ci0NS4RkcvpIcffJCnlQ0ICOT4QkyhCTASG9vavn0nd8fifzSeZ+obeDlISUllT9Zpte3XXn+TvjEa9+CgYPrlL3/JxwUeVILSy9uXP7/19tv0pdEdC4EBTyzCD0pKNtKPlYhdoQQGyFJiEnGEDUp8QsTis7knduUqU7mw8Ei68+57VONer36/texpRsgC1m9Sx9+kxAAEzGBFLLISxMQl0CKziQ8E22EuYiFY8TJytbq/MjIy2SO/cWMp/eH3v6e0lDQWkY8/+RRNnDyF70sMbrrx+uupfH85C9Pvf/8H/BJz4uQpmqOeD9yLmCwjPWMZe1cR/41UWavVPhB+AMH6x6uvpoKCldyVD5EL0QnS0paoZ+gWvme//vY7evnPr/D3GGz17//+7yygMUnBHere++STz3jZ119/w95/PIMQsX9SAnlz2RY6dPAw34d+/gEce4/47d9d+Tt+mcJ5/+HqP3I6N4jYB9SzGhe3iLe3VF2Da669jsMW1q1bT9//3v/Qc0rEz1fPO2bKa1YvkeNJxAK85IVHRlsNzcLLYEJyqqqzTHWKIDgCImKFcQnECQZbWPMa4Lsk1WiOpzhYc8xFLGL2MBAJ88A//cSTNPG779gbdNfdd/fkjr3zrrspcEEwr7tmzVr2PmFACEZaP/roY/T4Y4/R1MmT6Y/XXMODqM6dbaEjSlzcfdddPJjkW9U4Y5uYfQthBBhwsm3bDupQoiMpKZk+/vBD8vbxow8/+IC+UIIU8XxfffUN3X777ZSihPKyZVn0CyViv/luInm4e9Avf/5zmjxpCh/Pm2+8QZ9/9jl/RvwsBsrA84QMB5ghDB6rCd9+S/fdcy/99rdXskCGiNUxsfAi3/Knm7nLFoSGRdCttyMusYGntcWMYxDm8Nwi5heeOp2lYTAiFmAaTXQrC7bHXMQ2nzNlypiixA56CO5Q998N6l79SN1XuFfxEvLXDz4kT28fDgvZX36QnnvmWdqrxCwGKQYELqAbb7qJ7lFCENPGYiAX1jvX3Mq9Dpgu9p5776Onn36GexROnDjFoQsIJ8CgsRglUB95+GF686236bnnnqNkVQfgd0ePxh+V0Pz88y85Jda76sXr2Wefo/fefY9efNE0kx3KzZ83nz795BP2ElcereJBXKWlZfx3gnoJwoAshLpgkCEGbkGAblMvg4+r5xbTNCPs5k318odwAmwvL7+A47sxuAyieIrbVPrwo7+xoP7ZFVfQ4tQ0fv7Hk4gFmDxk9jzTxCHm9SqeNcTHblLXRBAcBRGxwrikqHhDT7yjeUWr08K0jONuL3MRCzGGrlCM1J84YaJqaD9noYj8pjpdFbxKSCaPv9G1jwYVA0/w99595eQ+fz57kWJiYiljaQY37tgmUmZNnzadvvzyS0qIT1DfnyZMSZuihKspTVEzN8Ie893pK7X+AiUiDh+u5MYYwgKDvpDfE8e4VG33q6++5u5iDDDLy83j+FJ8RrwrQhPgeUOcLrp5MQUojgODcuCpRdaCRfGJHPOImF+Ug4cKIj0xMZmPFeezVYlrjDJHw74gMEgJkBz24O3YsZO7m0OCgll8D0XEAnQro7tUsC3mIhb3E35P3AtIoZa2eCm/LOElAh5ReNBx3+K+wH0Nw9/4HmEDEHSIk83NKzClr1LLsQwvOrgnca8ibhvClsNuTpm2hzJ6e5hUY/GSDN4OUsFBFGIykNLSLbSmcB3fY1gX+0BmARwvPMJYF8dl7djgccXzBO/t8qxcfpHCehiwpc9JH4P5Z70Mgh0viBh4Bs41t9E111xLX3/1FQvk8SZiAeofZHqxrF8RH4uZvo4M4pkThPGAiFhh3HGw4lBPhWpewXIc7IxZ3JCNZyxFLBo8NK6IiUU3q2WidfbWqHL4Gw0wptvUjSQaQAwIQ2OILlWUNV/Wqb6HCMT3aCDRIKPbkxthVQbiAqEGWF8nn0dDjuPCdyirjwHHhr8hKNCooxz+x7Ej+T22iWPAPvSx4lywHr7Xy7A9fEZ5fMY2642pcrFfzBSG5S+8+CKnQlq9cpUSwQt5hDi6qXEsQxGxGEDjF7CA42O7urqMbwVbYCli8XviN8a9h5RT+F//5jDziTj4bxajps8oh98V9xS+Ny+ntwlvr/k6+Ky3r9fHyxX+12VgODZ9fNgu9oEyZ86YBgnq7y2PzfzYsf8WtR6eEV0OQtu8nOXx4G/cr7h/kZ3j3ff+Si+9/Ge69977aO269fzsYLvjTcQCPC8TJrv1qmNhk/ByGxqhnu0Oo6QgjF9ExArjCjRQfsasTJaVKyrcnLx8o+T4xZqIFettEArobv7um+/o+WefpZeVoEXMLr7XYmUwIrYdYScxcfTdpCkcZoLBXe3t7cZSYaRYE7FifQ2THSCcJzV1MafeOnjwEItXLBuvIratrY1CIyKt5o/Fs5Sdk2eUFITxi4hYYVyRkWl9mkSI2ojoGCVQxr93QETs5Y09yY2maTwxGIy9cM2mWcawfDAiFjHRiI3WLzwTpygRm5hECC0QbIOI2MEbvK7oYUDPgxawsPEqYgEmlLCWPxbHCtu3v9woKQjjExGxwrgB6bLQYKLyNK9QUcG6e/lwl7YjICJ28AbRqs38+8GIWOQDxYhqlEGe2MiFsUpESIotWyIiduQ2nkUsWLN2nVXHATy0/guCqaW1zSgpCOMPEbHCuKCxsYm8/PxVg9l7WlkWKFOnU/GGjUbJ8Y+I2JHb5UQs8naikYUwwP3hG7CAGmQOeJsjInbkNt5FLOLIYxclWJ1QBs8WJnUQhPGKiFhhzLl48SItSc+kSUa3sLmhYkWXsSONPBcRO3IbSMTiezSuEAV46Zkz35MOyWxDdkFE7MhtvItYgOPy8vHr40TAMWOAbfmBg0ZJQRhfiIgVxpydHEbQN90LwggwJz68tI6EiNiRW38iFql/5rl78b0Bmz3XnSoqDvEyDOiqrKpSoqGJP3d0dkrarREiInbk5ggiFuwvP8CzIOI4zevhKapuDggK5t9fEMYbImKFMeXcuWbyDQgkN4uBBTqMALkeHQ0RsSM3ayK2praOfPwCTGEE6nsI2J27dvEycPrMGb7us9T3IeGRFBEdS/GJydwdWriuiLbv3KVEbjWdOVNP3d3dxlrCQIiIHbk5iogF6ZnLud41r4thiJnNkmwFwjhERKwwpizPzrUai4VpZVPSlhilHAsRsSM3ayK24tBh7tqEwWPk7RtArWaDTrAcDTC8+togeNEAfzfZjT23GInt7ulNoUrkYh555PJEVymmQh2vM8CNJSJiR26OJGKbW1o4xaFl2i0c+9SZs3iSCUEYT4iIFcYMeNYgKiwnNYD48PD27TXvvyOhRSxmxUHKHTT+YkMzXDfM4GQZTrCmcG1PRgKIUsRL6wkOMOMS7icsm6DKQLxC1KJBNhe2WE8LXGwLf+N+Cw4Np6Xpy2jbjp1UW1cnyd4VWsTit9CTdIgNzTDJyMZNZQ4hYsGevfv4GeoTVqCeF7z8OUKaQ8F1EBErjAkdHZ2cpB6pkcwrSlSeEB6YntRRQZc1hDm6tJNTF1NicqrYEA3XLTQiigUmhJQGYQDJqWk8CBD3CkRo4dp1vAz5YZH3EuW3bd/BqYMylmWp8ksoOCyCvHz9ec54CFh4Zie5mby2+K0QzoJGWtvMufMpPGohLc3IpLItWwlToLoiFYeP9IgX9IxY+63Go+H+SVuSTouV4X9t8L6nLl5qdR17GY4F9x+u4+nTjnEfYaCttR4yvBwWrS82SgnC2CMiVhgT1hdvUEJkBgsR80oSAhYJ6y8a5RyRk0rwRMcsogXBYRQYHCo2TFsQEkZRC+Oo7sRJ48qaOHv2LHkbsbEQoMhOcPDQYWOpdTDAC7PBQeAiznrVmkIlaNIpLCKa5rp7stcJohbiGNvE39g+JlCA0J3v6c1iBLG1OB5k1HAF8FIQqX6DQPVbBAZZ/53GmwWFhLNH/qtvJ/JMbqhTtE10m0qz1ItMeORCvr+srW8PwzFFRMVQU9NZ48qObzCVM54LvESa1894NhCOgzpOEMYDImKFUefEyZPcyFhWkPCGzfPwcphJDfoD+gbxleiOhsdZbASmrqM1wXiwosLUqBpiE6K2fhjhJ5i2tr6hgWcmys0roJi4eA4twDa1aW8ti6ApU7lxj1wYQ8UlG+n48RpjS84Jrr3pXnYcw/Gi2z4vfwVPkoKwEsRQaxEGjzy6zLu6uvnlxto27GWO9PKzsXQzv9hZdzQkq+tsCuMRhLFERKww6qQtyeCBW+YVIypKiIUNGzcZpQRhYNYVFbOoxL0DoYLu4pE2rBAZyHIAUZu/YhVFRC1k0TN56gxuvPHiBcO9OmGyG4cnJCSmcPiCo6WCcwVOn6mnHPVyMt/Dm0OXcK/Ayz577nzKVSJX4p77B6IbU33jvresq9FjsXnLVqOkIIwdImKFUQW5CHVDYl4xoqJEF7zk9RQGC+Jj45OSWcDiHvp6wiRatbrQWGo7ztTX8+j8lMVLWNBCwGKfuIfh2YO3FgIJOY3zClbSsWPH2csnjB/Qu7MoMZl/J3hltWc9KCSMyg/IiPv+QE8DwnVwvczra9zzGAgp0zwLY42IWGHUaGlt5fgwyzd7LQaQIkkQhsLZc+fILyCIvlECFvfWQWPiA3tx9uw59rrC64uuatzLMNzD8NDqeztyYSzt2r2nJ3OCMPZ0d1/glxHEN+N3wsu0/h/TWl+84BpxzkNl9Zq1Pfe1ueG7gpWrjFKCMDaIiBVGDcx3r71mvSvDGZwvVhCGw959+3nUOQZujSaYNAEhDQg5gIhFow4hi88cS6s+h0dGU2nZFmptu5TPVhhbkNoPWQPwe+HlGXHVqIOWpmdSm3gW+9Cm7l0f/0DugTCvt3HtMLHIMSePCxfGNyJihVGhobGRu2L7DOZSFSO+h4dLEBwRhDVgutvcghU8wAzxgrive8Ss+owUVRCz0v06PsBvVrKxlGOa8RvBG4v46tj4BKmLrLBj526uu3GdzOtvvAggZZmEgQljhYhYYVTIL1jJ3g7LShApjDaUbDRKCYJj09DQyN2vAQuCTbGyqpG3FLOby7ZKwvhxwoGDFeQbsIB/J9RH6ClCOixHmJRgNIFIXRgXzy9o5vU37u3ps+fQocNHjJKCMLqIiBXsTmVlNYtXa4MDYuISOCWOIDgTGNmNSRIWxi5SDT1iL2dwgw8hi/seEyns3LWbPYLC2ALBipyxELCop/D7YOrV8vKDRgkBYBIXLVwt6/GomFjxxgpjgohYwa6gYluUkGz1DR6i9rC8wQtODAYTISdp7KIEvud1b4T2zGIAGDJ2CGML0qMlpy3h1H/4feCZRRquqqpjRgkBFKxc3WdcA64X7uXtO3YapQRh9BARK9gVjBafOmM2V3TmFZ+OpXKVmY8E1wZZCvbs3U8L4xb1zAKmxRL+R2J+hCIIY0en+o2WZizjFwy8cOD/oNBwzhssmIDYRyo5a2MbkCWkubnFKCkIo4OIWMFudHZ0cneqjjfTBg8sBlSckrgzwcXADGRlW7dSQFAIDySaOtOUzQAzI7l7+VLxhhJ5sRtTLlLeipU9Hll4HZFhAukBBROrC9fxvWtep8NwrYqKS4xSgjA6iIgV7Mau3XvZC2seQ2XyPs2glXZISi8IjgLm0Mcz4OHtx4IAzwW8W/D+LUpIotraOqOkMNpgogrkAdYv3xC0CUkpErtvcL69nT3U8L7qeh3G3thA8cYKo4uIWMEuoMKPjonr44VFRYecg2jEBcHVqas7QQnJKfxcwCBmIZowkcL6DSUy8GuMwPTFiOXH1MKot/CikZtXYCwVkJtZ50Q2r99R39tj1jxB6A8RsYJdwMw4erSveSWH7zA7jiAIl9i9Zy+FhkexWIIwgECYrJ6V+MRkJXRPGqWE0QS5rQODQnpiZBEGtXX7DmOpa4MY77j4pD5OCty3yJUs8d3CaCEiVrA5yIG5IDiUpljpbkIsoMSXCUJfmltaKCc3n58ViAMdk4mQg/IDku5pLMALBLziHOqh6i98hvdcIKqoOMzCHnlidR3P9yy8sWvEGyuMDiJiBZuzaXOZanx7v6HDEAu7oWSTUUoQBGscOHiQQsIieoTslOkzaIZ6fnLyCtgDJowu27bv7PVSAQ8kwg1cHQxAXJTYN32i9sYik4Eg2BsRsYJNaW9vp8BgdMFZ98K2ihdWEC4LpqfNXJ7FAgGDIzG//4QpUyk+KZnq6xuMUsJokZWT20vIyih8Ewd7vLGXwsZmzDZiY9esNUoJgv0QESvYlFL2wvZNhi1eWEEYOhtKSrkLWwso/O/h5cs5Z4XRAy/noRFRHB8LT6OXr7+MwlfAG5uQlMr3pXmdf8kbK7Gxgn0RESvYDHiPAhEL248XtqVFvLCCMFRq6+ooyGxaVDxP8HzhhVEYPTBxix7gBdGG8A6B6NChI3xfSqYCYSwQESvYDMwVb90LO128sIIwAs6ePUfLsnLYE4jQAggpiNmCFat4UhFhdEhKSeP6DIINdRteMFydixfgjU3p1xuLLA+CYC9ExAo2AXlhMTsXGlnziuxSLGybUVIQhOGC9HRu02ayQICQgnDA5AhtbeeNEoI9OX36DLl7mrIV4IV9aUamsaQ3rjbpGjIVTJ/VjzdWYmMFOyIiVrAJ+/pLfq1E7YaN4oUVBFuxY+cuTrsFgQBvIHLLxsTF07lzzUYJwZ7k5a9gAct13dz5fWZXw6j8lLQltG//frpw4YLxrXOD2Nh49sb27omDE8MvMFhCyQS7ISJWGDGoqJFqxbI76VIsrHhhBcGWHDt+nOPPMbsXnjX8HxIeIZkLRoHTZ+p5sB1COiBml6T39sauKyqmbydO5vowOXWxy/RCmTIVzOnlyMBLFtItFq3fYJQSBNsiIlYYMRjwgMoLFZauvGCovNbL7FyCYBfOKDEVtTCWPbGm520aBYeGU32DCFl7k1ewkkUqep/me3pzmAGoqa3j7BFa4CLUo6PTNWKWOW9sgnVnhv+CYGoVZ4ZgB0TECiOiu/uC1aB+XXG1tEgaGkGwF+imjYqJ6xGyeA79AhZQVfUxo4RgD06dOk2z5s7neu6r7yax9xVg4JcONcDyyqoq/t5V4AwOs3vHxsK5geu0fecuo5Qg2A4RscKIOHa8pk+lBYMXVlfsgiDYD3RXRysh+91kNxYMELJePv5KyFYbJYSRsrZoPS3PzqGmpkuzUMXFJ9LUmbMpbWk6nTh5ko4ereLrj7oQ4R2Zy3OMkq4DZpQLi4zu49TA34jbdpUYYWH0EBErjIiVq9b0qbDQxeYbsEASXQvCKAGPLMSUmzG4EllCPH38qKam1ighDJe6EydpvqcXx7l6ePvSxk2l1NLaSidPnaZjx44bpYhCwiNNKdCUsJ3n4UW1dSeNJa4F8hdjQC+mStZtgskz7U7V1ZeulyDYAhGxwrBpaGziPIAQreYiFl2bOXn5RilBEEaLvIIV6qVyBosGTFm7IDhU8nSOkKUZy+irbyfyNcUUwLi+GFS3Zet2owSE2xYWbiiDrvONpZuNJa4H0r35WGkXEGaRtiTdKCUItkFErDBsitaX9PHCwgsxe547D3AQBGH0yc1fwbPmmUaGT6PgsAhqkMFew6ayqprj/nWohhaquMYRUTE8eBU9TxBt8MSiO72rq9tY2zVZuaqQ7z3LtgFxwtI2CLZERKwwLBD7FBQazhW5eUWFSj4hOZVHqgqCMPpcuHCR4uKTaMJkN34m0TMSGR0jEyKMAMRyHjhYwWIWHm6IVS1mtbCFyEV9uGPnbmMt1wW5chHOgphh8/YB92LhuiKjlCCMHBGxwrCwNl82PsMwQlUQhLGjubmFB3vpPLLwisUuSpCk8yMEL+c7du2isMgoFrLmPVH6Gnd2dhmlXZvlWTk99582iP6QsAhqb283SgnCyBARKwwZOFkR22QZSoBKPTQ8kjo6OoySgiCMFc0tJiGru3W/m+RGqUuWGkuFkdDd3U3bduykcGMkPq7xfA9vOi4D6XqorKzi+87c0WHyVs9QLwLirRZsg4hYYcjU19fT3PkeNM2scoKhmw0jdwVBGB/A8xoaEcXPJgQEPGHSnWs78MKOVILuXr6Uk1dgfCsAeK0Xxi5i0dqrnVCCP01epgQbISJWGDIlG0u5YkKjqCumaTNncfoZmfZSEMYXmE0KA4/wzGJmPQyw2bN3n7FUsAVnzzVTa5vMSGXJptLNSrT2HfwLr/WJk6eMUoIwfETECkMCsUwhYaZ8iOYVEyqqxUslfYogjEeQiH+uuyePoIfNnjuf57oXBHty7tw58vEP7JNua+KUaVSwYpVRShCGj4hYYUgcrKjghOoz51zywuoBXoePHDVKCYIw3thUukW9fM7kZxVxnAtCwni2r/EOvMbpmcs4X6vYUC2Tr11WTi5PlTsWIMwCuXXNRSycICHhMsBLGDkiYoUhkbEsq++ArukzKTxqoYzKFYRxzoqVq3tCgRCbmLp4KafLG8+kqzrnu0lTyC9gAfkFBinD/2KDMf8FQTRnvgfX2YcOj43nHYPdtKNDtxn4G+m3kLZMEEaCiFhh0DQ1nSUvX38rXUOS+08QHAEMtklKTuVnVgvZdeuLjaXjk8zl2RxvX1tbRydPnuZpYMUGZ2fONPAYBvzWh48cMa7o6IIcuzFx8Ty40LzdwN+Ll2YYpQRheIiIFQbN5rItffL+mYL0vVTjIkH6guAIQNj4BwaxRxbeMVjFOM7trEXsqVNnqKGhiY9fbHB29mwzbd22Y0xFLEDboXsAdNsBZwgmRGhsOmuUEoShIyJWGDRI5G05oAvdVEsylhklBEFwBI4creQpQPESimca3fQQPOMRLWJPnDjFwgxiVmxw1th4lsq2bBtzEXv27Fn+DafO6D2DF3oCNm/ZYpQShKEjIlYYFLV1Jzi2Co2eroBQMbpNn0Xbd+w0SgmC4CisLVrPPSt4jpFdJD1z+bicLlpE7PBtvIhYgNABy3RbeIGKi0+k7u4LRilBGBoiYoVBsX5DCVdA5t1BSJyO/JPnzo1PD44gCP1z4cJFTjqP2ESEFOB53rt3v7F0/CAidvg2nkTsvv3lfI/NMBOxcIog9dvJUxKOJgwPEbHCZUFg/sK4eKuhBJnLsoxSgiA4Gg0NjRyXCHGBGEUf/4BxN2GJiNjh23gSse3tHRSwIJiz2eg2BMeFdqV4w0ajlCAMDRGxwmU5ceIkzZ7n3idFCnJOHjo0thWjIAgjY9uOnSxg8UwjawFGknd0dhpLxx4RscO38SRiQcbyLJpsMTgYPQGLEpLHZSiLMP4REStclqL1G9jriopQVzzw3PgvCKHWllajlCAIjkpy6mIeZINnHInpt+/YZSwZe0TEDt/Gm4g9cqSSj8W8LYFzBCEFSAkmCENFRKwwIN3d3eyZsZzgAA1eTl6+UUoQBEemsbGJvP0CaMr0GeQ2YyYFBoXwd+MBEbHDt/EmYjs7Oyk0IqpXaBqODb16JZtKjVKCMHhExAoDcuLkSc5KYBlKMG3mHKqqqjZKCYLg6Gzdut008EY93wgrQLaC8cBYiVjsS9vp0/VWy4x3G28iFhSsWMXeft2ewOAkQQpHCSkQhoqIWGFA1heX9PHCoqELDg2Xea8FwcnANLR6Ni+MHN+7b+yzFYyFiIVora9v5BnC8HdLSxudO9fS83d/huNDvl1ry8bCxqOIRY5iOEVwTLpN4UlzPL0lpEAYMiJihQGJjU/s89Y8YbIbFaxcZZQQBMFZOHPmDPn6B/JAL7y8BoWEUVvbeWPp2DDaIrap6RynGrvt1tvo7jvvoqeeeIL+/ve/046du6m5udXqOjAI3+pjNbRTlbO2fCxsPIrYjo4OCo+MZmeIebuCFI4SUiAMFRGxQr9gKtn5nj7coOmKBm/QCCXYu7/cKCUIgjNRunlLT07oydNm0PoxTn802iIWHteNG0vpt7/5DaUmp1DhmkJ67S+v0ZVXXkn79h9gkYvpb8+f76CurgvU2dnNXlv8nZmZRc8/9xx1d19kAam/R7mOji5e73LeXFvaeBSxIDsnj50h5iIW91qCut4X1T9BGCwiYoV+wXzXE6ZM7VXRmLISBHOAviAIzkf7+XYKCYtgUYEXWAz4GssJTcZKxN55++1Uc7yWjwEv9L/5zW9p2rRpLFrhqfX09KK/ffyx+m46HVfl4KX98IMP6De//jVNnjSZduzYRQcPHqIAdf0+/uhjmjVzJh09WslC1tp+7WHjVcRu276zJ/5aty1TZ84mDy8fOnX6jFFKEC6PiFihX5Zn5XIOP3MRiy7GpRnLjBKCIDgjhw4foVnz3DlWESPJs3LyaKzG3IyViL391lupQolQeF7bO7rorbfeoScef5yPyd3Dgz5WAjbQ35/uu+9+cps6jT2tn/zrX/SH3/+ePObPp2PVx2n+fHd6//33KTgwkB579FH69F+fsGfW2n7tYeNVxLa2tZGPEvfmvXy6fdmxc/ykdxPGPyJiBavAG+MXGNSrkkFFiAZtz959RilBEJyVtKXpLCoQQgTDgJyxYKxFbKMSseCLL76gu+++m0MFTqvj2LevnNauXUevv/EmPffCiyzyk5NS6P777mNvLQQkvK47duyk4vUb6N1336PnnnuO2ts7re7XHjZeRSxITlvM95e5iEXqxryClUYJQbg8ImIFq+wvP8Cxr+aptdD94+u/gM6eM1XqgiA4LxgpjvR68MZCbCSlpI2JN3asRSyyDbSd76BXX32VXnzxBSViL1BERCQP+Pr0s8/p5j/9iV5TQvaCujZxsYvo3nvuYfHY3NJGixYl0GOPPkIffvgR3Xb7HfT6a6+JJ9Zg6/YdfUQs2pig0HDq6uoySgnCwIiIFayC7AOW8bCocKJVJU0SeC8ILsGyrBya6Datxxt7+MhRY8noMRYitqRkE8fEnjp5mo/h6JFK+tEPfkghIaFUWVlNv/rVr2jhwhheNmPGLHr5lVdZ4McsjKX7772XLlwgqjh0hK644meUlraYy3l5edOLL7xIHeKJZeobGsjTx6/PwOEZs+eNyX0mOCYiYoU+IOF0fGJyn7dk/L16zVqjlCAIzg4G2SBDCbyxk6ZOo8TkVK4fRpOxELGbNm2mX/7iF+Q+352Cg0Po8ccepxeee47DA8r3H1DLfklT1PUoLd1MDz3wAD300MPU2dVNaamL6Y9XX01r162njWobP/7xj2n6tOlUsnETPfvMs/TYY4+xsByN84CNZxF7QSn9iKiFql3pncIReYrXFK4zSgnCwIiIFfpwpr6eE0+bhxLg86y586mmxjRaVxAE12DtuiIlLKaxEJo+C2JodL1koy1iIfwOHKigP7/8Z3r4oYfoESVQZykRX1d7ggVuQ8NZioldRE888SR99OFH5O/nT7NnzOR1jx6tonffe4/+/MqrVFq2lTIzMumF55+n1157g+a7e9DMWbOpsuoYp96y3K89bDyLWJCbv8KqsyRFvQwIwmAQESv0oWzrtj7pTzCgC2/NnZ0SqyQIrsS55mby9vXnbl/kj01MTjOWjA6DFbEnT5pmzMLsWq2t59kg4qyVvZxh4oLm5jZOmwVrbW3vyfFqWtbKsbL4znw2L+wfyyBSrZWznM0Lx4jv7JU7dryLWBzT1Bmze7U18Pp7qfutubnFKCUI/SMiVuiDtbdj01zqklpLEFyRQsMbOxaxsYMVsfX1DewJXabKxycmUXJKGh0+fITFo7XylzOIUG0DLdefrX1v+TfELoSr/j45OYXWFq5jkavL29LGu4jF1OXISQyniW5rcKy4x8YqG4bgWIiIFXpxHonOwyPY82peqcALs3XbDqOUIAiuRHNLC3n5mvJ64gV3NGNjBytiW9vaKS83j6746RV02x130q2330G/v+oqWrp4aS/hCC8ptqM9pxB61kQnllkTl1hmuY42rKNDBSzLsaAs20rZWdn8+Ywq9+wzz9CUSZNZ3Opt8DKL89R/Y9tDCUXgfY5jEQvSFqezk8S8vUGcLF6cBOFyiIgVegFvBuJh0aWjKxUdD3vy5EmjlCAIrgZEBfJ4sjeWRdHoeMqGImIXp6bRXXfeSUerjlFN7Qn67rsJ9Ktf/opn2EJ+VohZhB0gLrUF3f5KpB44eIhaWtt6BCu+g6iE+KyuruH1tBCFVxchAocOH+0JE4AYxmctlI9WVvGx4DuUM8XRmqap/ce/PqH3/vo+Zy+or2/iAWQYKAZhijLYBq4rPusQBdOys2q/bVRbd4JOqn3oZfrc+zNHELEbSzf3CV/DfZaQlGKUEIT+EREr9ALeVkw3qSsTmNuMmRQSHilTzQqCCwNvrKcSkxwbO3U6JacuMZbYl6GIWKSzwmAsCEawoXgD/dd//Afl5eVT9MJY+u7b7+ixRx+jrKwcOnjwMP31rx/Qk089TZ9++ilVVVWziFwQEEj/VGLz1Vf/QnfedTd5e3oZ3tF6Wqi28dKLL9Ld99xL//jnv+j4sVruvYqKjKIpk6fQG2+8SZnLllNcbBwPDMP6n37yKTsHSpVg/d3vfkdXX301TZw0WQnjBvrH3/9OKSmpPDnC8WM19O3X39Cdd99DL6l1S0u3UFtbBwvwDz/4iPz8/Onpp5+mBx96mDYp4Wfuve3PHEHEHq+ppZmzTc4S3ebgHvNfEMTx2IIwECJihV5k5eb3CiWAoatneXaOUUIQBFcF9QC8ZNOU4Jjr7kmnz9h/nvsheWKViMWMWXV1J/m7r5UovO7aa1lE/v0f/6Tf/PrXFBUVTbt27aF7lFgMDQ1TYvIMPfHoozRp4iTe35uvvUY33HAjLV68hKKiF9Jvf/MbJUyzlCA8R76+vrRoUTxlZefS7676PYWGRfA677z9Dl352yspVonX3bv3shBOTV2sxPMK+tONN9KiuEW8nyeffIqeefoZWldUzALzUSVIsQ94ZiGcsTw3N48++vjvdN+99/E68NRe8ZOf0scf/43yC1bQE0p0v/n22+wRHuh6wBxBxOIlICAohIWrbnNwvPDOYvpjQRgIEbFCD51dXZyBYMq03kH28Mxu3rLVKCUIgquCWbwgXjlvrBKz2eql194MRcTmKpH9wx/8gK677jq64/bb6bZbb6PsnFzezj//+S/68vPP+TMGf/3H//2/5OPjQ2mpqfT8M8/yjFotrefprTfeIG+1P82br79Of/v7P3iKl9raE5SUmExfffU1/fznP+esDQAi9rPPTNuGN/d4TR17WCdPceNyCwKDeNmHSoh+9vkXPDFCU9M5eurxJyg+PoFDA77//e8rkWqacvXw4aP0kx//mPLyC+jokaN06823sEcWzPfwpMeV2MW1uFx8rCOIWJCesZwn1dDtDgztzvriDUYJQbCOiFihB8ygwql0Zl56I0ZjhRjZEydPGaUEQXBllqRn8uCuqTNmkl9AELW0tBpL7MNQRGz60nS69ZZbqKBgBRWuWUuHD5myE3R3X6RP/vUJffXFF7zNyOgY+s///E96/9136aMPPmBbsCBYlYWIfV2JWB/2jiIs4f333qNX/vI6HThwkJ584gn65JNPKW3xErpViWQvHz/e3nvvvkdffvElC12Mqn/q6aeVYP6Slmdl0+2qXGDAAlO59z/gMIQ2daxaxCYkJNKxYzX0f/7P/6Hi4hIOLaiqOsYTJfgHBvNsYXfcdivt2bOPz2O6qp+ffvY5FrDOImKLSzbyS1EvETt1BsXFJxolBME6ImKFHvaXl3OXDio8XZGgSyeY57LuNkoJguDKlCsxN3W6qZ6AmC3ZtNlYYh+GFBObmkYPPfggC0F4RCHisAzi719KPH7x2WcsNLdu3c6zbpWVbeF9dHR0czmIyzdee41mKIEOIGQffvAhJXCDlBANpB//5CfUeNYUp/noY4+Tp4/JY/vuO+/S54aX19cvgK644go+BvCgOh6sC958+x36XIldgIFfT6ptxMUtonPnmunqP/yBvH1N28NkC1f89Ke0enUhC/HblDBHCATOY5o6tqeeedapROyBgxXc3pjHxaLt8QsMomaJixUGQESs0MPqNYV9unQQH5u6eKlRQhAEVwfThS6MXcQCFhatPnd32+8ld7AiFgI0JTmF7r7rLh7db54CC2L07x//jT755z9ZXEJAfv3V1xxyMG3aNPrzn1+lkOAQ3t+H739AV115JU11m0rv//V9uvnmW7hLf0XBSvr97/9As2fNJk8PD7rummt6BOlbb73Ng8PA8mVZ9Iuf/5xmKrHp4e5Bv/rlL+nrb77lZQgvuPlPN1O8Eq4YKPbYw49QZFQ0L4P4xaAvHM8jDz9M7779NovbvXv20Y3XX087d+7m83CbOo0ee+JJpxKxZ+obyN0iKw4+z5nvSceO1xilBKEvImKFHlLSlvQZ1IUuniKJSxIEwYzNZVs4ZhFCY/Y8d7sKjcGK2Mamc7Rl63aKjYnlcuYiFiP5s9V2spShG1+LXHTzI1zAXYnNiorDHD7wLgTpJ5+S53x3HuyFjC3w6mKdpUvS6V9//4cSvKGUnZ1LiQmJalkbZefk0cqVq5U4Psf7QhgBMg/4eHlTfl4+LVu2nAdi7S8/wNucPnUqh2ghlKDUyDTQpIR1cnIqvffOO+Th4cnni3WOHKmkiIhIqqys4nLwzmKSBGQ3MD9Ha+YoIvbCxYsUrsS8+aQH3P6ol6TtO3YZpQShLyJiBQbps6yNEMUgr4MVh4xSgiAIRG1t5ynQqC/wopuxLMtYYnsGK2IxOApC09oMXaZcri3sgcVnGLyY8N4iDyz+h+CDWH3phRdY1AKIWr0OBCO2je90vthzyrAM4lKXw/6Q07VXObUcy3B859X+MIDMVK5VfXe21/bb27v4eHB8+nscF/7H3xDhWM/8/PozRxGxYMWqNX3iYvG3HuwmCNYQESswtbV1NGe+B6fO0RUIGijfgAWq0jxrlBIEQTCRnZvH6ffcVD3h7RfAeWTtwWBF7EgNIvGsEpuzZ89hTyeEpLVyjmSOJGJ37d7L4SnmIhae2bCIKPbUCoI1RMQKzO49+zioHpWdrkBQoSyMjeN0MIIgCOYcPVql6oy5HFIAsbFtu32mpR4tEasNYhZmbZmjmSOJ2JraOprr7tUrLnaq+uzl60/nz583SglCb0TECgwP6ppyaf5qGOJjc/IKjBKCIAiXwGCusMhomqIELF544xOT1Auv7d94R1vEWsbTOrI5kohtaW2lgAXBveJiTYO7PKiq+phRShB6IyJW4IYnKSWtV1cOKj2I2NIymeRAEATrbCjZxINv0Isze647nTh50lhiO0ZbxDqTOZKIBfFJyX3aIbfps2jb9p1GCUHojYhYgdrbOyg4LKLPoC40TMeOHTdKCYJzAU9iR0cHD2rE1JdNTU3UqAxz6O/fX07l5Qc4f+WOnbto3foNtH5DiVUrUss2lZZx/lSsgxHoBysqlOCqVyKikZqbW3gfHR3K1P/OBM7R3cunZ4DX2nXrjSW2Q0Ts8M3RROzK1YV9MuRMmOzGM5cJgjVExAp06vQZ7rIxTzSNRsl/QQg3wILgiHR1dVF9fb1qvI/yoBGk6lm5ajUtzcikpJRUznUaHrmQIqNjKSQskmemm+fhxdOqasNz4eXjz8uDQyOsm1qGzB4oa76u3pavfyDvIzxqIUVEx3CvB9LZ5eWvoDWFa5VI3s3Ct67uBLW1tTncIJaE5FQWHvCgxcTF8/TVtkRE7PDN0URs2ZatHE6A49VtEe6tRQlJnJ9YECwREStwI4rYI/OKAzkgo2JiqbPTtg2SINialpYWqlUCcO++fbRqTSFlLM9SAjWeR8xDSEIAYfpO2ILgUAqNiOQRz5jEIysnj0VSrhKUG0tLqWRTKW1UtmlzGXtXN5Vupi1btykRvId27tpt3dSy7Tt2clnTOqb1sC38X7i2iPexLCuHsrLzWMBi/+j98FEC18d/Af+PY/X08aOQ8EhKTE7jdZCP9WhllRLjDezNHY9AeEDA8sBQVXecOGHbkAIRscM3RxOx6AWBA8W8LcLfeEmUwV2CNUTECjxvteXbL7oGk1MXS2YCYVyBxPKIu9y6bTsPOgyPjGYBiFRwPn6B5OXrx98lpy6h7Lx8HrBYvKGEk+Bv3b6jp8ufu/33l9M+M9u7b79V27N3H+3es3dA27N3r9V1tZnvpydUQR3LLrUujq1UieY1a9fSytVrKHVJOiUroRuqhK6Htw+f24KQMJ6CE17clavWUEXFITp95oxxVcYW02xLppACzHdfaOOQAi1iMdgKokzPVCV2eWs+18KTNTiKiG1oaFQvcv69MhTg5WjW3PlKlJ82SgnCJUTECpSdm8+DM3SlgQoPXTjr1hcbJQRhbOjuvsAzGxWuK+IuxaDQcPJWYhXd9EGhESzqlmfnciwmehS0GO0RjEos4m8IURg8quPJTAJ4H+1Vpo/5kikBrL7fWLqZzw9hENExi9iDi0YdYQ5RC2MpS50/xHnbGHmq0M2bmJzC3thJbqaQAlsCEYtQj8NHKqmq6hh7ph3KjlZRZWV1L8N3Vsva2I4fr6X1xSUsBB1BxGJ8BkJ83MziYtEeQdTiORYES0TEujh6HnRzEYsKD7Z7zx6jlCCMHl1d3TyN6YqVq5VIi2Mvn29AEEVGx3CXPEbE79y1i72YEKkQcPtUAwdBaE0oOrJpkQtBi/NEQ46czghxwAxH8YnJtCAknEUeulzTlqRz935LS6txNUcHhD3gxRfeWPxep06dMpaMHPzmGNwza547T3HriIaXLgyAg+GztTL2MtTlU2fMdggRC9KWLO2V7hEiFj2FeO4FwRIRsS4OumdDwiJ65eZDpYf/K6uqjFKCYH/gcV1fvIG70REfClGG+FHEqCJDAASrybN6qXvfmvBzZtPnbRK25Sxs8TdELeJ6g8MjaJ67FyeIz1yWxaIX3mx7U9/QwEIadQcEyGYbpuY7crSSM0DAozgWVqzEU/GGjVaXDcY2bNzEA/oQooWcuoh5Xj+C7Q3HSjZupnPnmo0rOr4pWLmKPfq6PYJNVNcOLzOCYImIWBfn9OkzHG9mHoOEz95+/pKZQBgVMBAoPXM5zZrrroSQDy3NWKYa3g0swHrCAVxQsA7WzEUt4mwxkCd/xUoOO5jj7kmRUTG0ectW7qq1F4idh1cYIQXwyCL0QbhEXsEK+m7SFL42MoHMwCCTiOVAY7wAJCSlGCUE4RIiYl0cxE3BO2BeYcArGxUTx3k0BcFeYGBSxrIs7l6NiI7lxh1psDDoCYIM4SzWRJvYwAZPNcQ/hO3GTZtp8dIMflENDY+k3eo7e5FfsJK9sG4zZnFmCGd4CUYduCwrm89tJPVhdm4eh0RAxCKG29VoaGzkjB+lm7dQaVn/hpetgpWrOebbvE1CmEpgcOhl1+9tWzkEobKq2jgKwRkREeviQDSgYtWVBQx/w6siefkEe4HUVBwf6OGlBMIKU9YAZeJxtZ3BQwsvNq4rwjFiFiVwbCReHM6ePWf8ErbjyJFKrj/gRcMsS9i/I1Pf0EhxCYksPicocR6rrh8mdxgOri5iMekHwk0QJgBBOpDpcDZrhvvX2jrWDM4YhCHIbF/OjYhYF2dJemYfEQtvCipdQbA1iM9EblZ4/1OXLGUxC6+hNREmZjuDV3aPErTI8jDPw5t8/RdwHlFbggF5SAUGATFh8lRasXKVscTxwAQwiF3VA4zgFUSXNtK54cVgqLi6iAW5+QV8X+BaXs7M2yNzs1a2P4OIxe91TsLinBoRsS4McvJ5ePn0ioeFobK25cAMQdAgXhNxk/AG6i5va6JLzPYGzyhy1CJfLrpmkX+2sbHJ+GVsAwQaD2CaNpMWxsU7ZG8Ophr29PbrGewK4Yl7VgsjiPTVa9YOacCciFjijCOY1c6yvbGXmeqZ5cbeBWdFRKwLs7Zofa9UJjB05WDWnf3lFUapkYM545HQfdPmLWwc1yQ2JNtYWsaNgCPT2NTEsZlL0zNZwEJUWRNbYvY1XPttO3ZyBggMALMlSLUFEQuhgu3bWiTbm127diuh5cliE6IV55KcspiWLc9mAYvzQh0JgRS7KJE9toNBRKyJ2PgEvnbmbY49TL9wlB84YOxZcFZExLooEJZIZaS9DdpQSeNt2ZbB8E1NZ3nbpkZgjtiQbTY3gHkFthUcow1S/WBWLT2a3prAEhsdg5BFWAdSP6EusBW1dXUcrgBvJcQeBug5CkijhWPWxw6xlbk8q2e6X4RiYMAR6rEZs01hV77+gRxzfDlExJrYxmMwerc59jBc5+DQcDrf3m7sWXBWRMS6KDt37enxNpg//BBMmOryTL3t4uW0iEWjCXFcUXFYbJB2+PBR2n+ggr1ajp6aJy9/Bc84tWevc05M4EiGlwhMdYv76tRp203n2dnZRUEhYSz0Jk6ZxrlrxzsY5AaxisFoqP/0oKBVqwuNEpfArGE4PwhY9vapshC7l0vELyLWBCbhQCiLpfPE1gYPOtobwfkREeuiYGYfPOiWD7/uhkHcnK3QInbN2iJVibVRQ0OT2CCtqemcEhn15Onj5/AitmDFKgoNjxIROw4MHtKi9cXsWTx50nazawHEO0OsYRZAjO4f73GxR45WsYBFvQcBCy/rhg0beVm3OnZMEgDT0/oiLAbTHaMsBOz0WXPp4MGBw69ExF4CE1dYc6DYyrBd0wxlR409Cs6MiFgXBHFcmBoSXgdrlQA8KMhaYCu0iF21Zq1JlJ06IzZIO3OmgWrrTnIsqaOLWHi2cM+tU41YeflBq+JKzP4GLyxG2MfExfPvgQlPbMk29QIMAYttI61SQ0ODsWT8UrZ1K6djwkBXDOzSHKw4pF4g/XmUe3Lqkp7QggsXL3L4AcJ91hUV83cDISL2EvD8z57vwSEblm2PLQzXOCwimrq6uow9Cs6MiFgXBHOuo8K2VgHAdOPTqMSnLRARO3xzJhG7unAdIU8kEuGj+1VSa42+IQ8vYjhN3eemSU4w6YQtqamt4zn7UY9gH44SF4vMGdXHjhl/mUCPwdffTeLwgeDQyD6znuFcByOWRMRe4qJ6AYAn214DvLDdouINxt4EZ0dErIuBmCT/oBBuXKxVADA0bKhsN5ZuNtYaGSJih2/OJGJXqpenBSHhPK+/uzqf9RtKWFBJaMHoGMTkLnWt45NS+HmMjI7l2dJOnbJdTCw4f/4851hFHYJBPGvXrTeWOB7wWqNnCvVleOTCYU/dKyK2N3ju8ZJja28stjfPw5NO2zDOWxjfiIh1MTCgy1osrKWhOxDpUIaSC7E/RMQO35xJxK5YuZrCo2JoWVYuefkFsLc/OXUxi1ikwhExax/Ts3YVl2yigAXBLB4WJSZTxrJs9pjaWsSiq31RYhLXM/CKIf7eURERax86OjvVi07EgM6U4Riub1x8orEXwRUQEetCoBsHjQsedGsVgLnhjRb5Em3RwImIHb45m4jFwK7s3AK26Nh49vpjlieEuOzabUrGD9ElgnZkZnoxOEjl5Qd4zvr4xBSaq55neMGR9xTXf/HSTLuIWLBy1WqazJ5YU6qjdgdNdSQi1n4gpngwDpWhGMLkNtmoB1FwDETEuhCI98Jo5MF24cCLgopmpIiIHb45o4jNysmnzOU5qjHPoyXpy5TIieDcxAFBIRwrh9RPELKImd23f79VkSbW1yBcETKA64YeF9wv8ErN9/RR4jWAEpJS+drD4A23p4iF+IPHFyP4ce/aYx+jgYhY+9HQ2MRZV3CPWLY9wzHcb+5ePoSZKAXXQUSsC5GdoypSixm6BjJUuEiGPtKQAhGxwzdnFrEwiCl4BVnMhkVwo4bcpQtCQtWyHCou2ahEWTmLM5h4aS8ZBBZEvhauO3bu5pHyCNFA2ACuIwbRQbwuV8++5XW3p4g9cfIke9nxwgwBaD7i35EQEWtfkAUHoWuWbc9wDNtJXbzE2LLgKoiIdREgJDFbEt5WrVUA1gyNEMofOVJpbGV4iIgdvjm7iDUXVfge3tnE5DQKi4xm76y7ly8nl0dc5ao1hbS5bCsLC3SVa1GLEffOLGxxbjCct/ZQw7Zt30nFG0ooS12zqJhY8vYN4NR5iDUOj1pI6ZlZ/IKAa2rtettTxLa0tpK/EtLwskFcrClcZyxxLETE2peKQ4dVGzOH2xrL9mcohvVxr+1Tz4XgWoiIdRE2lAwv/gjrjHTmExGxwzdXEbHmhuXmghbroJtw9lx3jukMDgun1LQlVKC2h1Q68EDu3rOPhd0lcbuvR/xZE4bj0ayJ1QPqfPA3wgO2btvO4T2Yxz8yOob8AoPY2wqxHxgcRhFRMZSUspivG64fhKq16wuzt4jt7u6m2EWmefIh3CCoHRERsfals6uL8xWPNN0WritmAmtrM01IIbgOImJdAAzo0g2KtQpgIEPlDY8KppMcLiJih2/OJmKRhDwnb4VVYWXNIMjgTcRIegihGHUfBwaFkrdfIAswCDjcnxHRsZSUnKrKLeeUThs3be4RsBCEWhQiCwL+h9CFQGHBqMzeYtckTE37g+kQAJg+Pi1ityixur64hHLzC9gDHR27iEdyQ8ibvNM+FKCuQWhEFAtRXBd9nax5Xa0ZRC7Ws5eIBTh+5FeFwFiUkGx861jgtxIRa1+279jF13ck3li0bZnq5U5wPUTEugCY7xsP+vRhVBKIaZumDI3tcBERO3xzJhGLGbtwH6QuTu8RXAN5C80N5WBYByIYn7GdtCUZFBUTx7Gf8NIipnauuxfN8/Dmv+GtjE9M5rjQZVnZlL9iJRu6t5HcHuEJpWVbWKxocWtrw3bhRS3dvIX3B1u9ppCn4YXQQwwrBrSFhkfyMeO31mIV54NzQwYHzBgFW5qxnHJyV/R4Wwd7DXHtYFgvOW0J54nFQE/MoGQPEO6A6T8h3HzUOSBHtaMhItb+NDe3kKe654c7wEvHXss0s66JiFgXAN6pSW6DH9BlaRPVupgPfbiIiB2+OZOIxYxdaKjg/UOIQEraUspYnn3Zrm9rtmy5SdCaCzMYPiMEAZ6/2EWJtDAunoUgBCHiRZHcHwIXn/E9zMPbjwKDQigoNJwHl0FMhqj/I6Ni+L6Hhwf/X84wEA2CGeEOvA1liOcNCg1jIYrfEOYbsIDFKkIBcDw4NsSx4prExSex4fghViH2zc8NNthrpQVuVrZpXRb8C02CH7/BXLV/iFhbTzurgQCcPmsuC0B3dX4nTpw0ljgOImJHh5zcfNVGDS+kAL8NnrGODtOUwIJrISLWyTlzpp7mq8ZqKAO6LA3rYu7ws2eHNw3tWIvY06frrX7vCOZs4QQhSqhBoOF8IKQg4CA2IbrgXYTYshRjQzVsQws/mBZz2pZn5XE3fOTCWPbiwjCQLDQimsMdYBAsELQQmfCK4v/LGc7HNyCIB1Xp7WCbML0veD9x/jgOHGuv47Jy3JbnNhjDehC/+IyQAYh6LVwhnCGW4ZlGRgicm73CCbBd7E972A5WHDaWOA4iYkeH4zU1NHOuqa0xb3sGYwhZQY+G4JqIiHVybJFQWo/8RDL64TBYEXvy5Gk619xKnZ3d6q26m86f76DGxrNWyw7WIGCxDUcVsk43sEsJutz8lSyw4BnEYAwM2ILIgviDd1aLOVsI2v4MQs9cMEL0WRq+hwiERxT/X85QTgtIa9vi/eQMPm51KGZ+zXBdIZrx4gnhintnQXAYC1fEFuvztefALtDR0cG/K+oOCA2EbTgaImJHB4zbiE9MGvK4DYQRoH2qrKo2tiS4GiJinRgMxsLgD1TA1iqAoRjS5Ax3+sjBitj6+kYq2VBC0dExFBoaTikpqXT0aBW1tLRZLX85O3u2mbZs2UrffvMtHT9ey9u3Vm60DWIdx4Lzupy4djoRG27KTmDueYRHEF3o6FLXogteS8R/amEGG65nciSGfQ7FrG3D1ob96GuCUAFcI2QlwDVDmIKOp4VwxfccQ5tn8nLrY8T/9haxFy5cpJi4BBZuELErVq02ljgOImJHD2TgmDJtaAO8puB3US+/Fy6MfHp0wTEREevE7Nu3n70gIxn1qQ3dPOgahKgaKoMRsRBzbW3t9O7bb9Fvf/Mbev3VV+mRhx6iW265lYrWb6Bz51p6ysGziu2Yi9KGhiY+NizTnleIxDVrCun3V11Fhw4d6fler4/yEJT4H+vrbem/UVZvF+V1GfN96HUst6u/09sxXwf/7969l3x9fKmq6hj/rbdjadiWM4pYc1HGYgzCdnmuKaWWevGCCIPAgijTHlqU1SEHoykax9L0ecIgWHH++B7XA55VZGbgeFsvX34+EderPa7a62vtOuE7e4vYixeJRTSEG16Cl6Rn8HeOhIjY0aO5pYV8/RcMyemC+6pkY6mxBcEVERHrxKSkLRlxKIG5oatn/TCmoR2siG1tPU9vvPYaeXp48noQd68oMXv9DTfSCSU2IQjPnW2hA+UHafv2nbwetnfixCmqVmIQonbfvnKqqDjMXliI4rVr19GNN9xAhw8f5bLNza10SC2HiMT2zp49R9XVx6lKmT4ObA8e4JqaOjaU27VrDx07dlw1Yp104EAFHVSmhTWEJraLfe/csYvLN6p91RyvVevUcLn9+w+wkMYx4DwXRkXR9dddRztUeZTTwtfSXEHEmgsr7XnFZ4gxxJXCQwvvIho4hB8ghpa78JeZkvnr7nrehhLCltt1NMP5Q4DivHAddDgDvJo4fwh7iE9cE7+AIB6sBUGK9WD8QmBFuJrbaIhYkJtvGrAD8Ra7KIkudDuWihURO7qgjhhsSMHUmbP4ZRfjPgTXRUSsk1JTU8uNHGKGrFUAwzFULshZOVSGImLffP11mj/fnbq7idrOd1Dpps30ox/9iHIh4FT7l5aaRk899TQ99NBD9M6bb7HgPKFE3ovPv0Cvq3Ufffhhuv2222jOvPl0XgnOoqL1LGIx6xhEbYB/AN15++0sIN9951213zOcPP7JJ59SwrWSuroucDjDq395jTZv2UYvvfwy/eMf/6S77riD9zlnzhx6/NFH6ZY//UkdSyp7e88qkerj7UMPPPAgPamO7YvPP+fz2bFjJz2Nv7/4kp575hm69pprKSNzOa/z9ltv03/+x3/QM2r5KlVxQwRbuy7OJmIhSvsTsZaGcjCON1XXDWINnkfc1zBcEwzIQpJ/88FSWshps9zueDFrx4nvOKY1OpYNKcIwaExnMghYYMqiwKm21DXBOWuxa7n9gQzlEcZhbxG7uWwLizeIwJCwyBHlmx4LRMSOLrW1J2i2erYHM8AL1zIuQb0YSSiBSyMi1kkpWLmK49CsPfzDNVQsc+Z7KlF1wtjL4BiqiJ2nBGhX10UWh3v37KVf/fznFBkeQTt37qbrrrue54dvamqmh5RonKqENTy2N15/Pf3rn/+iSiVEE1TF9t//8z+cn3OTEsEQsXVKCG7YUEK//e1vKTNzGVUcrKCHHnyIvvnmW6qsrKY//P73tKZwrRLPF+j1116nf/7jH3S08pgqfyXNUm/8VUer6P5776MnHnucDh44SJMmTqLHHn2Mu0ezlSDA+oi/rW9ootvvuJPmzJ5Nx1WF/Mtf/Zo+/PAjOlZdTdOmTacnH3+CB65FRkbR3XfdxR5dCHGcv7Xr4kwidqUSsRBhEF0Qa4MVXigH02IPIg/d6Qg7gFcS3ekQtfDY6lhQNG6Is0V4gvm6MOzbmg32eAYya9vVZn4M8LQizy2n1FLHCsGK3xjHrwU6zss/MJg90jonLq9rdv2Geswoj3WxDXT147m0p4g9dPiI2sd8DmuCCD977pyxxDEYjog9cbJvKrGsnFz6duJk7hlDKjahf5akZw7KG4syW7fvMNYSXBURsU4IRgUjz+VQYosGaxDGa4vWG3saHCMVsb/82c8oLjaOxen/87/+F3395Zc0acIE9qa+/NLLdEatf48ShCUlm3h/p06eoeuuvYaiY2JZWN50440c+zpdNaQ3/+lPnPUAhISE0g1K/CJE4PXX36Dvvp3AXt2r//AHys3JowMHD9FNt9xChWtN5/vCs89RTEwcf/b18aMnnniSP3/77bf04x/9iL756mtymzSJfvXLX9LHH31Ex2vq6OZbb2MPJEhOTqHHHnqYRezitMVKBD/K3uH+QglgziRikScW9w/EJwSZFpfWxNZA1iMKjUFNsKTUxSwI0eUOYQtBC+8leiK00EV+1oCgEBa2euIAiGEIRBi2DXE3XMMx4bz09rBtvQ94iiFIcQw4FmQOMBfeMHipUW5RYnJPFgGYPl+Y5bUYjJkLV2wXxxMcGsHPJOLlT5+xT55YgFHjs+d5sIiF17fKwUaRD1XEFpds5Jf9TaVlxjcmcvIQVjGNr0O2+k3NwUQYyDOMEfoCUcWhw3wNkWPYvO0xN1xHPNdoWwTXRkSsE2KLafz6M2wXcY0QyoNlOOEE6CFq7+iijUqY/uLnP6e9+8opIT6BfviDH3JIALrvFwQuoOLiEo5bhYhdv36DOq4uOq22d9utt/IsQVrEwtv55Vff0A033EAtaj8XVHsRvTCGfvGLX1B390WKUsLqkYcf4alLb73lVjqjjgfz8d90882UX7CSupTwfO7pZyhMvRwATyWQnnryKf7sNsWNrrjiCvJWx4TBWoEBgbRt6zbaX36Q/qRE8HLD8xIXt4ieePQxFrEpStA+8vDDHLvbnxcW5lSe2NWFLOAw+xSS7EPIQVBqgTVUr6K5YRta9GE7MIQhLIyN5zCEiOgYnnyAhaOHSeBqEYn/IXb1sSHuFGJ3sIby8P4i1AH3OZ47HQKAbeN/GPYLIYRjgecVghvHro/X8hwsz3Gopq8rPqcsXsrn7+ntx9ceIQkYMGfvcAKIWPTeQHTAIwuB4kgMRcRu276Dy6GbG//nqGvfhbgoxekz9Xzu8EzrGE4k58dEGlOVYPtushs7B6Rr3OSEwfOEa2je9pjbRPVCkKruaUEQEetk4G0+QQkkWw7oMjc09mgEq6qPGXu8PEMRschKAE8swGCr555/kV568SX2zK5dW8ThADt37ObldUqY6sFXtyvRGoN4XSVOt27dTjdcdx1t27adRTA8tgg5WL4si370wx+q9Xfy+h+8/wE9pIQkvKEHDx6iO26/nX6ntj9hwkQW0XgZuF4J4Lz8FSxin3niSU79BdyVOHn8scc5nABe1auvvpo9t0CLUuTVveGmmzjmFsTGxvV4YhMTEunBBx5gLzAGgsFTbHlNYM4WE4v4VeSJRVc2BiVB8GHAFtJDYaBRj4izwQAtCEG9PYg5/K/zucIQE4r/0V2PeE1MbgBxBwsMGryQDQoxrQPvJrzMeMnjmFWzfcCwbxyHPhY+TxuIVXPDNiFeYbjGEF7IXACx6uXjz8cGLzGOAV5Ze4tYCDZ4zCBIMAXt1m2O1f07FBGL+F94ECHYUU+i1yE9c7mq19qMEpeoqztBMYviacLkqVwWXeNuar1jx2uMEq7N+uKN/DJgzRGD77Bsx85dRmnBlRER62ScUmII3iVUppYPv60MAnnFqjXGHi/PUETsP//xT+6av+/ee+muu+6iF5WAhRcWHksIUcSVXvPHP9LLL76oytxHyF3bqETg3XfeSXfccSdnN7j3nntoyhQ3JXy7qaxsKwvfNCU0W1va6L1336OblbB88bnneLAWQhDOnWvlwVYfvP8+/du//Rvl5eZzbCzyFt6qhO1Kda4QsS8893yPiIXHFYPJ2to6OOzhn//6hG695Rb680sv0RNPPEFrlOA+fKSSblPHhCkVAUTsU0oII5wB3Y2I1X33nff4GHB+1q6Ls4lYnZ1Aex0htCAYcc9ixh4sj09K6RGgKGdLoYdtWZr2WGJ/2rTYHJTlWKxrltrK0qwd00gM+9HXEtvnjA6R0RyeAIGKaXUhrM3DJfSxjUZ2AmT/QAiFFrFb1AumIzHUcIJde/b2iCz8P1n9H65+j4bGJqMEXo53sqcey7iMErDeSuhvVnXVUHq4nJmGhsZ+2zG8JKAXp7W11SgtuDIiYp2M3PwVdvPCaoPHwD8wSImxdmOvAzMYEQtDiix4P5OViImPT+CBQDyLlxJ4eoKAJvUZ3fMR4ZG0WonLkyfP8EQG9959NyUnp1JGeiZlZ2Vzee3hzM3L51Rbzc2mlFjpS9MpLCyctqkGFcIZZRBSEBsXTzfceCN7eLEuxGNRUTHncsXfyEeI3Ls4h/37y6lscxmLTCxDCrAstV9sF8eNY0UIQ9H6Yh44hnXKyw/QhpKNPesUFq7lAV67lVjuL1ess4pYcxEGYQUvJeJB0Z2PewXnC+8mRC68mEjWr4WaPcSgI5g+d33NcD0Qg4uUY2jUEQ7h7unDjT9CFnDttMDVwtV8W6MhYjHhQUh4BAu1qTPm0Lbtpl4QR2E4A7uQCQXxz6iHIVI5DlzVV0jNt2p1IQszbA8eWKQfC1PPxMmTp4y1BQ3uX2ttGb5DOycIQESsE4Fk0WjMTPFnvR98WxoqZrfps2jv3v3GngdmsCIWYhIeSXSxw+AdNZ/QAAaPLbr/EfuK5dheVeUxuuG6azncALS2mgZLYXu6PHK14m9sD6m7MK0tPKh6n2hcH374EQoMXMCeUr0v7ENvq1mVh9jEZ/yvt6m3i/1iu1jHfP36etP6EK5IpYXPWI5lOA98r7+zNGcXseaiCt/DMPAIIgxeRO4G9/XnGDl8B0GL8lrEWW7H2UwL1uU5eSz0EQKAOGKO3Q0K7Ym7RVxudMwiXq6F7kDXZ7RELIhcGMMiFrZGvUw6EsMRseDU6TMUqe7XCUaGGNTJut6EeNWe6byClaoeEI+iNRBDjGuH66XbHrwAzJrrznm8BQGIiHUiNpVu5hlM9ANvT8PbcNqSpYMaUTtYETscg8iDJ9bby4v27NnXr0dzIIOILVTHFhIUwtuDWSs3FuYqItbctHCDINMeWgya0oINsbQ8MGqRMTBquRJtWZcGRWF9y22Od9OiUx+/FqIQ9JELYzleVw8Wg7iHaMVALQhRCHt9zbCete1b2miKWKSUQvf6d5OmqPNzrBypwxWx4Fxzs3rhSGUhCyEGEavDB+AxL9uy1SgpWAPhAog5x7XX7Q5E7DwPT44pFgQgItZJwKjW6Jg4biz0A29PQ2UCDxli3i6HPUUsDB7P8+c72Rvan0dzIMM6EL+XS3c1FuZsIhZppCC2rAkrS4PQ0mIO62CQFEQdBoF5+waYus+9fAij/tHYcXoqZehiR3lzUWhugxV6tjR9Huamjw/GabgSTccPsYTfGwbRjv9xrphoBOVwHfT56WtkbZ8DGdaB+B0NEZuVk8f1EsTc8mzHypE6EhELEJePvKfwxGIbGMiFetpaLlmhN83qJcCaiMXLHCbzEQQgItZJQGJ/PSpWv/FfznTFYGnWyloa9gOPAiYguBz2FrHObM4mYgODw1hAaQFmTWD1ZyhvLgDxHUQfYkKR4QCCFp5KNHIIq4Ghyx2xdRB/SDOFAU7mWQK0GLQUhcMx8+3oz9ogPHXuWBwHBCtm49LHiecDghLngN8aWRwwCUJ8YgplZvXOOoB9WV6bwRg81lhXHyMGgSHTiL1FLGaogohFL1FCUopD5UMdqYgFON+i4g00d74nZS7LovNt540lwkCIiBUGg4hYJwCVJLr2MSMMcg4i1mogQ0UA0xWDuU1T4hTLrK1naZhGEQnmL3QPnNtQROzwzZlELCY7gJDBwCOEAkBUQUwNW5QZwlFvA4YQhIVx8ZwDFUIQAhGNns7XCtGG/XMareBQTo+Frnp0zaPbHt7J4RiEMfK+IlwChnRbOucs9oH9Q6TiWPTxYPYyHCPEEfYNkauvhflEDrZIN6avEY5VT2eLl1E8l/ac7ABoEYuX3lj1uztSLtTyAwdVPWcSsbhuSOE3XCDKhMEjIlYYDCJinQA0Cnv37aeyLds4D+PlbPv2XZSxPLtXwDwMntzY+EQe5GRtPUvD/pALtdtI6N0fImKHb84kYjEy293Ll0XjnHke7HWE4ITI0l5GS/E1VNPCVntA8R28oDpfK7y2EJUQl4izRSOJzxCYEHUQuNq02BzIzMtDIKORhVjGQDSIVGwbYhaiGZ5PHIM+HhyrPk6YPn8tZEdi2Baug/bcwqOLkAQcM44P1wDXHt7B0fLEQsTGqfplqCK2vqGBR/wfrawaVcNEDYVri9Rxz+C6EffLgYMV/L218gMZ1kHsPjKdWFtuTztytJLzejvaRAotLS38/FgTsccln65gICLWRSk/UNETeqArCDQ0heuGNqXsYBARO3xztnACeB3zClbxoCIIu9lz3VlUQfBhggD2PmYb4stGEx6YG7aLPK5sZgISx8Nd/WaG40EoQr+WaoQpaFts+h9CtWfbRg5Za7ljrR3vSAzb5/NT+8VxQLjCw4zri8FgSPuEzAY4PqQsw/+jERM7UhGLdEoY1Q8hOZoGwQQBheM2hUOYPLKmnijr64w3QzpE/O/p4+9weVUbG5s4xzCO31zE4l4+e1ammxVMiIh1UTClqqWIRWWNyQNsjYjY4ZuziVidnUCLLZ3nFIMEZ82Zz95CdNviewg9lLGX6DM3LQBtYfY+Vpi+JtgfrhH+xzXDNLsIoZg93529rvBkIeRHxwHr44ONVnaCkYpYTM2Kc0GeZmRg2bhp9AyTkpRu3tJj1sqMZ8NkLwnqZQa/c4uDidjjNbX8AgbhqtsoCFpfdX93dXUZpQRXR0Ssi2JNxCJecWHcIqOE7RARO3xzVhGrxRhElRa1GOykPYcQLRBjiBldnJ7JZSHCUHY0ROJ4NJw3e3XVdcDfEKaY3QyhAejqxjVDVyvicSFcUYZFbk7f1FuOJmJxL6DuQK5mpMQTG5y1t7XTqtVr+d5wNBFbU1vHYTrWRGxnZ6dRSnB1RMS6KIhltSZiY+MTjBK2Q0Ts8M3ZRay54XsYJ/RPSWNxhkYM8bPaQ9uTG1aJMC2AnVHUasEK095TXBcMHsN1gOcawgQiFAIPqct03K9eb6DrgmWOJGLx+yMV3pnT9X2eEbH+ranxLOUXrBIRKzgtImJdlPLyg1wpTLcQsTGL4o0StkNE7PDNlUSsNggs9iDmFtDSzOWUnLaEByEhFg6NMTy1uB4Qc4j7hBjTXlqsp80WMbX2Nn2u2nAO2tOKgWAweKPN04dBwELgIy4Xsa9YD+tgWwMJV3MTEesa5mwiFvcRehkcKU2bYF9ExLooSFGCBhEptXQFgUELGGxj6zyGImKHb844sCs3f2UfUdWfmYs8dIunLknnDBrYDho43MPz3L14AAgMMaEoo9NVQdxpwza00DM3a/u1hVnblxacemAZvKs4VhhEKfLa4jzwe0Ng4n8IWKQMQ+wwT+RgDBLTZm3fAxmOA2I5IzNbRKyTmyOL2Nq6E3zvW4pYDLgUBI2IWBfl2LHjVkUsBoIgtYktERE7fHMmEYsUW/M9fdh7qqeJtSayBjIWgYaIw98QgdExiygsMppfwFjUeniZutkDAjk+FF7LkLBIbvwQR4oud/wPw/ra+6kNfw/HzLeB49P7MN8nzh3HhDRj+N/LxxQWgOOGITQAAh3nAy8rBCfOU+eNHY5o1cbXTh0bPkM0IyMEnsvTp0cvT6yI2NE1Rxaxhw4f4XA3yww6eNkTBI2IWBfl5MlTppGfZiKW440CFlBjY6NRyjaIiB2+OZOIxWQHEDJolCDeWMwqYTVccaa9m1pA4n+IRRhiajlXa1AIG6aphbDV3tseL656BvRkAwhPgEEU91jsIo7DhRcU/+vP8Pj2KqdMrx+1MI5Fs94P9gERgc+I78Uzpo8LQhaCUueOxXmZC2F9nubnPRTT6cpgEPE4PhwHDLOcIbetiFjnNUcWsbv37OUJdXT7BMN9hDRxgqAREeuidHR0cGydZQ6+eR7eVFtbZ5SyDVrEri0qpvPnO6yOohWzbs3NrVTf0MTxoI4uYleuWsPCEl3i8AJCzOK8EB7A3eSGcBuJaNPCFtuBqNUCF/GxEHE69yv+RyYEeD5hEEk4FhieCxi+w/8YAIlnw9zQzamXa9Pr6m0iNAANLueUNfZpHsOqj0+fszZr5zVYMz93/K+Fq3l4ArzAEMzwQo92OMFwZuwSETt8c2QRu3Xbdpo4ZWpP+wSbrO6jxaquEASNiFgXpau7m0MHLEUsunvr6k4YpWxDU1MTbxsNOxqxhbGLxAZrcfEUFRPHAiDbCWJiMYoeifYhslhgLTQJLHgE0e0PkZe+rHdOU2tibaimxd1QDethcNWihGT2HMPwWYchWFvncmbt+EZiOEYcC64rjgsvBLjOENQQqe7qmUZ4QkJyak8YB2wsBnYlJKWIiB1Fc2QRu2LVar5nzEUsBh/nF6w0SgiCiFiXBl2uaFwsRWxtrW1FbEtLK48oRUOKblZ4wMQGbxjRD1GCaX4dGcvsBBB0+jPEOqZn1d5ClENWAizTokuLttE2vX9zs5W4Hq7h2rGHWR0HhCvCGxATjBdFhDHAUxwaEcWeYC3gcdx6fXw3WiI2Ozef6xl0DWfn5hnfDh4RscM3ZxSxBStWGSUEQUSsS2MpYtG9i+6a8gMHjRK2o7u7W2yE5uhpZfpLsQVBhcFa+B5eRJTp8SIqMQYBj6T+EGIoO16E5GiZ5TnjOsA7DA894mohWiFSEGuLGF49iEx7s/vb5miJ2NQlS3tEbFZOrvHt4BERO3xzZBG7eGlGr/YJ9p26h7ZsdeyXecG2iIh1YdC9aFlJIAZp1+49RglBsB2DyROL7m6IL3xGaAG89zpWFR5aDkmJT2QRBw8kx5aaDV5yZGGrBao2XCecn85qgAFlEHMQ9hAlWuAjLEPHFONaYDuXuw6jKWJDIyK5npnkNo1WrSk0vh08ImKHb44sYjHg0dLJgr/37ttvlBAEEbEuTebyrD7dNfi7aH2xUcK5wfzbFYcOs5dTsD86T6wWqQOZuaCDmIN3EeIVcdx6tD9ELbyPGLgEEYdGD+ti+yzoDM+luVnuZ7TN8ni0UIVBrOI8YBDpmEoW5wcBN9/DlE0BA+OQIQFhAubiHWZtf/0ZyuOajoaIDYuM4npl6ozZtHXbDuPbwSMidvjmyCIWgyHNRey0WRh47EXHjtcYJQRBRKxLU7i2iCa6TeslYlFpYCCGs4PBJRlKNEyYMpUHUCFvrmBfkJ0AYQIYuKUFpjWBZc204NPiD0KP86lGRLPYmzvfkwUZxI7OwYpUV5jxC+IQpj23WuBqG8pxDNbMtw/T+8Qx6OOBJxSzcSHuGccMzyoGuGHyBogOv8AgPj+Id2wT60J8YltDFa0wfQ31ukgLBu+WPVNsNTe38HkgBzVE7Jat240lg0dE7PDNUUUs6meEyrhNNxt4rEQszqOq+phRShBExLo0SGGCGCNLEZu21LlTmMDzmqmEFEInkD4JXiIIICTjbztv29nKhEuY8sTO4IYIAhRCTos8S8E1kCFdFgSZFqSZWTmcMgrhBxgcBlGLFF7w2uhcsDB4biFsYYgdxWAoDDiEONTi2FYGT2pMHDJxmPLJYp+YdUvnaNXHBREJbyuOGV5mhAzAQ7o4PZO3w+IXIQLGOVu7HpcziFZ9jeMSkljgY/+4Hrjv7Sli6+sbWICKiB0bc1QR23T2rHrh9euTPQcvenUnbDvwWHBsRMS6MIgtmjJtZh8RiwFfzgre8LWAhYAwzwEKMRsWEUVHK6uM0oIt4TyxIeGciQCNKotZJeySUhezQIPQGo5QwzowLdZgEH/wdHKOVrV9CErE00IMeXqb8rlCxMG7g4YRMbf4H+mo8D2WD9Z4XbUeb0dtG3/rewuTOsDwvY9fIPkFBHGKLjxj1vLG4rM+HwhXa+d7ObO8FtgPxDSOD9cc1wDXA95s/G3PcIJqnhnQq0eMDGfQqIjY4ZujitjqY8f4RQv1sm6b3NQ9FKBe9pptPKOk4NiIiHVhqquPqcrNkxvbnorCmHrWGcHg/ozM5UrATqMZc+Zyw6o9YhDvEB7aK4v4zc7OLmNNwRbgmqJ7PE81qvA2wguKCQFw30E4YvASvtfiC2LMmkgbrGkxZ82w/cxlOSwo4f3kGbkMz+mwTYlzvS14PDFwcqBj0Gbt2IdiLHiV4ZwghnENETMLbzSEO+5vCGkcH+KGuVxOAXuv7R0TW1lVrfbhyfUKhNSJEyeNJYPHViL2tFq3UYm6+vrGXt83NDSxmX93OcOxYDKSc+da+XN/ZRrUvlpbz/Pf2D8+Yxa+/taxtTmqiN1fflDVx/N6tU3InINBgo6epUWwLSJiXZiTJ03TmZq/7ULY+fgHON3bLsfAmnlgIVrdvXzp6NEqqqmp4+7lSW7Te3llEa946MhRGfhlI8yzE0B0cVqt7Hz2liIuFEILja0evGQeA4ry1gTcSEwLP3uatf3ayvS1wWdcKwhy5IqFaMV1RJgCwjbgkdbnqkUz/h6N7AT7yw/w84R6BZ7g1rY2Y8ngsaUntrr6ONXVnWRBie1B0OL5x/fWyvdnmD67qGi9uqdXKQF81moZCOO9+8pp6dJ0Fq7Hj9dSenoG1zmWQtpe5lQiduoM9RK21CghCCZExLowrS2tFBAUTFOnXwopQKUxx92DPSjOQne3ErCqIewtYH1UY1JplDCVWbe+WFX27ixgdTkk1y4u2WSUEkZCfym2IKz0bFN4mcBAIDS68JJD0GJgE+JnUQ4G4Wu+visYn7chjPVniH/E2uJFFNcKghTCFd/By8ovCv28AIyWiN24qZTzw+JZQmxwV9fQXwhtIWLPnWuhDeo5/tGPfkwfffAhtbW1s8jExC633nor3XLzzSxuB+uR7e6+SFMmT6GXX3qJp9K2Vqal9Txlq2O/8/Y72GuL/f/6V7+mFQUre7yz9jZHFbEl6r5Bfa3bJRjuodz8FUYJQTAhItaVuUgUHhnN3TTmInaG+r/8QIVRyLFpa2uj9AyEEFwSsJiV7MjRo0YJUg1cs2qI2vlzZWU1d7sipyUM8Y01tXW8TBgZ/YlYc2GlhRriNSFe9QxUGLEPscYxtEq8aYGmhS3M2jYd0XBu+pxwLXCeCANAeAJCLhBXi2uBexOGzAa4Joiv1dcP24BZ2z4My0ZDxOYVrOAeDjx3CNfAy+JQsYWIbW1po0z1kvT//vu/01VXXUX79x+kTiWoV6xYSf/7//l/6NprrmFvbH19E4ccQJi2KWttbWevqe7+hxhtb+/k45o1cxa9+MILPSIWQhniFH/jM0RsTlYO3XXHnby8VonkjUrIHjlSydtE2RZ1XBDU2Ca8u9iPDjvAdvA9ljc3t/acy1DMUUUsxKo1ESuzdQmWiIh1cZZmLOPKwVzETldib9/+A0YJxwbpWEwjo2fxebp7eisBa/LA7ttfTosSkriBXJKe2RNr1dHRQWsKi9grW7p5C38njJzLiVhzMxdxEFsILzAf3Y9BUvA64oUDyyF6tbDV3kdzs7aPsTTzY8N56uOGwYuK88GALMSn+/ovYBGCMAH0ICAvLgQhzhvXR18n/G9tX9YM+7W3iMXjhO5fdAPjRRmfhxPPaAsRC0EaFhpOzz77HD3z1NOUvsTULT19+gy66YYb6MH7H6DDh48qUXmeDlYcpokTJtKfX3qJPNw91EvsCY5theAsK9tKb7zxJn304YdqW8/SW2++pcRmJwvOnKxseuutt+mN19+glcb8/rnZuXTPXXfTKeO4v/rqK9qyZSudUucS6O9PS9Q1+fijj+kvr/5Ffb+NU5JBREeER9BLL75I777zLvl4+1CAfwB7jRGWYHluA5mjitjUxUu4F8xSxJapaycI5oiIdXHwxmsuYmF4A0Y6JGcAjSYSrLtNm8kiwDyEoKi4hL745jvu7oRY0N5YzanTp1nQCrZBi9jc/JVDEpYoq6elRcgBhx3ELKLQiKgegQcxhjAExNZi8BgEmi4Lw7oQiPh/qIJvpKb3qY8B+zY/NohVnEtIWGSvmFZ4oCHecM0gWnudi7oeQ7mG5ob1EL4xGgO7EKeL+gX5mHPzC4xvh4YtROz59k7y8/Ghf/z9H/Tll1/R119/y8Lzwfvvp+nq+O695x6uJyBU31TC9PnnnqPoyEh69JFH6e9qnY6OLtq1ey/dcfvtLDoXRkXRIw8/rETs23ThwkUqUKIVZTFVqo960bjtllupQonhVStWsYg9bcTEXn/ddbR+XRGHLdygPt9/330sWF995VX6y2uvcx0Ur16sf/PrX1PIgiB6UwnmH/7wh+Tn58/n4QoiFmMQMFASzgfdJqEXDY4IZwpzE2yDiFgXZ/2Gkj4iFm/A6ZnLjBLOAfJTlh/snd7nyNEq9jxj4AmSzJ88ecpYItiDVWvW0oxZc1mAQkxBjA1ViKE8TAtCiDqIMeRlRXJ0mLu3KZUUey49ffh/CFvE28IgCJHiCmIS28L/1kwLz4HM2nrmhu0jBAD7xHmjcdZ5WuFR1oIVqbqQKxYWuTCWzwlCHOesxbc+d8trMhjDsehjRvYCHAdeACAO7JUnFqE88JZDjKCO2bZ9p7FkaNhCxHZ2dnMM69//9ndKTEqhB5R43bhpM9126220Ur1c3aGEZnZOHhUXFdPPf/Yz2lhaxvvOWp5Fv/rlr+ho5THyV0LyViVOIX7B7Nlz6OWXXubPf3ntNbpFLSsuWk/Ll2XRz664gkLUvVi8fkOPiMUAsjvvuEN9V8xiFLGyuXn5vH58YhLddsedVN9wlj799DO6+aab+PtV6tj++3/+W9VdhzhEwdq5DWSOKGLhOAgKCWfRqtskfMYzUt/QYJQSBBMiYl2c3Xv28kAmcxGLBicuIZHfiJ2ZhsZG7pZGBQnbuWuPsUSwBxCxs+d59AhMiDqIUO2dtCa+Lmda2GmRhm1hEBhSTMEgIP0Dg8nb15QfFjGkEJAQb8iGgNhSmM75CrEEg2cewhjr92fYPsQx1tM5aPEZ++jJGasML0oQrDqGFWV4+8mpvA3Es+JctFg1F6zDFa0wfV2w3cVLMtkrClGJ88cMZ/Ba4zN6HOxBTU0t/9Z4tvCSWHHoUhz6ULCFiO3qukATvptAE5UdKD9ItysB+a9/fkKvv/46HTteS/fd/wBlZCyjZerl/Uc//jFtLttKFy4QrV6xin7wP9+jonXracKEifTQQw9xmAS2N33adPrzy3/mY3zxxZfoip9eQe+89Ra98vLL9LL6u3DtOipcXdiviL37zrtoTeFaXj88Moruufc+OqHOcffuvfTc00/Txx9/TE89+RS9/9e/cojBUL2wMEcUsbV1ddwO4bnRbRJehPCCeq652SglCCZExLo4mG4Vnkg06rrCmKr+9gtcQOedfPYqiPSI6BgW8TCk4BLsB8IJwqNiOFMEus4hoLSgg5DTInQkwg2mxRuyGGCb+KwNf8PDyXlhFyVwTC3ENAzeUjSUENgQnRCilzVPnx6PKs5Je1zZ66q2jX1YZlcwPxb9eaTnrA3bQagBtgmPK87TPNsDcsfiePDygGOyZzgBJjZAmiQIEFwjxHQOB1uIWAjSTz/5lL76/Atqb++gd999j/7v//2/NH/uXN4HPKohQcG0sWQj/fD736fVq9bw98gk8JMf/Yh2qRfcuXPn0Y033NgzsGvmjJn0Z8MT++knn9Bzzz3PnwHCF9o7ujk7wX333EuNZ5s5nADhCFrEYsDXylWruTxE7N2qXN2JU1SrxO5DDzxIr776KkWr73He8MLif2vnNpA5oojdX15uGpsx61KbBMdKpKqru7okd7fQGxGxLk5DQyN7kcy7blCBoHFzha6brJy8HhGLnJqSE9Z+6JhYxGNCZEF0waMJgYL7DV3peKmA+GIxZgNBa82wTQhIS9P707GnQzWck7k31dzscR7asH197BCmCJmAGIe3FcIVLwk6phZltMi198AudNdjUNcUJWLx2w5XgIxUxGK0P0b4/+Uvr9GkSVN4m57qpePf/u3fqLCwiP/+yyuvkJeHJ2cFQGzqY48+RmEhIfTiiy/SBx9+pARpF23btoOu+t3v6IP3P6Dw0DC67rrr6MUXXmTPbFFRsRK4N9BXX35JCwIC6aOP/0YHDx2hNUoMI74V8bY4/huuv56K1hWxiL3pxpuUwDSljAoODaebb7mVB4BhYNnVf/wj3XPXXfTE44/TZ59/yVlThjohA8wRReym0jJuj8wdK8gUg8FegmCJiFgXp729nadaNY+L1W/BmJbW2dmzdx97iuCNnqca/OHMKCQMDsvsBFpM4n/EgIZFRnNjC8OLlc48oIWgLmsp4mxt2MdwzNq2bG3YD64DRKg2vAggxhVhExClEK4QjZgRrb8Z0PDZ3iJ2eVYOTZzixs8XfsvhYgsRC1ughP2awnUsaIvWl9CUyZPp+LEaJe7OU3JiEmVnZbOX9tDhozTVbSq98PwL7H2tVmUgIDHoKz+vgF579S/01ptvcjhBVNRCTrvVpraxenUhvfLqq/T2m2+Rr68fe56rqo/TV199zZMcIK2Wp6cX7d9/gEWst7cP7di+k4Xz+vUbyF+JX4QNIKZ2UXyCErOHqGRjKf3iF78kd3cPDmGwdn4DmSOK2OzcPHXfTOtpjyBm0T4VqWskCJaIiHVxMHo/OXUxTVRvuuaVBt6ES8ucP73UqdNnuIKHcMfb/o6du4wlgq3pL8WWFoHwJi7JuDRISw96QhwpuuUxGAueRu3thIAzF2bOZji35VlKqCrD+eK8l2aappSFZxWhGAhp0NcIXmxcI4hTlB3o+uB7e4rYC6peiYtPZPEBW672N1xsEU4AgwjVuVghFhEWAHGLvzF9rF4GwWqeoxV/43tsA/lakakAy2H4Wy9Dl79eBmGKbUOsYjvYH8pgezq2FWV0Dlos17lhkb7ryaeeogPlB5TI3UE3XH8DeXl58+A0rDcUczQRi5kVcd+Yj9PoaY8k3aFgBRGxAq1aU8h5HHt136hKZIURr+XMcDqXuHgjpGAGj1AW7EN/ItbcIK6wHIbub4hXxJdCpEFwQbQhxhNTAkOEwYOrBR7+x/rarG1/vJo+ZghPnAsM549zhCHUBeetRSu8rUjHhXs3Sb2E4tyxrv7f2j7MDfuyp4htO3+eFoSEsfjAC3LpZtNo/+FgKxHrCAbBjClXv/j8C3rp+efp4QcepEmTJlNVFSZiGPpUtY4mYpHRIig0gr335iIWTgZJryVYQ0SsQFu3be8bg6REHTIU4M3Y2YFwRW5ceIww+5HExdqHwYhYc4PQ0gJViy6EHOA3wkChHjEXEs7bRSyojk/F+lrYwrC+5fbHyvR56XOD6NTHDC8rzgUG4Y7zw3nifHHeELMQ7iivBe9gRKul2VvE1tWd4HoEYTr4v6p6+ALElUQszhEeYXhmq6qOscHba+4NHoo5mohFurd5Ht4sWnVbhLYJ6eBaHSQcQhhdRMQKVFlZxQLWXMSi4ggIDuUZZJwdJDFHpYm3f3i6Tp2SfLH2ACIWKakw2YE1YTWQQXTBINpgiPWECON8pwELOB50rodpIBPCEDimVi2DYYS+tewAMC0mrS2D9Sd+8b218jCdFcHadvEdRChnMVCiG55ULcpx3BCVEGyYWhb5ZDHdLGbvwvnyuRuTHPR3XIMxfR2xTXuJ2G3bd3AdgmcKvwUGkA4XVxKx2hByAM8rxCvCEqyVGYw5mojdu3c/OxPM2yLcQ+h56ew0ZYUQBHNExAqce8/d27fHawKDqLNXAzfeqK9vYPGD80dYAUYSC7Zn1epCbkzhbdSCbrhizFxEYjsQZWlLMyg+KaUnptY8LyxEos7hCkGEvLEIU0AMKcrrfK0wzKAFw2fzGFxt+BvHoMvpstqQ/5W3qbYNzzH2i31i3/gMsQpDflocI76D2MY6WB/npPepz3EkohWmr5c+dgh77BvPuj0mO8hYtpxjzPE8RS6MGVGPjiuKWFuZo4lYZLSAaDUXsbiHktSzNJwpiwXnR0SsQB0dnTwvvWUcEt6I9+53/gwF3d0XeFAMzh/xezl5w5seUxiY1WvWqpejudygQrhBtEEkQqyNVKTBtKA1F3/4DHGrvbJRMXEsXrWYhOcdIlcLXXyHex8vcXipwXLkVkU8qjaM/Mf6WI5yML0+TG9PbxueYuy7J3dsXAIP0NLHaH6s+N/auQ3Hli2/JFwRfpCStpTTbUHA4zeA9xr/23qyA9QnyOlpqzhzEbHDN0cTsWlL0vm+0e0QDJkKCteaUqEJgiUiYgVmiWro4TmxFLFri4qNEs5NfsFKjot1mzGLZzKSpNq2R4cToIsc1xieSTSuiP9EFzuELIScNUE2EtPbhaE7XnsjdfwshLQ2dLFD6KL7Ei82iEENjYjqY/CwYjmbKotzstyW3j72rz2r2mwh2vsz833As4vjhaCGwIaIhaDGMlxzFrE27m1BzwZ+Wx1OsKl0s7FkeIiIHb45kohFuECoqhfQ7uh2yPSSOJf27HV+Z4owPETECsyGkk193oDxd0JSslHCuUFqrSnTTPli7eGdEi4N7MJkBxB16cuyWDAilhXXHN5NdHObi057iT1stz/DfnF8LHgHY6qste1os7Z/W5q5Nxe2KDGZRTaEK0KCcF0hZBFDjOPF+aGcvQZ2HT58hGf9097s2to6Y8nwEBE7fHMkEVuPiXfU74yXH90G4f5BbwYGCgqCNUTECgzSusD7ah6LZBqtH07nz7cbpZyXM2fqydPblz1HqES3bd9pLBFshfbEQkRBfEHgsZjNzOKY1MCgUPYWQnzBY2iZF3a0ROF4Nn0NIEL1dYEXGOKf4269/TjW1sPLlz3EiNfl66zEq/m1w2d4YmfNna/Ejm1FbPGGEs5uMlU9S4hNHql4EhE7fHMkEYvJHSzjYVEXYzazri7JGCNYR0SswKALEAICb766AsFnNIiuMLgLA09CwiJYuCOsQKY4tD0I2cBIfIgvS2GmvYP4G4IM5bR3lvPCRsf0hBy4kqjV54jz1dcN1wFhAhD6OncsvFXIy4p4W3i4tVdWX1NLwzYhfrHe6TO2Hdi1KCHJ9By52eY5EhE7fHMkEbtufXGvkDYY7qPUxUuNEoLQFxGxAoMZdiwHd8F4Fqtdu41Szs3qwrV8vhDvnj7+dPbcOWOJYAuKSzby/QUPK0SZNXEFg9cQ4gvxpLHxiSzWMOAKDTHyRaJrHFOq6vIs8NBNnm37eNrRNpy3FqwQmrgG+B7iFOeNdFW4DpyKyz+AwzMQFoByWFevZ7ldS0NIBwZ2hYRFUmen7eK/IZT8Ahbw74xBXbaYKlRE7PDNkURsStoSFq3m7Q8G2mJAqCD0h4hYoYel6Zk0eVrfuNi8gpVGCeemuvoYTZ9tGm2ObqzDR44aSwRb0NjYqBpTd/bua0+qNYGlDcu1MOPpVpX4RaYALeTgRcS2ohbG9aSoQnltELXmf1vbx1iY+TGZG64JcsJCsGKmMmRBwDnO9/AmH79AznKAkAt4YZFxAddHi9bBCFdtWAdxs3i2C9etN34d23Dw0CEeiIOYWNQfVeqZGikiYodvjiJiO7u6KCgkrJcTBWEFGGi7v/yAUUoQ+iIiVuihuLiEJkyZ2lOJwPBmnJCUYpRwbs5jqszgUD5n2CrxANgcxBq7TZvJ3eAQbTBrQsvStKDVXkqki4JoRZYDHQOKhhqj4vE3pmSF2NPGg5rUenpgkzYtAO1h+ni1Yf/4H934mCoWx4Vz4JRdPv4cOsGi1dObzwOiNS4hicvA06rX16IX+7B2rfozlGcBm5DMPQ54rm0da4j0dJzlQ4mRyIWxNvHyiogdvjmKiK07cZJ7WyzD2eZ7+sigLmFARMQKPRw+epQrD3gjdUUCjyQa13NnXaNrPTs3n7tBYeiqtWVXq2CidPMWmq4aqHnuXjygC13bQxVkWiBqMQevK7aFXKzwzOKeRaMIUaj/h1iEeMZgI4QoYAQ/PJ8QuDDEmpob0m0tyVCfBzAuY7aO3hYMQhuxvdgXPKjovofhuZrj7sHHBUOIBB93TBx7YHVogD5H2FCvj6Xp7WGWMC1g8dJmS/CsIC4XdcaEyVOpYMUqY8nIgIiF9/3c2WZqbWmj5nMtYoO0jvZOWr1m3bgXsZvLtnDPQN+BxRGceksQ+kNErNBDW9t5ClANvXmXDrrWZ89356lpXYHyAwe5EYYXAHGHx2tqjSWCLUEaJnhLkdYMcZnIQqBFqTURNhjTog/eRvyNbSIMAf9DIKJBDAoJ5/1BzOL+ZiGpxDQaefyPv+EJxd/4/QdjKIt1tFjmbRkCFaP/IWIxhSzOFy9GyD2bsngpi1UcG45Ve1ltIVjNTW8TAtt0Xp60ak0hdXfbfrQ3BoDi3PHsuE2fRbt27zGWjIwMJWIhbvCCmZtXQDnq/3FnefmUr0Q7hDsGMFotMwaGYwlXL2u4D8eziMWLCjz4ut2BwZGAyQ8EYSBExAq9gIdmsmVw/ZRpVFRcYpRwbhoaG5X4MGVpgMdKZoqxH5jZCYLKXYkrvCyFGJMeQNBBkI5EzGFdc9PiVhu+gxdWG7r4ISzhPcVnDKKC93RBcNiABq9uZHQsb0OvC9PbhUe2175zTP/r89Nm7RyGa1rMY7sIHYB3dIZ6jjGL1rFjx42rb3s2lpqmDEUcI0I6GhoajSUjAwN78EIAAT4ezfTi4sn1BcKxcA1Qh1iWGxtD7LgXv7y1tbUZV3R8gRkT0RMxxcx5AoNntqxsq1FKEKwjIlboxYaNpVx5mFcmqJyXpGcYJZwbzM+dqsQIRsWiOytqYayxRLAXjY1NtGLVGvL29Vf323z2WCK/KQSZueCzFGsjNWy3P9MezMGatW1os7ZvW5oWwjgOXC+I6OjY+B6vcEJyCu3dX27X0BhMax+faIq1xXODtEi2muse4qu+oYFF8bg0df/u3rOXvZ3oxYHgLj9QYb3sGBmeMVv9HramqamJX3rwIqvbHHjepyurtuNLl+AciIgVenHkaCVXxJYJpzHIZLy+yduaTaVl3BDDGwsvRq0MLBgVWlpaacvW7ZzqDd30GNQBLyI8nOYDm7RosybonN0sBSsMcbnw+OpZuiCmMEBxTeG6Ubt3tRDBM4Nu4dKyLcYS1+BoZVVPXYkXBwlDGjw7du5m7715m+M2fQYP2jzf7vwT7QgjQ0Ss0AsIicDgEIu42Lk0Y47rvBWfqa/n+EE0yOge3FCy0VgijAbwGOFey1+xkmf4MnWJmpL5Yxaq9MzlLOjg5dTCdjQ8nmNhODcWrBYzbnHe2PAojrdlwe/hTbGLElTZXE5JZI+Y14HYsnUbCw/tiTxx8qSxxDU4dPhILxFri9RirgKyJyCEzVzEIoQtbYlMciBcHhGxQh8Sk1O5O11XKKhc4JlEsnpXAV2jCKvAeWNE94UL47MrztlBF3hNTS2tWl2oRFo89wjA0zhrrjvH+UXFLKKFcfGcmcC8C7+PZY0/kWv1OA3THmfkc0XGAtyDGKEPwYrzh2gNDArh+3T9hhI6eeoUxxaOBXjpSEpJ4+dlktt0JbDjjSWug4jY4dHR2aleVKO4njVvbzAwsHRzmVFKEPpHRKzQB8yyg0rF/M0Yc6HD09M1yh6esQJpoHDO8MaiUTp12rZTcwrD4+zZc3SwooLWFq2nxUszeF51eM1h7l6+7AX09PZj0Yf8qhC3PDnAkowej6ZlrlgtGG1tWoyamw4BwHLE/cJwfDhOzEKGfKjIEYvzMY+x9AtcwC+XK1ev4fjLEydOUmvr+AjvOXX6NHl4+ahjnc31xsZNm40lroOI2OFRU1vH1808HhaxsGh78PIqCJdDRKzQh6qqaq5UzEUs/kaXLhJouwKnVcMMIYFGCR6mwnWSpWA8Ai/gyZOnqLKymrbv3MkpjpakZ1J0jClX7HwlAGfNc+d7NyAolAUiJhZAii3kjYVFRMdw3C0Epc4qoDMLmOeAHcgWq32arwuDiEZ3v85LixyxEKl6UgOIvhmz8XzN578RzxoaHsne12XLs5UYLKV9+8upVjX0HR0dxhmPPzaVbuYBXagjILzxe7gaImKHx7btO/pkw8E1xPNy/rzEwwqXR0Ss0IfW1lbutoUXUlcsOqRg9559RinnB121OGeIWKQnGu04Q2H4XLhwgdrb21lQHaw4xINHyrZu4zhbxI3CqxkXn2DKG6uEI4QsYkwhJnXuVxg+z56H/5UZf5ueifnG37rMpZyxs+bNZ7GMAWrItIB9IJ43OjaO4pOSKXNZFuXlF3CCd+RS3b//AHuk4Fl1tHsM11k/JxCyiUkp43YUvD0RETs8EN/eJxvOlGn8vSAMBhGxglWQZBqNknnlgsomOzfPKOH8bN+x65KHSYmWmlrp3nImILbg7THZeRaRGNR3+swZOqOs4tBhJTJ3c/c9bM/efer/PRxus6Fkk/E3lu2hvfv282AmrIf1GxsbzbZt2r4zvgQhmwmeD7zwYoT59u07jCWuxeEjptkOtYitrKo2lgj9wZPrBFkOIp6jbC73QAjCYBARK1ilcN36PjOowNsCr5WrTANYX9/AcZamkIIZtGrNWmOJIAggr2AF1xMQsQjTaG5pMZa4FgcOVnBvFeoKxDAfP15jLBH6A0IVbYp52NpUdR8hVdu5c81GKUEYGBGxglWQXxIzvliGFOBveKhchdTFS9gbi8oWU4d2tI/f2ERBGE3gSfNfEMLCbcLkqRzH66ps3rKVrwO8isgigckFhIFZs7aoT28frh+yW0guGGGwiIgV+gVxguZdPTB4Xda7yBS0AN4CNE46Jri8/KCxRBBcmx07d3H9gBdbGGKPXRVLEYtZsoSBiVkUz3WqefsCUStTfQtDQUSs0C8Y6W2eLxaGSichKcUo4fwgnhGDc9A4ISYYo9AFwdXB2K24+MSeXoqwyIV2ndZ2vGMuYpH5QrrDB6a2ro4HUZr39OEzh2JIai1hCIiIFfoFgxWQngjB9uYVDVJPYQCMq5CPuD+3qdxIYdT52XPnjCWCs3Dk8GH6+ssv6W8ffkiff/YZJSQmcZYOwTrV1cd76ga3aTOpbMt2Y4lrsmXbdq4f8KIbHhntkhkahkLJptI+oQSmkK1w6uqSLDDC4BERK/RLe0cHLQgOU5XLpZACdKsjr9/msq1GKecHU6AinycEPCraTaUyk4yzkZebS//2b/9G73/wEb3z7l/p2muvpZv+dDOVHxxc+EhtbS3NmD59XOdztSXpGctZhMDziFy7LS4u+FcXrmUBi7oRIlboH52WzTK1Fv7OWJZllBKEwSEiVhiQlLQlqnKxiFtSlQ3ybLoKqHSjYmJZwMJCwyJdZuYyV2H58uX04x//2PgLmSnq6aabbqLnnn2WLqrf3xxk57DM0JGrRPAVP/0pdSoRe+FC73sD+WqdCWTt8OCsHbN5jvtMFx7QpVmWlU0TJrtx/ZCcutj4VrBGfUMjpyEz7+GDcwQvRK40aFiwDSJihQFB/kvLGVWmGyEF9fWuM3gBnmc0UKh4UeFWVlYZSwRnICsri0WseTfwqlWr6H/9r/9FFRUV/PfatevozTffpMcffZRuu/VWcnObqgTrRTp85Aj96eab6b//67/olj/dTCkpKdShhKuvjy898fjj9MB999E999xDK9T2nIF1RcUsXk0iZL7LJ/bHPZOctpjHD6COyMkrMJYI1ijZuEldp5lcj+o2BaEYmGCnuVliiYWhISJWGJCms2d5qkxUMrrC0SP1SzdvMUo5P60treTtG8DeAniiXTmdkDOiRaz5hATHjx+nf//3f6eYmFj+29vLm2bPnkO7du6kNavX0BVX/Ixyc3K4K93Dw4N+9ctfUk52DtXVnaCTJ0/S+++/T+lL02n/3r00ZcoU+uMf/+jwEx5AZGBKUNQHCCdYvCTDWOK6wPOOkfboDke9uCw711giWALBj4HBlvGwk9ymyyxdwrAQEStclsVLM/pkKUAlhJACdLW7Ctk5eUrATusZ3NbUJLkgnYX+ROz/+f/+P3KfN8/4xsRZ9WKHZfffdz9Fhofxd0VF6+iPV1/Nny05feY0ZWRm0jVquaOHFpRt2cpiTXcFY7pVVwezsYVGRLKAha2WSVH65fTpM5yVwDKUAC9Fu/e6zpTmgu0QEStcll279vCUkubdPyYh50MNDQ1GKecH89vjGqACRkO+dp3kM3QWrInY6upq+t//+39TUrIppdy+ffvprTffpGeefppef/Mt+ulPf0opSUm8LD8/n/7w+99Td9elNFMJicn055depvfe+ys9+tjjdN111zn0bHcYtBYSFsFCDZ6zRHVdZBQ+vNMtPdOn4tps3eramRoGYnPZFq47dTsCg4BFbt3WtjajlCAMHhGxwmVBJY2pACFczSufKdOmc35EV+GCarDhfdYeFzRc8MIIjg9E7E9+8hPjLxNLliyl/1eJ2OPHjnO6rRtuuJH+9c9/UV1dHTW3ttGdd95FcTELuWyPiDVEcEbmMvr+93/A37eqsqvXFNJVv/udQ4tY9sKq+x4vcbj/d+3eYyxxbZqazpKXrz+LMVwXxEgL1oldlNBHxKKXL32ZhBIIw0NErHBZ4G1ZmrGMZ+syr3xQYWOKwAvdrhNSsAfxjeq8dRfYzl3SkDsDy7OW0w9+8APOOtGl7udDhw7R76/6Pb322uu8fOeOnZyCK2vZMv77xImT9PNf/IJSDU9sTk4OXa1ErOavf/0r/fhHPzL+IloQFES/+fWvjb8cj/Pt7ZzDE/c+REhE1EKXCiUaCAxsQ10Ac/fyoVOnTxtLBHNOnTrDYVjmzpBLoQR7jVKCMDRExAqDovzAAfbAmMcyofJBSMGpU65Tabe3d1BIeAR3HaIxj45dRN0uJOKdlYKCAhapjzzyKD308CN05ZVX0hNPPkknTp7i5S0tLfTEE0/SLTffQl98/jm99eZbSqT+mNymuPHyjRs30n/+x3/Q9KlTafPmMiopKaHvfe979MqfX6Evv/iCnnjscbpKbXNLmWPmGC7bsk3d76aXNwjZ3XtEdGhwbVAfoD70CwiixqazxhLBnGL1TFgO6MI1w8BhV88zLAwfEbHCoIAnBnFLqHTMKyFUSus3lBilXIPiDRvZKw2PAiZBOCrpthyeutpaCg0OJi8PdwoICKANJRuNJZdobGyi0NBQmvDtt1RcXEw7d+6k4vXreRnCBAICAunDDz6gNatX83ebNpXSxO++Iy9PTyWGT9L6dUVUU1PDyxwJDEYLDjXFwsLghe0yi/11dTCQS1+bsIgop8sLbAu6u7opcqEp17Zl+7FcsjkII0BErDBoMDrfMksBKqXQ8EiX6lqEmNExcKiEObm5DHARnBQIeu2FRe+DeGF7k5Obz/Ug6oJFCUky2M0KR45W8v1jmZUAjgDJcCGMBBGxwqBBRYTk5uYVET6jMnK1mVbgfUGjpa9FbW2dsUQQnAcMWvILDOoZeY8YeEfPdWtLLl64yNcE4h7XZ5Wk17JKthL6mNFMtxswXK9w9urL/SQMHxGxwqBBF2JYZJSqfGb2qozgnXW1qSdPnT5D7jz15iz2UsFLLQjOBk+nOmVqz8uqeM16g8wtgUEhLMgg9DdsLDWWCBpk9uBQNIvsNhD+64tdKxRNsD0iYoUhUbR+A3sgzSsjCLmABSHU0uJawfm5+Su4Isb5Y9Qt4h4FwVk4dryGZs019bzgmU9bki5d5RacPHWa0w+iDkDXePmBg8YSQYPwE7fpvfOM456aM99TXT/TwElBGC4iYoUhgfQxc9w9+6RJwVSsJS7mhUBWBnduwGarRn46ZckABcGJSFuaweJVP+vVx44bSwQNRCs8sLhGyNQimQl6g7ES8Ykp/LKv2wsY7quEpGR5KRJGjIhYYchgIBNEm3mlhEoK84e7Wu5IeKd0Qz/f04vzhwqCo7N3/35+OYXHDOFDK1etMZYI5qwpNMXGQ8hGRsdSZ6dkbTDneE0NTZ9t8rzqtgL3Fe6p7Tt2GqUEYfiIiBWGzM5du7kSsuwemj3P3eW8NceP1/Q09hDyWRIbKzg4CAvyXxDcE+eJz5h1TOhLqnqJxXXCs5+StsT4VtCsViLf0guL0AsMFnS18DPBPoiIFYYMploNDA4lN1UZmVdO8EhgZi9XA95YjLw1eWO9xRsrODRZObn8LM/Ai5kSaK40tfRQwKj6oNBwFvp4/lesMuUHFkxg0FuAegHC9TFvJ5BjG9kKBMEWiIgVhsWawnVW3rBn8yCH+oYGo5RrgPRaejpFxAZLpgLBUUEavemzTPk7tXdRppe1Tl3dCZrn4cWeRfTESP7c3mwu28L1oXkbgfsKPXY1kpJQsBEiYoVhceZMA821GOAFw1v22nWmWYxcCWQqQJwwrgcaNozsFgRHAjlP4xOTWXjgPp4735Pnuxess6/cNBU3RKy7eoltaGw0lghd3V0UGR1DUyy8sHgxSkhKkQFdgs0QESsMm5TFS/p4Y9F1FBIeSe3tHUYp1wCpdjA6GY0/uhZ5Fi9BcCA2lGzi+E7EeONlNCe3wFgiWCOvYAXnyEadh6l4RZhd4vCRoyzwYbptgIcff5cfqDBKCcLIERErDJuKQ4e4Ajcf4GUaeTqDtmzbbpRyHVauLuRYQlTUELN79u4zlgjC+IbTxXn5sFcRzy+mkpaBN/1z4cJFio5ZxJ5GeK6XpmcaSwSwhNOz9XZw4L4KDg2njg7XcnAI9kVErDBskE4mAl1G0/pWVmGR0S43PSWm6PT2DWAhAA911MI46pYpFYVxTkdHp7pXY/me1d6zAwclaf9A4FnXkxxg8NuOnbuMJQIy1OhJMszbBbzg40VfEGyJiFhhRGwu20qYjcW8soI3dtrMOXTo8GGjlOuwes1a7orFNYCXumzLNmOJIIxPEM+NEBgOI1BCI0/9LQzMlq3b+PlGjwtmnqqpqTWWCOmZWSxYzdsEiH1Pbz9qaJC4YcG2iIgVRgTSbQWFhLH31bzSQiWWmJxqlHId0AWLmGA0cLCQsAjplhXGLXv27ec57acbYUB4lptbWoylQn+kZy7nl1WEE4SER1B7e7uxxLVpbGxiDzXEvXl7AC9/wYpVRilBsB0iYoURU7iub7otdCXNc/eiYy44VSVGLbMwUNfANEBGciIK44/W1lbO9wzxCtExY9ZcOlpZZSwV+gPhFxjIhesGk/ywlyhYuUrVeb29sDqs4Lh4qwU7ICJWGDFnztT35Ek1r7zgjc1cnmWUch0QC4w0MhD2pu5GD85eIAjjhc7Ozp4pk/VgzPUbSoylwkDUnTjRI87wjO/dt99Y4tq0tLSQt19An/AyhKikLl5qlBIE2yIiVrAJmcuzrcZBQdy6Yq7Jo0erWByYGroZnHKrW5LGC+OE9cUl7DHjONgpU/n+lBRRg2NdUTGLV9RvHojzrHetyV36Y8PGTSxgcU/pNgCfMbMjeqcEwR6IiBVsAmavgcfRmjfWVacYNE3fOZ0rcjR6MshLGA8cPVrZ86zCA4t57OtFiA2ahbGL+HlG3SYeRhPwwvJU5NN7T26AzDVRMXHU1dVllBQE2yIiVrAZy7Jy+nhj0VBiBivkoXQ1MKArMCiEK3YeneuD0bkiFoSxo7HpLPn6B3JaKDybSIUkcbCD5/SZMz35dN3UNSzdvMVY4toUl2zkHqc+XlhV9+3aLdPxCvZDRKxgMxC4P2uuu3VvbE6eUcq1wHzq8NqgQke37RJJii6MEfCGLUpI6rkfkaQfKeGEwVO8YSM/xwgTQqiUTDWrXtYxQDDImhd2BkVEx6r7TnJlC/ZDRKxgMy5cuECLrczUcskb63qxsbgmCcmpLOTR8EE8VIrnSxgDcvLyWYDhHpyg/k9bmi5xsEMkInohizU8z4nJKer6GQtcGPPpinWdj8/ihRVGAxGxgk2pqq6m2fPce9KqaGNvrIvGxiIROq6JjkEMi4iitrbzxlJBsD/wuGoPLP4Pj1xI55qbjaXCYKitO0lz3T17nmOJcdchU329sLjHIqNjeFZHQbAnImIFm7N4aTp3VZpXaoghgzf29GnX88YCjAZHHCJEBAS9dOMKo8W+feV835nE10zuBpcZpobO6kLTbHzIAe3h40fNzTIpBDISQNCb1/XihRVGExGxgs2pqjpGs+d5WPXGLs/OdckuTHgkomIuzU8/U1X0+yXtjGBnjh0/zqIVL5EwDOSS+27oIK9uaEQUz9CFvKdIKejqNDY1kV/AAr6vzOt5ZCSI5FhY8cIK9kdErGAX0pZk9PHGwhMEceuqXqCa2jpObYRKH94LL19/mUtcsBtIm+XjH8j3Gl6c8Pxt3rLVWCoMhZ2797B3Uce1V1QcNpa4LitXrabvJrv1quNxbSD0xQsrjBYiYgW7UNtP3lh0qScmpRilXI+SjaXEqWjUtTANDkml7m6ZBEGwLXg5Cg4NZ88/njuIjZzcAmOpMFSSUkyDMyHQQsIi2DPryjQ1NZGHtw9NnWnphZ1heGElI4EwOoiIFeyGtVm8tEeo/MBBo5RrgVCKRQnJPaPEEaO4ddt2Y6kgjJzGxiYKUgJWP3v4H0n5Ozo6jBLCUKiqqqYZqt5C3YXMK4Vri4wlrkt65vKeFyRtqM/Qy7Rn7z6jlCDYHxGxgt3ALF56NK95ZYe3dcSXuWqjim5eJJxH9yQq/fle3lRdfdxYKgjDB/dWcGhEj4CdMNmNEpJSxDM2ApBVBYINz6qHty81NDQZS1yTY8drerKtmNfrnJFgoXhhhdFFRKxgVzCLF7yO5pWdyQM5g7Zu3WGUcj3giZ46Y7bJu6Mqf3jOzp+XtFvC8Onu7ubJDJADFs8ZBiBFxy7iZPTC8MBLgYeXLwtYvBgsTs8wlrgunH3GeEkyr9NRl1UcklhhYXQRESvYlTOqEfD29edGwLzSg4gNCY906S7OvIKV3BigAYAXIysn11giCEMD3q+lGcv4ucLzBQEbtTBW0kCNkPwVq3qeUWR2wKyErgxEKu4vCFbz+hwvTsmpi41SgjB6iIgV7E7huqI+3lgYhBtyL7oqGNAVn5jcS8hu3LTZWCoIg6Ozq4vSlYA1v48CFoTwPP/C8MHgOE8fP+42x7VNSVtiLHFN0FMUHBbR86KkDdfHlHu4xigpCKOHiFjB7pxvb6fwqIV9Kj94Z5HBoLa2zijpetSdOMlxdoiPRWOA63Gw4pCxVBAGBqPkMcjGUsCeOHnKKCEMlxUrV/N11YNRMWmEK4PpZXE9zOtwGLz+BepaCcJYICJWGBV27jLlWURDa14BolJckp5plHJNDh6s4OuCxhJC3zdgAZ0+U28sFQTr1Dc0UFRMHN8zvQTsKRGwI6XezAuL6xq7KIEuXHDdVHjw6nv5BfQJC+PBbuo6NTS69mA3YewQESuMCpi9BSNX0SCYV4IQbhC3e/ftN0q6JqvWrKXvJk3ha8IDcpQ4kXnHhf4w5YGN4FjEHgEbFEInT502SggjId+IV58+2/DC7nftWc6WZ+dwpgvzunvGbFVXqftvXVGxUUoQRh8RscKocfjIURatloMC0ABHRsdQR4frJhCHyE9NW2LqFlbXZMrUGZzZQRAsQR5YTGSgu3bxPwSshBDYBlxHdy8fU0YCVTfFxMW79IQkR45W8qA2y3obPQBwTLS3S/5hYewQESuMKrl5K3oaX23ak1RUXGKUck0QOxwWGcUNpw4twKA4QdAcr6mhwODQnimd4QmLiomlhkaZvthWLM/JNXlh1TOIuqmyqtpY4nogewzGM2CmRcs6GyL/oEy/K4wxImKFUQWxZvByuFnEVulBTVXVx4ySrsmpU6fJ2y+ABSwaUTQUm8u2GEsFV6aqupp8/AN6XgIhYDkPbIuk0bIV+8sPsEDDs4frnJu/wljimqxbX8zhTeZ1Nd976rvE5DSXjhMWxgciYoVRp3jDRmMwSu+KEY0GZhdydRAfjOsBAQtxj//LtmwzlgquyK7de2iehxfP3c8iQglY5OVsbm42SggjBZNFhEUu5F4hPHcY2HX6tOumKWtqOktePn1zfONvb79AOiMp3IRxgIhYYdTB23tcfJLVQV7TZ8/l2axcnR07d9FUI+2W2/RZLGCqZGpal2T1mrU9LzR4RiZMnso5SxFHLdiOLVu387OGazxxyjRaU+i6oTyoozEz1+SpfcMI4IV19dAvYfwgIlYYEw4dPkrTVGOBhtm8koSnyS8wiM6eEw9TyaZSFi9oVJHBAV6RuroTxlLB2Wlvb6flWTn8sod7APfCVPW8rFi1RgSsjUEYj4cxmAu9RAuCQ6nNhaeBhuffWkpE3Ish4REuPdOiML4QESuMGcuyc/oM8oLhu6xsmYIVrFpdyNcDjQkaEMyYg/yggnNz6tQZio1P4LAB/PZ4ucMI8S1bJazE1iCMAKEZHEaAF2tlrtwbhPRtiMuHiDWvl+FwwL146PARo6QgjD0iYoUxA/O6w+sKz4d5Zam9TvvKXTs3I7h48SLl5BYoITu9pysvRAlZGY3uvCAVnc//3955P8eVXXf+T9ixq1b7kyWr5ForlKUZa6SZlUbBkmZWGqVa2yVpZKWVZEleb5WtlTQzFHMAkYgMIpMECQIkCIIAQYIgQACMIMGAQAQiETkHImcSPPu+p98DwZ4G0GgiNLq/n6pTCO++193vvX73e88995zQcBVVOngxvh+o6sYwm7Xhzr3S+XONrA+ZWefMLd7HnPG8ST+T6dC5gHOUfeGi2ZIQ94AilmwoVQ9qVLTCFj4w4QUIj4yWkZFRs6X3gjyMWIWOxPY4N+hgVMgOUsh6EvAIXioolL37/eancuGJRS7OLoaRrAm9fX0SGBQyH0aAfLvjExPmVu+jrLzCXHT7wTCCyOhYmfLiEAvinlDEkg0Htd8dpnExOvAshhUo6FgTDh+dP08Usp7F6NiYTmnjnse0LQzX+EzmWZmcnDRbkdVkZnZWYuMP6XnGIHqXYQ9qas2t3sejR4Na8voDYQRwMPj4anlsQtwNiliy4SBNEDwgjsIK0JlXV3t3SVoL5ANNOJyoQgfnR4VsLGNkNzsIEwiNOKjert17ffR7gPjXK9eumy3IWpCTm6eDQsvjfTbrvLnFOzmdnjn/bFlo6kw4R2cCcU8oYolbUFFVpYLVPqwAHXpEVIxMePEU30IQR6we2eeEbLx6UcjmAmWWr10vMq6jr03AGtcT8a8HgkM1VzBZOzBtboVs4NzjGQNvuLdSWn5fQyrswwhwjpC1YYDPF+KmUMQStyHz3HmHngAItZTUU9rpE0vIPvPIohMODouUNi+vdraZ6O7p0XKxuHZW+ACuZ0pqmiEYHpmtyFrQ29snvqgaaAg0nPfde/dLU3OLudX7GB4ZkeDQCIczYQix4EwYcWcoYonbgAoxCCuwj8mypvuYYPsZ4+OIkU2Ud/+8bd6bhLQ4Vexw3Bokkb91+44Wr8A1w7XbusN2v+flF8jsLAdqawlyv8YdslXlwrlH1o9bxbfNrd4H7jdUSYSjYOEzF4Znbo6Xl90l7g9FLHErIMIgYlG5a+EDFR6Tfb4B0t7RabYkiJFNS8+wna89+2QbkuHv2it37pWYLYg7AQ/gseOoVLdrfur2PWMQcjA6VlpaWs1WZK2YnZk1zv+J+cWRqMqVlZ2jAwtvBXmoHc1+YWCFnNSY9SHEnaGIJW7H2UXCCjDdFX/oiFenwPkAT0Uu5OTqubGmpWFFt4rNBsQdKL59V3wDDqjHa5dxL2PgAaFw6nQG08itE7mXCuY9sBCySF024cWZHxoeNuoCQg2pWPCctT1D9klDQ6PZkhD3hSKWuB3Dw6O60AIdzsKHKwx147OyL8jTOUO9kXlu3Lwp23faypLCK/vnHUjafl6mpqbNFmQjaG1tl6NJz3tfcV8HBIXI7Tv3zFZkrUGmB1wD/W4Y5z88MsqrF0PiGRsUGqaD3+eesabAR+YGQjYDFLHELens6lbPFTr+hQ9ZiAB4sSqrqs2WxAIrri0vn03I7pLYhMPMJbsBINbw6vUb4uMXYPO+Gvct7mVcm+QTqTIwwMVb68XdklL9Puzcs1evAaqftXd0mFu9j6fG+B8LCB3FwULgI9vJxARzE5PNAUUscVtuFN2an35d+KBFRxQYHCq9ff1mS2JRUVmlwgkCVqdNt25XrzYzF6wfzS2tcuRokt67mJrFdcDvfoFBcvdeqTzx4hjM9aaq+oFeA2uGAiEc9yuqzK3eyeUrV+cHVgufqxhgBeC52ttntiTE/aGIJW6LrpxNfrYQY6FBnMHLyLRbH6S7u0djh624YnhXIGyRk5SsHUiNhYV2es7NaVoIqJ17fDTOm7k215ea2not4YtBLwQsRNqNm94dK/6wsUlTitnHwULQIrTgXkmZ2ZKQzQFFLHFrHhnCIOBAiHZACx+6MDx0UbJWVzeR58Cq4uSUkypk0YGjI0dMIOJkN9NilidP5jSdGDIx2H66l2HaFanhCi5fsS3cMgYMON+4PyEUwg9GS3lFhZaOnZmZ0aIdjo6ztjaur+1N1NTWqYC1Qmu27dgtRV4uYPv7ByQkPFK27rSLgzUMmRrSM87KU8QaELKJoIglbk9dXb2m3LL3HtimB3fJjSLmj3XE48eP5VLBZV2BvNXszDGNGBkVK62tbWYr9wZiJCzioBwICdUQElSzcicLCgnTMIF3t2xVg9fbMswgYFtkVIwEhYY73H+tDYt38Nr3SkrNM+r5lJaVPydgEULg7QIW43xNL+Yg6wueCTFxCTrgIWSzQRFLNgWXCgrlPQcPYAjbHUZHhWky4hiU9EWFIgh+TBtCYMFrWHz7jjx58sRs5Z5gehNeIiyGyjqXLRlnz7mZZUlm1jk5n50j5y9cNAw/bZZt/G17z1l2+6yPIYQh5eQpFSlYZOYN3Ll7T58Jz4cQ3DK3ei8opIFzYR8Hi/Pk6x8o7e3eu9CNbG4oYsmmAF7FJMTHOhCy8DJGHIyWwUHGHC4GFmscSjymyfXRuaOjx9R3UnKKdHf3mq3cj5Kycu1okbNyYnxShoZGaE7a6Oi4IU46NR7a00Us4ufzLhWqUMO9rR5Y43ev98Aa3Cq+owNYnJOFz02byN8jFV6+0I1sbihiyaYBeR0hVvFAXvgwhkHcYjETU8MsztTUlJzLvjCfhmveK+t/QEtvPn7sfl5ZS8TW1NRpbsv+/kc0J21wcFhaWto8XsTivsYA18oDi/tFw4zogZXm5tb5xW32z0x46OGxJ2QzQxFLNhVNzS0a44mUOfYPZQhZLFzi4oSlqatvkOCwCA3PgJBFBwdRi6T87pZeZ6GIhXexr2+A5qQ9ejSkIsaTRSzS7B06clTjj61BGeKQS8vvmy28l6GhYQkKjXA86DfOF84bPNiEbGYoYsmmo6S0zOH0GDox/P/aDaaSWg4k20ecKc7XNkMk4twhvMA/MFhL1rrLMIAi1nXzdBFb39Coi9bgUcT3Hz9RiautnTmRR8fGNHwIon7hMxKG/4WERbLgBvEIKGLJpuRi7iV9GEN8LXxA60Ivw8rK6IlxhpKSMvE/EDKfGkqnYnfulmPJJwyR8NBstXFQxLpunixiUQgF+Xdxb+AZ8O6WbRpO1D8wYLbwXjATdSI1TbNlLHw2wnQGy8dXZ2MI8QQoYsmmBNNgiceSHRZCQMeGkIPaunqzNVmKwaFhybmYpyIWnllrWhaDgbPnsmV0dMxsuf5QxLpunihi+/oHJDUtfX4BFwz3LGYVkBuZiBQUXtGBqP0AX7/XxrlC/DshngJFLNm0jIyMSGR0rOMpsx075UBImNHpsTStszyoqZWDMXEaWwxxAFFrTT1ev3FTE/WvNxSxrpunidj7lZUSGBSq9ycEmTXgYp7oZyDF2Pbde4zv7/OhVjBkJsnKviBP57hmgHgOFLFkU9Pd06NJ8CF07B/aEGDRTOK9IuDNOpedo8IHq713GUIWXi8IhtCIg1JWfn9dc8tSxLpuniJiR0ZGBbl2cR8iJRSEK8JfwiKi5MGDWrMVqX5Qo889R8/CLdt2ypGjSczeQjwOiliy6amta5Adu2wJzj/48N6h6XfcMX2UO9PV3SMnUk/ZBOxOm8fLJiJ2S1zCYamsqjZbri0Usa7bZhexiO2sqKySkLCIee8rZgjwe0pqmopbYqO+/qGen8UEbHRcvDGYp4AlngdFLPEIbt26rV4aRxkLIGRPn8nUggnEeebm5jSuOCbukHpirdK1+rthWDxSVfVgTT2zFLGu22YWsY8Gh+TkqTS9zzBwsr7H+/0DtYDBkydzZkvS3z+gKfMchVXh3AWHhnPBG/FYKGKJx1Bw+Yp2eujwFj7I8Te8N2npGW5fZtUdmZyalrt3SzReFiEG6BiteFkI2/hDh+V+RaWMr0HMLEWs67YZRSymuy/lF0pAUKjeX7jPcL9BwB47niI9ve5bXW4jGBwa0gIwWLC18JkHQ+o8FDpobmkzWxPieVDEEo8CFWgQL2f/QIeQxcKGs1nnzZZkpUwZYva2IWYjomJUYFgeMuv3sMgoTX20mqvEKWJdt80kYhE6cMe4tyKNewuCFdccAha/h4RHyt17JSxiYsf4+LjGuTrK0IKwC4jY4tt3zNaEeCYUscSjmJmZlSPHjqtgtX+wW16dm8V8sL8ISKR+veimhJslgK10Pji3ELSh4QflwsVc6ejoNPdwHYpY120ziFjEqldVPzC+s0l6/1gzKbiPtu/aqxX4UHmKPA9Co5KOp2jVPfvnnArYnRSwxDugiCUeByrRoHIPvDiOHvBI+H2LD/gXZmJyUm7fuSeR0XE2AWsIEAwUIDoRvrHP198WN2uIFFdDDShiXTd3FrEQYbgvEo0BJ76TCFPBvWPFwMYfTpSa2jqzNVkIzh1Co/B8g+Bf+HzbaQ4A8gsKzdaEeDYUscQjgZDF9Laj0AKIIky1IacieXEmp6Y0ZjbBEB7W6nH8hEGUoFPFtUCVtda2dvW+OQtFrOu2EhGLGYyBR4PmX2sHCmfcuXtXYuIS5gWXdZ9AvGIR4f2KKhVq5INgQRsELDyw9gIWf+O7l5ObZ7YmxPOhiCUeC4Qscpuio1z4sIdBGKGqV01NrdmarAZ1dfUal+wXcEDPuzU9bIUa4PdDR45KweWrmsZrOUHrqojt7e2XkeFRTSs0PjahP0dHxx22Xcr6+x/JxMS0CkIc01GbldjAwKBxvCn9uRrHW8pWImJv3rot+3wDNC51Lejq6tYFWyhAgnsCpp5X477AvREdG6+vPTk5Ze5B7MF3BQIWQvUDAnYfsjfs1O2oZkiIt0ARSzya9o4OCTgQ7FDIovPc6+PHhOlrwKNHj+TqtesSZYgTeNqsxTrofHEt8DdWTscmHJZrN4qkqalFpqenzb2f4aqIhYArLb2v3l/E517IyZVCQzj3GtsgTB3tY29o193dK1mZZ6WhoVGP6ajdcjZmiOiRkTEZMI7X0tImGWcypbGx2eXjOWvOitiGh416LTBrAXGJ6myrweTkpFRWVmtICY6P645r+SxsYI+KVyzampqieF0KK4TAkQcWtmX7DjmVdsYQsPRgE++CIpZ4PC2trSpk0XHaP/xVyBodLEquktUHwrSuvkHz9KKyGsQrrgPEDMQtzj86ZnjFUUI4L79QKw9ZeS0rqqpdErFTUzPyT//0z/LXH/2ofPZzn5dPv/yK/PRnv1AP6ODgsMN9YNhuiUu0a21tl5c/8xnJM8QwPKgQtgtFsL0ghvcf+1n/7zeOd/NmsRQX35GJ8Um5fr1IPv63fyuX8gtkfHxq/hiO3pN1DLwf+9dxxpwRsf3G+8Xqf8szimtSUlpubl05yGDR2Ngk2RdydRYEi7Nwza1jW0I2/lCiel4dDVzI88ADe3oJAYvsBBFRsTI6yuIPxPugiCVeQWtbm/j4B+r0pX0nYAlZhhasLYODQ1JRWS0pqafEP9DmHYfAgbiBsMF1wP9gyBOKvKBxh45ox11bW79iEfvGG2/If/zHf0qTIeQgzFDVCELUEqmYzsff46Y4nZ6eleGRsfn/WyL204aIzc3Nk8nJaQ1LwP5oM/hoWP/X29ev+09NzsjIyLh0dHbLmLYbVi/s29/6lsTFJeg56DK2XblyzRCXbSqYh82Qh66uHuNYM/qaODY+K8If9PjG3yPG7/gffrf/rIvZciIWU/cYOFhx4+9u2Sa5l/LNrc4zNj6ui7CQvg65hK3riJ/WQAXX2cc3QAsYoC09hs4xt0QMLAznFVlC1iOemRB3hCKWeA3w6sHjh0Vd9p2BClkfP/UCkrUHHsvSsnI5dfqM+B8INq6B7/x0Nrx2ELXW3ypi6xpcErFBQcHmK0K0TYufMZA5lHDIJl7HpyQl+YTExMRKR0e3hASHqPf2zbf+p5w0hDbatBki9pVXXpH8/AIVpvt89ktm1jk9VnVVjezetVtTiUFcxsfGyTvv/Fi+8tV/kKiDUTI1PSPZ2Rfkw3/1V/L2t78tCfEJRtsu+c1vfif37pXIpPEe6wxh/dvf/R/52tfflO3btklnZ5e+blHRLXnvvffF19dPvvmtt+X3v/+DCupBU4A7Y8uJ2LPnsjW+0hJDEEvOLLrD1H9be7uGHaQZ1w+L9hZeL+v6WQv8kPv1siHcu7q7zSMQZ3j8ZPEYWOuaQcA+ooAlXgxFLPEqEKO3xxBM2wzxYd8poOPducdHbjGP7LqC4giNTc2SnXNRouMStMO2vHkvImLfeustefvttyUkJFQOBByQ9vZO+dO778kXvvBF9WzCk/r666+Ln5+/3L9fKX/4f3+QpKTjsmXrNvnEJz8l9Q2NGhMLEVtYcFmGRsY0NCHQFMbwqH7qE5+QTkPEVhoDpD/98Y9y+PAROXwkUT7zd38nN24UqQf586++agjVf5Obt4qlqblFt90uvi2TE9Pygx/8UH7wwx/J8eQUefXvPyu//tffyOzsE8m9mCd/+Rd/YQje30qyIbQ/ZxwjPCxCtzn6vI5sKRELUWmdW/xEtoBZBxkB4GVtbW2T8vsVkl94WQcdwaERZozrLhVY+r3Za4tzxTXD3whRyDx7TssWc6HRykEMLEJwlhOwGAwS4s1QxBKvA4JjNzyyhlCy7xzQAe/YxTyyGwViJLGSHdP/6MTh5UMqJlfCCb7z7e/IJz7+Cfnud74j/+v735cy45g1xnE+8+lPS3l5haYFQ3xqdXWtIRrm5KEhWiEYf/GL/y0f+9jH9D309vbNi1iEGnz1a1+XsIhIQfEoxLf+j9dek6bGZg1F6DIEb1raaXn3/S3y1x/5iJzPOi9PnjyVt77xDcnKOqefDwu6Pv+5z0l5WbnGyv63D31IKiqqdNv58xfkQ//1Q9rm2tXr8vLLL0tPT79u+/lPfiK7d+/R4zn6vI5sMRGLFFa2AZut+AdilRES8fBho+TkXtICA+kZZyUmPkHFKLIWQKBiStsSqTDsi//bPLC71eOKzBSYzUBBDOIaSFmHwcKSAjYyej5unBBvhiKWeCWIzdTQgkWELDr4K4aQQF5GsnGUlt/X4hSuLOz60pe+JPv3++pxrBhXxJkiZMDfP0B89vnIz3/2c/UUQmR+5ctfkV27dxu2Rz7+yU9Jadn9JUUsROgXXn9dQwCQ4eKtN9+SX/3yV3Lo0BEVytnnzuv7+MbXviapqadUKEOgvmaI2Mr7lRJ/6LC89NJfSG1NrYrgqqoHxt8v6WzB9Ws35JW/f0W9xzMzj+Vf3nlH9hnv90VFbHNLq+z3D5y/xxGnWlvfoNsgQP/zj++qMFWvqvkTbTW21fgJEYtqeBBXQaHhcjQpWbNL1BvHYHqsF2diYkKrly0bA0sPLCEKRSzxWiBk9+33dyhk0cHDEwJv4JMnzifnJ6uLilhDPLkiYhETGxAQqMfBWAQiEiIwMfGovPbaa/LNb35LMjLPqiCFGH3nxz/RtrgvPvPyK1JWXiE9Pb3yaUOQQlQODY/KF974ksTG2xZpFRZekdc//3l5NDAo//7v/1e+9MUv6v/BVwwBfd4Qxngf//DlL8vZs1n6f/XEvvqqlJeWabWzl/7LS1JcfFu3FRjH+/CHP6xpuBCqAE9sW1uHitgf/+hHqyJiW1rbNBTAEqZYYNfd06PbzmfnyO8NEQvPKoQqBCza4PsA4RsVEy8nT52Wy1euangHwkDI6tHXP6AFQyBU7Z9HMMsDyxhYQp5BEUu8GnimAoJC1MNk32nAE6JCNuOsxqiR9cfVPLHwbL7xxTfkq1/9qsa87jCu717jemIhVWdntyEWPyKvfvazmlUAWQF+97t/ky8a7dNOpcl7f/qTLsbKy8uXYeM1Mf1/+NARXaj1wx+9Y4jdH0taaqp8/3vfk4999KOG6GwVP/8A+e9/8zdyMuWEbHl/i/zlSy9pfCxiWL/99rflX3/9a/XcPjRELLy0xbeKZWJiUj2sb735pkRFRcmbX/+G/OpXvzbe+4zx2pfkk5/8pIpYHOOf//EfZdfOXTJniHFHn9eRLRZOgPhWnFPc3xCqCAMYGxuTIuM9hUVEScrJU5J1LluuF91UId/Q8NAQ8MOMbV1Durt7jOsQq88b++cQDP+HBxb3KyHkGRSxxOuBd2qxggjo6OEBST6RaoidSXMPsl64KmIRNhAbEyu//uUv5Rc//Zn8/Kc/ld/95reGgKtU72hUVLQcTTymKa6GBoelsalFtv55q/ziZz+TpKRkiYw4qCEEqNYFAXswIlKny0tLy402P9cY25joWM1+gKl0pMvat3effO+739UwBexz4UKOlnPNuZgrP/7hDyU2Nk6zEwQb+yD8YHx8Qrp7+jTDAQTxDkNQYjs8nFVV1RJpiBak3sJnOWQIYhwPKbscfV5HttTCrvzCK4YwstXeh0BKTUvXzwcBTdYXxBDD0+1oRsgaaKAcL3L6EkKehyKWEAMIWZTExFSqo44EQjYu4bD093MxxXryImVnrTyrliEuFmIT2yAGsd1qi3hZqzTt6KitTC3yvFrHgdjF73gP2s4sZQuDd2xgYEiPb+2L3LNoi31QrQv/w99oi9e23scj43Wxn2V4H/g/tluC1XaM1c0TC3ENjyvua5uQ3SH5hmgn60tVdY3G5kOoLvbcOZWeoQMMQsgHoYglxASLJcIjo7TjsO9QYOjokRy+vaPT3IOsNa6KWMsgGvV36+cyNt9+CUObxdqt9P+WOfO6K7WlRCxABoGIqBgVUFZu1xep1kVWRvHtO8Z599Hzbv+swfXAgBp5YmcYxkHIolDEErIAeFohZBeLTUOHv8/XXx6wKMK68KIi1pttORELOjq7dDsyD2A6G9PaWHxG1g54wXPz8vV8oyyv/TMGi+kwkEabp1h1SAhZFIpYQuyAkI2OTdAUQ5jSs+9krNg1JK8nawtFrOvmjIgFVgYIDNAweMtzofQscQ6EBSAtGQpFwNtq/2yBgMW1QAYIQsjyUMQS4gB0NukZmbJ1ic4Gnf75C7kyNTVt7kVWG4pY181ZEQtyLuZpbCZy4zITx9rQ09urKbTeN+OQ7Z8pGBxvNYwVAwlxHopYQhYBU3mY0oNH1sqXudDQESEpeeKx47qinKw+FLGu20pELOIuO7u6zb/IalPf0GhbOLpIvD0yo/gGBMnde6XmHoQQZ6CIJWQZim7eUi+JFUbwnJkriKNj47VyE1ldKGJdt5WIWLJ23Ci6Nb9w7gPPD8Pw/AiLPKgZUgghK4MilhAnuH3nri7ocpQKB4YYN1RCwopjsnpQxLpuFLEbC3LuopQvnhmLzeQgBhmp+1hGlhDXoIglxEk6Ojsl4mC0xrTZd0gwiK2tO3bLpYIClqpdJShiXTeK2I2jr6/fEKdHNBTJYUw9UmgZz5Fjx1NkgkVUCHEZilhCVgDqlh86clQ7IEeLM9BhIezgyNEkeldWAYpY140idmN4UFMrQWb8q6NnBO7n7bv3yuWr1+TpHFNoEfIiUMQSskKmpqbkfHaOhhAsNU0YGnFQauvqzb2IK1DEum4UsevL49nHcjHvkt6vDuPnDUNowR4fPykpLTP3IoS8CBSxhLgI4l/RMWHK0L6zgqEjQzLzS/mFMjfH8AJXoIh13Shi14/+gQE5mpSiVbYchQ9YA9vwyGh5yGIShKwaFLGEvAC1tfXqcV2swpeVTzb5ZKp0dfeYexFnoYh13Shi14cHD2rF/0DwovlfIWrxfEhKTpHBwSFzL0LIakARS8gLggpfhxOPaUe1mBcG8XF+AQfkXgnzQK4ES8Q2NDTK+PikClmaczY6Oi7t7Z0UsWsEckNnnss2vt/PqvjZG/6P7/+57ByZnZ019ySErBYUsYSsAqiHjnQ6O3Yvng8S/0dS8/SMszIxwRXJzmCJ2KKbxVJb91Cqq2tpTlpNbb1W4EJquGsUsatKU3OLREbHLj5wNQwDV//AIF3oRQhZGyhiCVlFKiqrxM/ouNCB2XdsMHR42BYTd0jqGhrMvchiwHP9py1b1aOF0AzaCs243/7w7ha5eu26eUbJi/DkyZzcKr5tfJd9dUC61Hf8aFIyq6ARssZQxBKyyrS1d2iNdHRyjrw0MNtiMB/Ju1RIr+wSDA0NS1V1tQ4OaK7bwMCAeUaJq/T09GpeV2tA5eh7jW2wnIt5Mjv72NyTELJWUMQSsgbMzMxI9oWLuqgLnZqjDs/y2ETFxsvDxiZzT0KIO4FMrghnweItfF8dLd5CXCxCC4JDw41BV41tR0LImkMRS8gaUlFZLYFBIYt2fjAIXWzLvZQv4/TKEuI2dPf0SPKJVP2OLhbrDq8sZl1Q4KS3r9/ckxCyHlDEErLG9PUPyKnTGUt6Za2O8GBMnDxsoleWkI1kbm5ObhbftqXO2rqY99VHw4L27veTgsIrLDVNyAZAEUvIOnH3bokEhYbL+9u2L+qVRae4x8dXY+rGxsfNPQkh60VjU7OWlt5qDDiX9r7ukriEIxoDTwjZGChiCVlHUNnn5KnT8wtAFusgEX4AwVtaVq4rogkha8vY2JhkZp2XPft8lwj/8dEZEww0L1+9JlNT0+behJCNgCKWkA3g7r1SORAcpmUqF/PKQuSiwzyecpKxdoSsEShCgHzECOVZLO8rDINLVOVC5pGm5lZzb0LIRkIRS8gGgRKUJ1LTdMpyMa+sxt0ZQtY34IBcyMlTbxEhZHXo6urWanv4jm3d4fg7CMNgE7GvhVeuaeYRQoh7QBFLyAbydO6plJSWS4BmMFjcK7sdXqCt2+VgdKyUld9niAEhLwAGkNk5uTo4hIBd6nuH0IKEI0elubnF3JsQ4i5QxBLiBvT3D0hqWrp6g7BgxFGHCrNiaROPHZeamjpzb0KIM6A8dNHNWxISFqGDQohUR98ziFps3+8fKPkFl+l9JcRNoYglxI1AbF5MXMKSeSk1xGDHTu2AT5/JkPYOro4mZCnm5p5KdU2tHDpyTMXpYuE7MGxD/GvKyVTp6uoxj0AIcUcoYglxM+D1yS+8rCuglyqSgAUo6JD3+fpLbl6+TpESQp6nrr5BEo8lG4NCWy5mR98lGITre3/eJqHhkVJ+v9LcmxDizlDEEuKmtLS2SeqpdBWr8Mw66nhhO3bbytcGhYTrwpORUS7+IqSjo1NOZ2TKbp/9S8a9WuWfffwCtWjB0NCweQRCiLtDEUuIm1N+v0LCIqO0I4a3yFFHDNu2a4+uog4Oi5DLV67L8MioeQRCvAcVr2cydCYDKbEWS5mlYTmmZxa5mzs6uswjEEI2CxSxhGwCJicn5UbRTfHxC1Cv0WIdMwyxtBCzWLxy+aohZodHzKMQ4rlgceTF3EviFxikYQFLfUcQ94rZjYiD0fKgptY8AiFks0ERS8gmAh11Zlb2vBdpUS/TPh/1zKKNzTOLMAN6ZonnAc8rxGvAgZBlZyswwENp53BDvN4qvi0TE5PmUQghmxGKWEI2IU3NLZJyMm1ZMQuD1wltgkJNMcswA7LJmZub06wc6RmZtgWQxv29WDYPGL4fWASJmQwsghyfmDCPRAjZzFDEErKJaXjYKIlJydpJY3p0scUrMIhZawEYxGxvb595FEI2B0+fPpWa2jq953FPLxdag21os3e/v2TnXJS+Pt7zhHgSFLGEbHLglap+UCMJh49qh72cmNUp1e271Ct1JvOsNDY1aR5NQtyV6elp4x6v1SIfCBdYbvYB29AGv6O0c1MTq20R4olQxBLiIaCjv1daKlEx8dqBQ8wu1dFDDED04ufRpGRd4IKKRoS4CwMDg3L12g2JjI51WrwitAC/nzyVrmE3hBDPhSKWEA9j1hCiJaVlhpiNMzr+fbqQxRmvFX6iWhjKcrJwwsaA6XJv5/Hjx9La1iYXcnLFPzDYNiDbuXvJ2QUVr9sgXn1tnleKV0K8AopYQjyU2dlZeVBbp15WWye/dPygLhIzBC9K2gYEhcjp9Aypb3goT548MY9I1gpknSi8fFUam5rN/3gfY2NjOviKTTg8v2BxqcVaMGs2AYu7IF69+fwR4o1QxBLi4TwxY2ZTTp4yRKzPfAiBI1EA27XXJg6wmhtiIi7hiFy7USSPHg2aRySrBc7ppfwCCQwONc73DqmsemBu8R7a2ts1Y0BwaPh8/talBlswa5EiqmxhwRbSbBFCvA+KWEK8iIeNzVqdaL9/gIpUeLqWm6aFYIDAgnc2PTNLauvqZWxs3DwicQUVrwWFciAkTD2OOMeo7V9WXmG28GwGBh5J0c1iSTiSKHv3+6kgXe5exDYIXJyviIMx6rnu6+s3j0gI8UYoYgnxQrq6uyX3Ur4mfcdCGIiopQQEzJbVwDbFizK4Z89lG6K4ScMWiHPgvGdmnVfxap/bFFWmCi9fMVt6HsMjI1JV/UDSz2SKb8ABvZeWi9eGWaEwmB2Iio2TolvFMj7OPK+EEIpYQryaiYkJ9YhBzFqrv5cKNYBB7FrTuWiLxWD5BZeltbVN032RD9LZ1SWZZ8+p1xFe7YXi1TJPFLFTU1MaypJ1PluCQsP1c2MBlrP3GM7VPl9/OZ5yUgUw7y9CyEIoYgkhhtiYlrr6BknPOKuiwVnvrCU2IMAg0KJiYrWQQnNLi8xxpb0hXrtVvOKcInxjKa8jBhCnz2SYe25eRkfHtCDB2XPnJTTioApWZ0JXYNZACvdURFSMnL9wUdrbGe9KCHEMRSwh5DlQyevGzVsSG39IYxAtj+tyAuRZ/Ox2/Rv7Y+rc22JokSarubnF+OznZC/Eq3n+7M+XvUG8paadNo+yuejp6ZWKyio5YwyCgsMijPtgz3y4hNP3jXGesFDryNEkKS0rl4mJSfPohBDiGIpYQohDpmdmdSr4TGaWBAaFqCiB0FouhhGGNpquyxQyYRFRcvpMph4POWg9MW0XHM+19Q2SlHJShduW7c6JV8swYICAQ55UdwcCs7WtXa5evyFJySfUC4/3D3PWg4/7AgOeHca9gnAWLNRC2AUhhDgLRSwhZFmGhoflVvFtFVkQIdYq8Z3LiBUYBAuEDTy6ELcod3s48ZhczLsk9yurPKKwAvLpQszhfDgr9O0N5ygm7pDMzMyYR3Uf4F3GdSq/XyFpZzJ0YRres+Wpd/bzQtSjPfYLCgnXUIsHNXUyO+v+wp0Q4n5QxBJCnAYLazo6u6Sg8IrEH05UYYKFOhBgzggZCFq0g4hBHC28cYFBoZJ84pTkF17WafjNJGrr6k3xanwmV8WrZTiHsfGH3UbE9g8MSGVVteTlF2gBAv8DwbLN8p4aYhSfdTmPKwzX2BK7yEqA83X7zl0ZGRk1X4kQQlyDIpYQ4hIICWhqalbxGRUbL3t8sPJ+u9OCFmZNK1siB4UWsIo9/tARuXAxTx7U1KqYmpx0n/hIeCUR53vseIqKuRcVr5bhvMUnJG5IyjLELLe0tMrN4tuSdS5bzz8KMOCzWYv8thuf1RnRijY4L7imuB/8g0K0alxJSRnzuhJCVhWKWELICzMzM2uIoDa5fOWqxCUcnk9gb001OyN+YGgLUQvxBBEE8eTrf0BFMoo0XLl2Q6taoUwrXnM90ZhXFa8nVlW8WoZjQsCv9SI4pFXr7++XyuoHmkniWHKKxqRCpG7dsfu5WGZH79PecG2twYjNS7tP9vsFalqs23fuaWEDQghZCyhiCSGrCsrctpmLflDPHumlIHAQdgBhuhLhB3GE9hCzWL1uJcfHMSFsUw1hC+Fc/aBWCy8MD4+op3Q1eTz7WD3CKl6N14Zn0llRvhLD59rj4ytDQ6sTTjE9PS29fX3S2NQsd+6WyLnsHC09DA8rzh9eTz2txnnF9VnpZ7L2tzzvyEqQkZmlWQo8Ic6ZEOL+UMQSQtYUeE3vV1Rpuq2D0bGml/aZp3Ul4gltFwpbiCjE1toEoJ8KtMioGBXPF/Py5eatYg156OntU4E7u4KV/5jWr6is1kVolnd4LcSrZbbP4GsIwEHzHSwPKlf1Gee3s7NLc7Pi80JInjiVJmERB8UvMEjPN947vKQYBCyMZ13J57FCBGA43n7/QA07uHa9SDMVjI2zFDEhZH2hiCWErBuTk1O21EzXbkhi0nEJCYtQQfWeIbAgjhYKLEdCajGzhC3EJsStJbRQ8Qn/9w8MlpDwSImJT5Ck5BTJyb0klwoua7WysvL7xntqU68lhBiEIRY0qXg13g+E31qKV8ssUYnKVHgPMHg0u7q65OHDJrl7r0TyC6/oorpTp89IwuFEiYiKloCgUM2vagvfsA0OYFiE9SLnE/viXOpxjXOJhV3RsfFy/kKOVBiDku6eXo9MlUYI2TxQxBJCNgzEf9bVNciVq9c1hjIgKES9kRBP8LBCjFkibKVCzDJLkEHg4njPCT3jdSD2sG3Pfj+NDUWlKOyH7bv2rl7Mq7MWGn5Q30NEVKyeD7y37btsgtJ63xDoMPwPn23HHufz0dqbdW6377adHwwo8HrwtEbHJsiFi7lafABFMFj2lRDiTlDEEkLcBojah03NuiAo6/wF9Tbu9fFbIEB3zAs3R4JspWYJONi8J9cw/O2o/XqY9R6sz7nwPTpqv1Lbuce2CMsSwvgdnz04NEIOJybpeYdoRVaIx4/paSWEuC8UsYQQtwVxqUjLdL+iUgouX5GUk6nqpdzvf8D0SNo8k7CFos+RePMmwzmAMMX52Grnwd1lbMciLAwQIFiL79yVltY2YwAxRtFKCNlUUMQSQjYViBVFrf76hga5XnRTzl+4qJXEQs2FTMgggFAEeG0tkWt5G180NMFdzPoMllDF51ORapgu4DI+9979/uIbEKQL3dLSM/Q8ochAW3uHDA0Ny9wqZ3EghJD1hiKWEOIRoJ5/V3ePrtIvvnNHci/l6wIopMbCoi6kldq9F6vsbWEDz4TuTvVWuosXd6FAhXfZMrxPxKvifSPcAGEByDyAKlhhkVFyLPmEnEpL1+IT5RUV0tzcKp1d3fJ4BRkZCCFkM0ERSwjxaJA3dmpqyhC43VJbW6/pvu6VlM2L3OQTqZoqCqvvIWYhbOHV3EhBi9f28QuQqJh4NZSjRY7X89k5kme877slpVqsoKW1VYaGRjTsYrXz4xJCiLtDEUsI8XpQ/WtwaEjjQ0+eSjOEY5wKSfXSmuEI6yFqIaAR94tFVcgXC/ENm56eMd8pIYQQC4pYQgixY2pqWhc75eblqxc0MChUxSxEJnLHYqrfkQh9UUM8a3pGpvkuCCGELAVFLCGELMOjR4NSfr9CUtPS5UBImOay1XhaQ9hai8UcidKVGjy/WKTGIgKEELI8FLGEELICJiYn1UtbeOWqxtJicRXCDSBAsQDrRQQtvL04JmJcCSGELA1FLCGEuAhW/iOPbUVllaRnntX8q1YmAfxExgNHYnUxwz4o7Yo4WEIIIUtDEUsIIavEyOio1Dc8lGvXiyT+cKJmGHh/2w5bLK0Ti8PQJig0XBeZEUIIWRqKWEIIWQMQ19rZ1SV37pZoZazQ8Ej1zGLxlhV2YC9qIWLhzR0aHjaPQgghZDEoYgkhZB0YGxuXmppayb1UoCm8UFkMYtby0loiFoUZhkdGzL0IIYQsBkUsIYSsM4h5be/olOLbyEt7WgKCQlXMohoXKov19Q+YLQkhhCwGRSwhhGwwA48GpbKqWi7m5ktEVIy0t3eYWwghhCwGRSwhhLgZc3Nz5m+EEEIcI/L/AVJsqJ3CQYyEAAAAAElFTkSuQmCC;" vertex="1" parent="1">
          <mxGeometry x="90" y="320" width="917.66" height="610" as="geometry" />
        </mxCell>
      </root>
    </mxGraphModel>
  </diagram>
  <diagram name="Phase 1 (Business &amp; Data Understanding)" id="d9b1e647-80fa-b4a2-5024-87a742678bcc">
    <mxGraphModel dx="895" dy="1214" grid="1" gridSize="10" guides="1" tooltips="1" connect="1" arrows="1" fold="1" page="1" pageScale="1" pageWidth="1100" pageHeight="850" background="none" math="0" shadow="0">
      <root>
        <mxCell id="0" />
        <mxCell id="1" parent="0" />
        <mxCell id="sqS4oOe3S0uzVa8D42Ye-2" value="" style="endArrow=none;dashed=1;html=1;rounded=0;" parent="1" target="lwLIdHKC0bjOfPZDEOdK-14" edge="1">
          <mxGeometry width="50" height="50" relative="1" as="geometry">
            <mxPoint x="220" y="439.52" as="sourcePoint" />
            <mxPoint x="900" y="439.96108108108115" as="targetPoint" />
          </mxGeometry>
        </mxCell>
        <mxCell id="57fe6abec08f04cb-1" value="&lt;p&gt;&lt;font style=&quot;font-size: 16px;&quot;&gt;Business &amp;amp; Data Understanding&lt;/font&gt;&lt;/p&gt;" style="shape=step;whiteSpace=wrap;html=1;fontSize=28;fillColor=#d5e8d4;strokeColor=#82b366;expand=0;" parent="1" vertex="1">
          <mxGeometry x="90" y="180" width="170" height="80" as="geometry" />
        </mxCell>
        <mxCell id="57fe6abec08f04cb-3" value="&lt;font style=&quot;font-size: 18px;&quot;&gt;Data &lt;br&gt;Preperation&lt;/font&gt;" style="shape=step;whiteSpace=wrap;html=1;fontSize=28;" parent="1" vertex="1">
          <mxGeometry x="250" y="180" width="170" height="80" as="geometry" />
        </mxCell>
        <mxCell id="57fe6abec08f04cb-4" value="&lt;font style=&quot;font-size: 18px;&quot;&gt;Modelling&lt;/font&gt;" style="shape=step;whiteSpace=wrap;html=1;fontSize=28;" parent="1" vertex="1">
          <mxGeometry x="410" y="180" width="170" height="80" as="geometry" />
        </mxCell>
        <mxCell id="57fe6abec08f04cb-5" value="&lt;font style=&quot;font-size: 18px;&quot;&gt;Evaluation&lt;/font&gt;" style="shape=step;whiteSpace=wrap;html=1;fontSize=28;" parent="1" vertex="1">
          <mxGeometry x="570" y="180" width="170" height="80" as="geometry" />
        </mxCell>
        <mxCell id="57fe6abec08f04cb-6" value="&lt;font style=&quot;font-size: 18px;&quot;&gt;Deployment&lt;/font&gt;" style="shape=step;whiteSpace=wrap;html=1;fontSize=28;" parent="1" vertex="1">
          <mxGeometry x="730" y="180" width="170" height="80" as="geometry" />
        </mxCell>
        <mxCell id="lwLIdHKC0bjOfPZDEOdK-8" value="" style="endArrow=none;html=1;rounded=0;entryX=0.414;entryY=1.008;entryDx=0;entryDy=0;entryPerimeter=0;exitX=0.5;exitY=0;exitDx=0;exitDy=0;" parent="1" source="QmmS1a_GeOVvlNbY_8Lc-5" target="57fe6abec08f04cb-1" edge="1">
          <mxGeometry width="50" height="50" relative="1" as="geometry">
            <mxPoint x="330" y="380" as="sourcePoint" />
            <mxPoint x="380" y="330" as="targetPoint" />
          </mxGeometry>
        </mxCell>
        <mxCell id="lwLIdHKC0bjOfPZDEOdK-4" value="Define Scope of ML Application" style="shape=process;whiteSpace=wrap;html=1;backgroundOutline=1;fillColor=#d5e8d4;strokeColor=#82b366;" parent="1" vertex="1">
          <mxGeometry x="100" y="330" width="120" height="60" as="geometry" />
        </mxCell>
        <mxCell id="lwLIdHKC0bjOfPZDEOdK-5" value="Define Success Criterias" style="shape=process;whiteSpace=wrap;html=1;backgroundOutline=1;fillColor=#d5e8d4;strokeColor=#82b366;" parent="1" vertex="1">
          <mxGeometry x="100" y="410" width="120" height="60" as="geometry" />
        </mxCell>
        <mxCell id="lwLIdHKC0bjOfPZDEOdK-6" value="Determine Feasibility" style="shape=process;whiteSpace=wrap;html=1;backgroundOutline=1;fillColor=#d5e8d4;strokeColor=#82b366;glass=0;shadow=0;" parent="1" vertex="1">
          <mxGeometry x="100" y="490" width="120" height="60" as="geometry" />
        </mxCell>
        <mxCell id="lwLIdHKC0bjOfPZDEOdK-7" value="Determine Data Collection" style="shape=process;whiteSpace=wrap;html=1;backgroundOutline=1;fillColor=#d5e8d4;strokeColor=#82b366;" parent="1" vertex="1">
          <mxGeometry x="100" y="580" width="120" height="60" as="geometry" />
        </mxCell>
        <mxCell id="lwLIdHKC0bjOfPZDEOdK-12" value="Business Success Criteria" style="rounded=1;whiteSpace=wrap;html=1;" parent="1" vertex="1">
          <mxGeometry x="260" y="410" width="120" height="60" as="geometry" />
        </mxCell>
        <mxCell id="lwLIdHKC0bjOfPZDEOdK-13" value="ML Success Criteria" style="rounded=1;whiteSpace=wrap;html=1;" parent="1" vertex="1">
          <mxGeometry x="420" y="410" width="120" height="60" as="geometry" />
        </mxCell>
        <mxCell id="lwLIdHKC0bjOfPZDEOdK-14" value="Economic Success Criteria" style="rounded=1;whiteSpace=wrap;html=1;" parent="1" vertex="1">
          <mxGeometry x="580" y="410" width="120" height="60" as="geometry" />
        </mxCell>
        <mxCell id="lwLIdHKC0bjOfPZDEOdK-18" value="Legal Constraints" style="rounded=1;whiteSpace=wrap;html=1;" parent="1" vertex="1">
          <mxGeometry x="420" y="490" width="120" height="60" as="geometry" />
        </mxCell>
        <mxCell id="lwLIdHKC0bjOfPZDEOdK-20" value="Data version control" style="rounded=1;whiteSpace=wrap;html=1;" parent="1" vertex="1">
          <mxGeometry x="420" y="580" width="120" height="60" as="geometry" />
        </mxCell>
        <mxCell id="sqS4oOe3S0uzVa8D42Ye-1" value="" style="endArrow=none;dashed=1;html=1;rounded=0;entryX=1;entryY=0.5;entryDx=0;entryDy=0;" parent="1" target="lwLIdHKC0bjOfPZDEOdK-9" edge="1">
          <mxGeometry width="50" height="50" relative="1" as="geometry">
            <mxPoint x="220" y="360" as="sourcePoint" />
            <mxPoint x="580" y="360" as="targetPoint" />
          </mxGeometry>
        </mxCell>
        <mxCell id="lwLIdHKC0bjOfPZDEOdK-9" value="Scope of ML Application" style="rounded=1;whiteSpace=wrap;html=1;" parent="1" vertex="1">
          <mxGeometry x="260" y="330" width="120" height="60" as="geometry" />
        </mxCell>
        <mxCell id="sqS4oOe3S0uzVa8D42Ye-3" value="" style="endArrow=none;dashed=1;html=1;rounded=0;exitX=1;exitY=0.5;exitDx=0;exitDy=0;entryX=0;entryY=0.5;entryDx=0;entryDy=0;" parent="1" source="lwLIdHKC0bjOfPZDEOdK-6" target="lwLIdHKC0bjOfPZDEOdK-18" edge="1">
          <mxGeometry width="50" height="50" relative="1" as="geometry">
            <mxPoint x="610" y="500" as="sourcePoint" />
            <mxPoint x="660" y="450" as="targetPoint" />
          </mxGeometry>
        </mxCell>
        <mxCell id="lwLIdHKC0bjOfPZDEOdK-17" value="Applicability of ML Technology" style="rounded=1;whiteSpace=wrap;html=1;" parent="1" vertex="1">
          <mxGeometry x="260" y="490" width="120" height="60" as="geometry" />
        </mxCell>
        <mxCell id="sqS4oOe3S0uzVa8D42Ye-4" value="" style="endArrow=none;dashed=1;html=1;rounded=0;entryX=0;entryY=0.5;entryDx=0;entryDy=0;" parent="1" target="lwLIdHKC0bjOfPZDEOdK-20" edge="1">
          <mxGeometry width="50" height="50" relative="1" as="geometry">
            <mxPoint x="220" y="610" as="sourcePoint" />
            <mxPoint x="270" y="560" as="targetPoint" />
          </mxGeometry>
        </mxCell>
        <mxCell id="lwLIdHKC0bjOfPZDEOdK-19" value="Data Collection Plan" style="rounded=1;whiteSpace=wrap;html=1;" parent="1" vertex="1">
          <mxGeometry x="260" y="580" width="120" height="60" as="geometry" />
        </mxCell>
        <mxCell id="QmmS1a_GeOVvlNbY_8Lc-1" value="&lt;p&gt;&lt;span style=&quot;font-size: 18px; background-color: initial;&quot;&gt;Monitoring &lt;br&gt;&amp;amp; Maintenance&lt;/span&gt;&lt;/p&gt;" style="shape=step;whiteSpace=wrap;html=1;fontSize=28;" parent="1" vertex="1">
          <mxGeometry x="890" y="180" width="170" height="80" as="geometry" />
        </mxCell>
        <mxCell id="QmmS1a_GeOVvlNbY_8Lc-3" value="Requirements of Application" style="rounded=1;whiteSpace=wrap;html=1;" parent="1" vertex="1">
          <mxGeometry x="580" y="490" width="120" height="60" as="geometry" />
        </mxCell>
        <mxCell id="QmmS1a_GeOVvlNbY_8Lc-4" value="" style="endArrow=none;dashed=1;html=1;rounded=0;" parent="1" edge="1">
          <mxGeometry width="50" height="50" relative="1" as="geometry">
            <mxPoint x="540" y="520" as="sourcePoint" />
            <mxPoint x="580" y="520" as="targetPoint" />
          </mxGeometry>
        </mxCell>
        <mxCell id="QmmS1a_GeOVvlNbY_8Lc-5" value="Perform Data Quality Verfication" style="shape=process;whiteSpace=wrap;html=1;backgroundOutline=1;fillColor=#d5e8d4;strokeColor=#82b366;" parent="1" vertex="1">
          <mxGeometry x="100" y="670" width="120" height="60" as="geometry" />
        </mxCell>
        <mxCell id="QmmS1a_GeOVvlNbY_8Lc-9" value="" style="endArrow=none;dashed=1;html=1;rounded=0;" parent="1" source="QmmS1a_GeOVvlNbY_8Lc-5" edge="1">
          <mxGeometry width="50" height="50" relative="1" as="geometry">
            <mxPoint x="550" y="700" as="sourcePoint" />
            <mxPoint x="590" y="700" as="targetPoint" />
          </mxGeometry>
        </mxCell>
        <mxCell id="QmmS1a_GeOVvlNbY_8Lc-6" value="Data Requirements" style="rounded=1;whiteSpace=wrap;html=1;" parent="1" vertex="1">
          <mxGeometry x="420" y="670" width="120" height="60" as="geometry" />
        </mxCell>
        <mxCell id="QmmS1a_GeOVvlNbY_8Lc-8" value="Data Verification" style="rounded=1;whiteSpace=wrap;html=1;" parent="1" vertex="1">
          <mxGeometry x="580" y="670" width="120" height="60" as="geometry" />
        </mxCell>
        <mxCell id="QmmS1a_GeOVvlNbY_8Lc-7" value="Data Description" style="rounded=1;whiteSpace=wrap;html=1;" parent="1" vertex="1">
          <mxGeometry x="260" y="670" width="120" height="60" as="geometry" />
        </mxCell>
      </root>
    </mxGraphModel>
  </diagram>
  <diagram id="CcFJrviAsAT42baytzyv" name="Phase 2 (Data Preperation)">
    <mxGraphModel dx="806" dy="1197" grid="1" gridSize="10" guides="1" tooltips="1" connect="1" arrows="1" fold="1" page="1" pageScale="1" pageWidth="827" pageHeight="1169" math="0" shadow="0">
      <root>
        <mxCell id="0" />
        <mxCell id="1" parent="0" />
        <mxCell id="SDM-nLwwI1ouqAaWvdd3-31" value="" style="endArrow=none;dashed=1;html=1;rounded=0;entryX=1;entryY=0.5;entryDx=0;entryDy=0;" parent="1" target="SDM-nLwwI1ouqAaWvdd3-43" edge="1">
          <mxGeometry width="50" height="50" relative="1" as="geometry">
            <mxPoint x="230" y="449.52" as="sourcePoint" />
            <mxPoint x="590" y="449.93142857142857" as="targetPoint" />
          </mxGeometry>
        </mxCell>
        <mxCell id="SDM-nLwwI1ouqAaWvdd3-32" value="&lt;p&gt;&lt;font style=&quot;font-size: 16px;&quot;&gt;Business &amp;amp; Data Understanding&lt;/font&gt;&lt;/p&gt;" style="shape=step;whiteSpace=wrap;html=1;fontSize=28;expand=0;" parent="1" vertex="1">
          <mxGeometry x="100" y="190" width="170" height="80" as="geometry" />
        </mxCell>
        <mxCell id="SDM-nLwwI1ouqAaWvdd3-33" value="&lt;font style=&quot;font-size: 18px;&quot;&gt;Data &lt;br&gt;Preperation&lt;/font&gt;" style="shape=step;whiteSpace=wrap;html=1;fontSize=28;fillColor=#d5e8d4;strokeColor=#82b366;" parent="1" vertex="1">
          <mxGeometry x="260" y="190" width="170" height="80" as="geometry" />
        </mxCell>
        <mxCell id="SDM-nLwwI1ouqAaWvdd3-34" value="&lt;font style=&quot;font-size: 18px;&quot;&gt;Modelling&lt;/font&gt;" style="shape=step;whiteSpace=wrap;html=1;fontSize=28;" parent="1" vertex="1">
          <mxGeometry x="420" y="190" width="170" height="80" as="geometry" />
        </mxCell>
        <mxCell id="SDM-nLwwI1ouqAaWvdd3-35" value="&lt;font style=&quot;font-size: 18px;&quot;&gt;Evaluation&lt;/font&gt;" style="shape=step;whiteSpace=wrap;html=1;fontSize=28;" parent="1" vertex="1">
          <mxGeometry x="580" y="190" width="170" height="80" as="geometry" />
        </mxCell>
        <mxCell id="SDM-nLwwI1ouqAaWvdd3-36" value="&lt;font style=&quot;font-size: 18px;&quot;&gt;Deployment&lt;/font&gt;" style="shape=step;whiteSpace=wrap;html=1;fontSize=28;" parent="1" vertex="1">
          <mxGeometry x="740" y="190" width="170" height="80" as="geometry" />
        </mxCell>
        <mxCell id="SDM-nLwwI1ouqAaWvdd3-37" value="" style="endArrow=none;html=1;rounded=0;exitX=0.5;exitY=1;exitDx=0;exitDy=0;edgeStyle=orthogonalEdgeStyle;entryX=0.5;entryY=1;entryDx=0;entryDy=0;" parent="1" source="SDM-nLwwI1ouqAaWvdd3-41" target="SDM-nLwwI1ouqAaWvdd3-33" edge="1">
          <mxGeometry width="50" height="50" relative="1" as="geometry">
            <mxPoint x="170" y="680" as="sourcePoint" />
            <mxPoint x="170" y="290" as="targetPoint" />
            <Array as="points">
              <mxPoint x="170" y="310" />
              <mxPoint x="345" y="310" />
            </Array>
          </mxGeometry>
        </mxCell>
        <mxCell id="SDM-nLwwI1ouqAaWvdd3-38" value="Select Data" style="shape=process;whiteSpace=wrap;html=1;backgroundOutline=1;fillColor=#d5e8d4;strokeColor=#82b366;" parent="1" vertex="1">
          <mxGeometry x="110" y="340" width="120" height="60" as="geometry" />
        </mxCell>
        <mxCell id="SDM-nLwwI1ouqAaWvdd3-39" value="Clean Data" style="shape=process;whiteSpace=wrap;html=1;backgroundOutline=1;fillColor=#d5e8d4;strokeColor=#82b366;" parent="1" vertex="1">
          <mxGeometry x="110" y="420" width="120" height="60" as="geometry" />
        </mxCell>
        <mxCell id="SDM-nLwwI1ouqAaWvdd3-40" value="Construct Data" style="shape=process;whiteSpace=wrap;html=1;backgroundOutline=1;fillColor=#d5e8d4;strokeColor=#82b366;glass=0;shadow=0;" parent="1" vertex="1">
          <mxGeometry x="110" y="500" width="120" height="60" as="geometry" />
        </mxCell>
        <mxCell id="SDM-nLwwI1ouqAaWvdd3-41" value="Standardize Data" style="shape=process;whiteSpace=wrap;html=1;backgroundOutline=1;fillColor=#d5e8d4;strokeColor=#82b366;" parent="1" vertex="1">
          <mxGeometry x="110" y="590" width="120" height="60" as="geometry" />
        </mxCell>
        <mxCell id="SDM-nLwwI1ouqAaWvdd3-42" value="Noise Reduction" style="rounded=1;whiteSpace=wrap;html=1;" parent="1" vertex="1">
          <mxGeometry x="270" y="420" width="120" height="60" as="geometry" />
        </mxCell>
        <mxCell id="SDM-nLwwI1ouqAaWvdd3-43" value="Data Imputation" style="rounded=1;whiteSpace=wrap;html=1;" parent="1" vertex="1">
          <mxGeometry x="430" y="420" width="120" height="60" as="geometry" />
        </mxCell>
        <mxCell id="SDM-nLwwI1ouqAaWvdd3-45" value="Data Augmentation" style="rounded=1;whiteSpace=wrap;html=1;" parent="1" vertex="1">
          <mxGeometry x="430" y="500" width="120" height="60" as="geometry" />
        </mxCell>
        <mxCell id="SDM-nLwwI1ouqAaWvdd3-47" value="" style="endArrow=none;dashed=1;html=1;rounded=0;entryX=0;entryY=0.5;entryDx=0;entryDy=0;" parent="1" target="SDM-nLwwI1ouqAaWvdd3-63" edge="1">
          <mxGeometry width="50" height="50" relative="1" as="geometry">
            <mxPoint x="230" y="370" as="sourcePoint" />
            <mxPoint x="390" y="370" as="targetPoint" />
          </mxGeometry>
        </mxCell>
        <mxCell id="SDM-nLwwI1ouqAaWvdd3-49" value="" style="endArrow=none;dashed=1;html=1;rounded=0;exitX=1;exitY=0.5;exitDx=0;exitDy=0;entryX=0;entryY=0.5;entryDx=0;entryDy=0;" parent="1" source="SDM-nLwwI1ouqAaWvdd3-40" target="SDM-nLwwI1ouqAaWvdd3-45" edge="1">
          <mxGeometry width="50" height="50" relative="1" as="geometry">
            <mxPoint x="620" y="510" as="sourcePoint" />
            <mxPoint x="670" y="460" as="targetPoint" />
          </mxGeometry>
        </mxCell>
        <mxCell id="SDM-nLwwI1ouqAaWvdd3-50" value="Feature Engineering" style="rounded=1;whiteSpace=wrap;html=1;" parent="1" vertex="1">
          <mxGeometry x="270" y="500" width="120" height="60" as="geometry" />
        </mxCell>
        <mxCell id="SDM-nLwwI1ouqAaWvdd3-53" value="&lt;p&gt;&lt;span style=&quot;font-size: 18px; background-color: initial;&quot;&gt;Monitoring &lt;br&gt;&amp;amp; Maintenance&lt;/span&gt;&lt;/p&gt;" style="shape=step;whiteSpace=wrap;html=1;fontSize=28;" parent="1" vertex="1">
          <mxGeometry x="900" y="190" width="170" height="80" as="geometry" />
        </mxCell>
        <mxCell id="SDM-nLwwI1ouqAaWvdd3-61" value="Data Selection" style="rounded=1;whiteSpace=wrap;html=1;" parent="1" vertex="1">
          <mxGeometry x="270" y="340" width="120" height="60" as="geometry" />
        </mxCell>
        <mxCell id="SDM-nLwwI1ouqAaWvdd3-62" value="Feature Selection" style="rounded=1;whiteSpace=wrap;html=1;" parent="1" vertex="1">
          <mxGeometry x="430" y="340" width="120" height="60" as="geometry" />
        </mxCell>
        <mxCell id="SDM-nLwwI1ouqAaWvdd3-63" value="Identified &lt;br&gt;unbalanced &lt;br&gt;Classes&amp;nbsp;" style="rounded=1;whiteSpace=wrap;html=1;" parent="1" vertex="1">
          <mxGeometry x="590" y="340" width="120" height="60" as="geometry" />
        </mxCell>
        <mxCell id="SDM-nLwwI1ouqAaWvdd3-65" value="" style="endArrow=none;dashed=1;html=1;rounded=0;" parent="1" target="SDM-nLwwI1ouqAaWvdd3-66" edge="1">
          <mxGeometry width="50" height="50" relative="1" as="geometry">
            <mxPoint x="230" y="620" as="sourcePoint" />
            <mxPoint x="280" y="570" as="targetPoint" />
          </mxGeometry>
        </mxCell>
        <mxCell id="SDM-nLwwI1ouqAaWvdd3-66" value="Normalization" style="rounded=1;whiteSpace=wrap;html=1;" parent="1" vertex="1">
          <mxGeometry x="430" y="590" width="120" height="60" as="geometry" />
        </mxCell>
        <mxCell id="SDM-nLwwI1ouqAaWvdd3-52" value="Standardized Data/File Format" style="rounded=1;whiteSpace=wrap;html=1;" parent="1" vertex="1">
          <mxGeometry x="270" y="590" width="120" height="60" as="geometry" />
        </mxCell>
      </root>
    </mxGraphModel>
  </diagram>
  <diagram id="N0slErTbb-kS49duZlRa" name="Phase 3 (Modelling)">
    <mxGraphModel dx="1175" dy="1197" grid="1" gridSize="10" guides="1" tooltips="1" connect="1" arrows="1" fold="1" page="1" pageScale="1" pageWidth="827" pageHeight="1169" math="0" shadow="0">
      <root>
        <mxCell id="0" />
        <mxCell id="1" parent="0" />
        <mxCell id="WACvxWsWty3FwiPhD94O-1" value="" style="endArrow=none;dashed=1;html=1;rounded=0;entryX=1;entryY=0.5;entryDx=0;entryDy=0;" parent="1" target="WACvxWsWty3FwiPhD94O-13" edge="1">
          <mxGeometry width="50" height="50" relative="1" as="geometry">
            <mxPoint x="220" y="519.52" as="sourcePoint" />
            <mxPoint x="900" y="519.9610810810811" as="targetPoint" />
          </mxGeometry>
        </mxCell>
        <mxCell id="WACvxWsWty3FwiPhD94O-2" value="&lt;p style=&quot;line-height: 90%; font-size: 17px;&quot;&gt;&lt;font style=&quot;font-size: 17px;&quot;&gt;Data &lt;br&gt;Understanding&lt;/font&gt;&lt;/p&gt;" style="shape=step;whiteSpace=wrap;html=1;fontSize=28;" parent="1" vertex="1">
          <mxGeometry x="240" y="180" width="170" height="80" as="geometry" />
        </mxCell>
        <mxCell id="WACvxWsWty3FwiPhD94O-3" value="&lt;p style=&quot;line-height: 90%;&quot;&gt;&lt;font style=&quot;font-size: 17px;&quot;&gt;Business Understanding&lt;/font&gt;&lt;/p&gt;" style="shape=step;whiteSpace=wrap;html=1;fontSize=28;" parent="1" vertex="1">
          <mxGeometry x="90" y="180" width="170" height="80" as="geometry" />
        </mxCell>
        <mxCell id="WACvxWsWty3FwiPhD94O-4" value="&lt;font style=&quot;font-size: 18px;&quot;&gt;Data &lt;br&gt;Preperation&lt;/font&gt;" style="shape=step;whiteSpace=wrap;html=1;fontSize=28;fillColor=#d5e8d4;strokeColor=#82b366;" parent="1" vertex="1">
          <mxGeometry x="390" y="180" width="170" height="80" as="geometry" />
        </mxCell>
        <mxCell id="WACvxWsWty3FwiPhD94O-5" value="&lt;font style=&quot;font-size: 18px;&quot;&gt;Modelling&lt;/font&gt;" style="shape=step;whiteSpace=wrap;html=1;fontSize=28;" parent="1" vertex="1">
          <mxGeometry x="540" y="180" width="170" height="80" as="geometry" />
        </mxCell>
        <mxCell id="WACvxWsWty3FwiPhD94O-6" value="&lt;font style=&quot;font-size: 18px;&quot;&gt;Evaluation&lt;/font&gt;" style="shape=step;whiteSpace=wrap;html=1;fontSize=28;" parent="1" vertex="1">
          <mxGeometry x="690" y="180" width="170" height="80" as="geometry" />
        </mxCell>
        <mxCell id="WACvxWsWty3FwiPhD94O-7" value="&lt;font style=&quot;font-size: 18px;&quot;&gt;Deployment&lt;/font&gt;" style="shape=step;whiteSpace=wrap;html=1;fontSize=28;" parent="1" vertex="1">
          <mxGeometry x="840" y="180" width="170" height="80" as="geometry" />
        </mxCell>
        <mxCell id="WACvxWsWty3FwiPhD94O-8" value="" style="endArrow=none;html=1;rounded=0;exitX=0.5;exitY=0;exitDx=0;exitDy=0;edgeStyle=orthogonalEdgeStyle;entryX=0.5;entryY=1;entryDx=0;entryDy=0;" parent="1" source="WACvxWsWty3FwiPhD94O-12" target="WACvxWsWty3FwiPhD94O-4" edge="1">
          <mxGeometry width="50" height="50" relative="1" as="geometry">
            <mxPoint x="330" y="380" as="sourcePoint" />
            <mxPoint x="160" y="300" as="targetPoint" />
            <Array as="points">
              <mxPoint x="160" y="290" />
              <mxPoint x="475" y="290" />
            </Array>
          </mxGeometry>
        </mxCell>
        <mxCell id="WACvxWsWty3FwiPhD94O-9" value="Select Data" style="shape=process;whiteSpace=wrap;html=1;backgroundOutline=1;fillColor=#d5e8d4;strokeColor=#82b366;" parent="1" vertex="1">
          <mxGeometry x="100" y="410" width="120" height="60" as="geometry" />
        </mxCell>
        <mxCell id="WACvxWsWty3FwiPhD94O-10" value="Clean Data" style="shape=process;whiteSpace=wrap;html=1;backgroundOutline=1;fillColor=#d5e8d4;strokeColor=#82b366;" parent="1" vertex="1">
          <mxGeometry x="100" y="490" width="120" height="60" as="geometry" />
        </mxCell>
        <mxCell id="WACvxWsWty3FwiPhD94O-11" value="Construct Data" style="shape=process;whiteSpace=wrap;html=1;backgroundOutline=1;fillColor=#d5e8d4;strokeColor=#82b366;glass=0;shadow=0;" parent="1" vertex="1">
          <mxGeometry x="100" y="570" width="120" height="60" as="geometry" />
        </mxCell>
        <mxCell id="WACvxWsWty3FwiPhD94O-12" value="Integrate Data" style="shape=process;whiteSpace=wrap;html=1;backgroundOutline=1;fillColor=#d5e8d4;strokeColor=#82b366;" parent="1" vertex="1">
          <mxGeometry x="100" y="660" width="120" height="60" as="geometry" />
        </mxCell>
        <mxCell id="WACvxWsWty3FwiPhD94O-13" value="Data Cleaning &lt;br&gt;Report" style="rounded=1;whiteSpace=wrap;html=1;" parent="1" vertex="1">
          <mxGeometry x="260" y="490" width="120" height="60" as="geometry" />
        </mxCell>
        <mxCell id="WACvxWsWty3FwiPhD94O-14" value="" style="endArrow=none;dashed=1;html=1;rounded=0;entryX=1;entryY=0.5;entryDx=0;entryDy=0;" parent="1" target="WACvxWsWty3FwiPhD94O-15" edge="1">
          <mxGeometry width="50" height="50" relative="1" as="geometry">
            <mxPoint x="220" y="440" as="sourcePoint" />
            <mxPoint x="580" y="440" as="targetPoint" />
          </mxGeometry>
        </mxCell>
        <mxCell id="WACvxWsWty3FwiPhD94O-15" value="Rational for Inclusion/Exclusion" style="rounded=1;whiteSpace=wrap;html=1;" parent="1" vertex="1">
          <mxGeometry x="260" y="410" width="120" height="60" as="geometry" />
        </mxCell>
        <mxCell id="WACvxWsWty3FwiPhD94O-16" value="" style="endArrow=none;dashed=1;html=1;rounded=0;exitX=1;exitY=0.5;exitDx=0;exitDy=0;entryX=0;entryY=0.5;entryDx=0;entryDy=0;" parent="1" source="WACvxWsWty3FwiPhD94O-11" target="duj90Wo6jGAanCHwv5Ph-6" edge="1">
          <mxGeometry width="50" height="50" relative="1" as="geometry">
            <mxPoint x="610" y="580" as="sourcePoint" />
            <mxPoint x="420" y="600" as="targetPoint" />
          </mxGeometry>
        </mxCell>
        <mxCell id="WACvxWsWty3FwiPhD94O-17" value="Derived Attributes" style="rounded=1;whiteSpace=wrap;html=1;" parent="1" vertex="1">
          <mxGeometry x="260" y="570" width="120" height="60" as="geometry" />
        </mxCell>
        <mxCell id="WACvxWsWty3FwiPhD94O-18" value="" style="endArrow=none;dashed=1;html=1;rounded=0;" parent="1" target="WACvxWsWty3FwiPhD94O-19" edge="1">
          <mxGeometry width="50" height="50" relative="1" as="geometry">
            <mxPoint x="220" y="690" as="sourcePoint" />
            <mxPoint x="420" y="690" as="targetPoint" />
          </mxGeometry>
        </mxCell>
        <mxCell id="WACvxWsWty3FwiPhD94O-19" value="Data Quality Report" style="rounded=1;whiteSpace=wrap;html=1;" parent="1" vertex="1">
          <mxGeometry x="260" y="660" width="120" height="60" as="geometry" />
        </mxCell>
        <mxCell id="duj90Wo6jGAanCHwv5Ph-5" value="" style="endArrow=none;dashed=1;html=1;rounded=0;exitX=1;exitY=0.5;exitDx=0;exitDy=0;" parent="1" source="duj90Wo6jGAanCHwv5Ph-2" edge="1">
          <mxGeometry width="50" height="50" relative="1" as="geometry">
            <mxPoint x="540" y="400" as="sourcePoint" />
            <mxPoint x="160" y="350" as="targetPoint" />
          </mxGeometry>
        </mxCell>
        <mxCell id="duj90Wo6jGAanCHwv5Ph-1" value="Dataset" style="rounded=1;whiteSpace=wrap;html=1;" parent="1" vertex="1">
          <mxGeometry x="260" y="320" width="120" height="60" as="geometry" />
        </mxCell>
        <mxCell id="duj90Wo6jGAanCHwv5Ph-2" value="Dataset description" style="rounded=1;whiteSpace=wrap;html=1;" parent="1" vertex="1">
          <mxGeometry x="420" y="320" width="120" height="60" as="geometry" />
        </mxCell>
        <mxCell id="duj90Wo6jGAanCHwv5Ph-6" value="Generated &lt;br&gt;Records" style="rounded=1;whiteSpace=wrap;html=1;" parent="1" vertex="1">
          <mxGeometry x="420" y="570" width="120" height="60" as="geometry" />
        </mxCell>
        <mxCell id="duj90Wo6jGAanCHwv5Ph-8" value="Format Data" style="shape=process;whiteSpace=wrap;html=1;backgroundOutline=1;fillColor=#d5e8d4;strokeColor=#82b366;" parent="1" vertex="1">
          <mxGeometry x="100" y="750" width="120" height="60" as="geometry" />
        </mxCell>
        <mxCell id="duj90Wo6jGAanCHwv5Ph-9" value="" style="endArrow=none;dashed=1;html=1;rounded=0;" parent="1" target="duj90Wo6jGAanCHwv5Ph-10" edge="1">
          <mxGeometry width="50" height="50" relative="1" as="geometry">
            <mxPoint x="220" y="780" as="sourcePoint" />
            <mxPoint x="420" y="780" as="targetPoint" />
          </mxGeometry>
        </mxCell>
        <mxCell id="duj90Wo6jGAanCHwv5Ph-10" value="Reformated Data" style="rounded=1;whiteSpace=wrap;html=1;" parent="1" vertex="1">
          <mxGeometry x="260" y="750" width="120" height="60" as="geometry" />
        </mxCell>
      </root>
    </mxGraphModel>
  </diagram>
  <diagram id="YJhuZHDyD-Q9lLD3h2fh" name="Phase 4 (Evaluation)">
    <mxGraphModel dx="1175" dy="1197" grid="1" gridSize="10" guides="1" tooltips="1" connect="1" arrows="1" fold="1" page="1" pageScale="1" pageWidth="827" pageHeight="1169" math="0" shadow="0">
      <root>
        <mxCell id="0" />
        <mxCell id="1" parent="0" />
        <mxCell id="8GuCYe3gnGoBzrcY8ueI-34" value="" style="endArrow=none;dashed=1;html=1;rounded=0;" parent="1" edge="1">
          <mxGeometry width="50" height="50" relative="1" as="geometry">
            <mxPoint x="220" y="599.5" as="sourcePoint" />
            <mxPoint x="540" y="600" as="targetPoint" />
          </mxGeometry>
        </mxCell>
        <mxCell id="8GuCYe3gnGoBzrcY8ueI-33" value="" style="endArrow=none;dashed=1;html=1;rounded=0;exitX=1;exitY=0.5;exitDx=0;exitDy=0;entryX=0;entryY=0.5;entryDx=0;entryDy=0;" parent="1" source="8GuCYe3gnGoBzrcY8ueI-9" target="8GuCYe3gnGoBzrcY8ueI-29" edge="1">
          <mxGeometry width="50" height="50" relative="1" as="geometry">
            <mxPoint x="220" y="370" as="sourcePoint" />
            <mxPoint x="270" y="320" as="targetPoint" />
          </mxGeometry>
        </mxCell>
        <mxCell id="8GuCYe3gnGoBzrcY8ueI-27" value="" style="endArrow=none;html=1;rounded=0;exitX=0.5;exitY=1;exitDx=0;exitDy=0;edgeStyle=orthogonalEdgeStyle;entryX=0.5;entryY=1;entryDx=0;entryDy=0;" parent="1" source="8GuCYe3gnGoBzrcY8ueI-12" target="8GuCYe3gnGoBzrcY8ueI-9" edge="1">
          <mxGeometry width="50" height="50" relative="1" as="geometry">
            <mxPoint x="160" y="660" as="sourcePoint" />
            <mxPoint x="625" y="260" as="targetPoint" />
            <Array as="points">
              <mxPoint x="160" y="520" />
              <mxPoint x="160" y="520" />
            </Array>
          </mxGeometry>
        </mxCell>
        <mxCell id="8GuCYe3gnGoBzrcY8ueI-1" value="" style="endArrow=none;dashed=1;html=1;rounded=0;" parent="1" target="8GuCYe3gnGoBzrcY8ueI-31" edge="1">
          <mxGeometry width="50" height="50" relative="1" as="geometry">
            <mxPoint x="220" y="519.52" as="sourcePoint" />
            <mxPoint x="900" y="519.9610810810811" as="targetPoint" />
          </mxGeometry>
        </mxCell>
        <mxCell id="8GuCYe3gnGoBzrcY8ueI-2" value="&lt;p style=&quot;line-height: 90%; font-size: 17px;&quot;&gt;&lt;font style=&quot;font-size: 17px;&quot;&gt;Data &lt;br&gt;Understanding&lt;/font&gt;&lt;/p&gt;" style="shape=step;whiteSpace=wrap;html=1;fontSize=28;" parent="1" vertex="1">
          <mxGeometry x="240" y="180" width="170" height="80" as="geometry" />
        </mxCell>
        <mxCell id="8GuCYe3gnGoBzrcY8ueI-3" value="&lt;p style=&quot;line-height: 90%;&quot;&gt;&lt;font style=&quot;font-size: 17px;&quot;&gt;Business Understanding&lt;/font&gt;&lt;/p&gt;" style="shape=step;whiteSpace=wrap;html=1;fontSize=28;" parent="1" vertex="1">
          <mxGeometry x="90" y="180" width="170" height="80" as="geometry" />
        </mxCell>
        <mxCell id="8GuCYe3gnGoBzrcY8ueI-4" value="&lt;font style=&quot;font-size: 18px;&quot;&gt;Data &lt;br&gt;Preperation&lt;/font&gt;" style="shape=step;whiteSpace=wrap;html=1;fontSize=28;" parent="1" vertex="1">
          <mxGeometry x="390" y="180" width="170" height="80" as="geometry" />
        </mxCell>
        <mxCell id="8GuCYe3gnGoBzrcY8ueI-5" value="&lt;font style=&quot;font-size: 18px;&quot;&gt;Modelling&lt;/font&gt;" style="shape=step;whiteSpace=wrap;html=1;fontSize=28;fillColor=#d5e8d4;strokeColor=#82b366;" parent="1" vertex="1">
          <mxGeometry x="540" y="180" width="170" height="80" as="geometry" />
        </mxCell>
        <mxCell id="8GuCYe3gnGoBzrcY8ueI-6" value="&lt;font style=&quot;font-size: 18px;&quot;&gt;Evaluation&lt;/font&gt;" style="shape=step;whiteSpace=wrap;html=1;fontSize=28;" parent="1" vertex="1">
          <mxGeometry x="690" y="180" width="170" height="80" as="geometry" />
        </mxCell>
        <mxCell id="8GuCYe3gnGoBzrcY8ueI-7" value="&lt;font style=&quot;font-size: 18px;&quot;&gt;Deployment&lt;/font&gt;" style="shape=step;whiteSpace=wrap;html=1;fontSize=28;" parent="1" vertex="1">
          <mxGeometry x="840" y="180" width="170" height="80" as="geometry" />
        </mxCell>
        <mxCell id="8GuCYe3gnGoBzrcY8ueI-8" value="" style="endArrow=none;html=1;rounded=0;exitX=0.5;exitY=0;exitDx=0;exitDy=0;edgeStyle=orthogonalEdgeStyle;entryX=0.5;entryY=1;entryDx=0;entryDy=0;" parent="1" source="8GuCYe3gnGoBzrcY8ueI-9" target="8GuCYe3gnGoBzrcY8ueI-5" edge="1">
          <mxGeometry width="50" height="50" relative="1" as="geometry">
            <mxPoint x="330" y="380" as="sourcePoint" />
            <mxPoint x="160" y="300" as="targetPoint" />
            <Array as="points">
              <mxPoint x="160" y="290" />
              <mxPoint x="625" y="290" />
            </Array>
          </mxGeometry>
        </mxCell>
        <mxCell id="8GuCYe3gnGoBzrcY8ueI-10" value="Generate&lt;br&gt;Test Design" style="shape=process;whiteSpace=wrap;html=1;backgroundOutline=1;fillColor=#d5e8d4;strokeColor=#82b366;" parent="1" vertex="1">
          <mxGeometry x="100" y="410" width="120" height="60" as="geometry" />
        </mxCell>
        <mxCell id="8GuCYe3gnGoBzrcY8ueI-11" value="Build Model" style="shape=process;whiteSpace=wrap;html=1;backgroundOutline=1;fillColor=#d5e8d4;strokeColor=#82b366;glass=0;shadow=0;" parent="1" vertex="1">
          <mxGeometry x="100" y="490" width="120" height="60" as="geometry" />
        </mxCell>
        <mxCell id="8GuCYe3gnGoBzrcY8ueI-12" value="Assess Model" style="shape=process;whiteSpace=wrap;html=1;backgroundOutline=1;fillColor=#d5e8d4;strokeColor=#82b366;" parent="1" vertex="1">
          <mxGeometry x="100" y="570" width="120" height="60" as="geometry" />
        </mxCell>
        <mxCell id="8GuCYe3gnGoBzrcY8ueI-13" value="Parameter &lt;br&gt;Settings" style="rounded=1;whiteSpace=wrap;html=1;" parent="1" vertex="1">
          <mxGeometry x="260" y="490" width="120" height="60" as="geometry" />
        </mxCell>
        <mxCell id="8GuCYe3gnGoBzrcY8ueI-14" value="" style="endArrow=none;dashed=1;html=1;rounded=0;entryX=1;entryY=0.5;entryDx=0;entryDy=0;" parent="1" target="8GuCYe3gnGoBzrcY8ueI-15" edge="1">
          <mxGeometry width="50" height="50" relative="1" as="geometry">
            <mxPoint x="220" y="440" as="sourcePoint" />
            <mxPoint x="580" y="440" as="targetPoint" />
          </mxGeometry>
        </mxCell>
        <mxCell id="8GuCYe3gnGoBzrcY8ueI-15" value="Test Design" style="rounded=1;whiteSpace=wrap;html=1;" parent="1" vertex="1">
          <mxGeometry x="260" y="410" width="120" height="60" as="geometry" />
        </mxCell>
        <mxCell id="8GuCYe3gnGoBzrcY8ueI-17" value="Model &lt;br&gt;Assessment" style="rounded=1;whiteSpace=wrap;html=1;" parent="1" vertex="1">
          <mxGeometry x="260" y="570" width="120" height="60" as="geometry" />
        </mxCell>
        <mxCell id="8GuCYe3gnGoBzrcY8ueI-23" value="Revised&amp;nbsp;&lt;br&gt;Parameter Settings" style="rounded=1;whiteSpace=wrap;html=1;" parent="1" vertex="1">
          <mxGeometry x="420" y="570" width="120" height="60" as="geometry" />
        </mxCell>
        <mxCell id="8GuCYe3gnGoBzrcY8ueI-9" value="Select Modeling Technique" style="shape=process;whiteSpace=wrap;html=1;backgroundOutline=1;fillColor=#d5e8d4;strokeColor=#82b366;" parent="1" vertex="1">
          <mxGeometry x="100" y="330" width="120" height="60" as="geometry" />
        </mxCell>
        <mxCell id="8GuCYe3gnGoBzrcY8ueI-28" value="Modelling &lt;br&gt;Technique" style="rounded=1;whiteSpace=wrap;html=1;" parent="1" vertex="1">
          <mxGeometry x="260" y="330" width="120" height="60" as="geometry" />
        </mxCell>
        <mxCell id="8GuCYe3gnGoBzrcY8ueI-29" value="Modeling Assumptions" style="rounded=1;whiteSpace=wrap;html=1;" parent="1" vertex="1">
          <mxGeometry x="420" y="330" width="120" height="60" as="geometry" />
        </mxCell>
        <mxCell id="8GuCYe3gnGoBzrcY8ueI-30" value="Models" style="rounded=1;whiteSpace=wrap;html=1;" parent="1" vertex="1">
          <mxGeometry x="420" y="490" width="120" height="60" as="geometry" />
        </mxCell>
        <mxCell id="8GuCYe3gnGoBzrcY8ueI-31" value="Model &lt;br&gt;Description" style="rounded=1;whiteSpace=wrap;html=1;" parent="1" vertex="1">
          <mxGeometry x="580" y="490" width="120" height="60" as="geometry" />
        </mxCell>
      </root>
    </mxGraphModel>
  </diagram>
  <diagram id="Fb2jmYqJUbJQKWt5QNbU" name="Phase 5 (Deplyoment)">
    <mxGraphModel dx="1175" dy="1197" grid="1" gridSize="10" guides="1" tooltips="1" connect="1" arrows="1" fold="1" page="1" pageScale="1" pageWidth="827" pageHeight="1169" math="0" shadow="0">
      <root>
        <mxCell id="0" />
        <mxCell id="1" parent="0" />
        <mxCell id="PVq4YRzgVUNTSGlAnKc7-2" value="" style="endArrow=none;dashed=1;html=1;rounded=0;exitX=1;exitY=0.5;exitDx=0;exitDy=0;entryX=0;entryY=0.5;entryDx=0;entryDy=0;" parent="1" source="PVq4YRzgVUNTSGlAnKc7-20" target="PVq4YRzgVUNTSGlAnKc7-22" edge="1">
          <mxGeometry width="50" height="50" relative="1" as="geometry">
            <mxPoint x="220" y="370" as="sourcePoint" />
            <mxPoint x="270" y="320" as="targetPoint" />
          </mxGeometry>
        </mxCell>
        <mxCell id="PVq4YRzgVUNTSGlAnKc7-4" value="" style="endArrow=none;dashed=1;html=1;rounded=0;entryX=1;entryY=0.5;entryDx=0;entryDy=0;" parent="1" target="PVq4YRzgVUNTSGlAnKc7-23" edge="1">
          <mxGeometry width="50" height="50" relative="1" as="geometry">
            <mxPoint x="220" y="519.52" as="sourcePoint" />
            <mxPoint x="580" y="520" as="targetPoint" />
          </mxGeometry>
        </mxCell>
        <mxCell id="PVq4YRzgVUNTSGlAnKc7-5" value="&lt;p style=&quot;line-height: 90%; font-size: 17px;&quot;&gt;&lt;font style=&quot;font-size: 17px;&quot;&gt;Data &lt;br&gt;Understanding&lt;/font&gt;&lt;/p&gt;" style="shape=step;whiteSpace=wrap;html=1;fontSize=28;" parent="1" vertex="1">
          <mxGeometry x="240" y="180" width="170" height="80" as="geometry" />
        </mxCell>
        <mxCell id="PVq4YRzgVUNTSGlAnKc7-6" value="&lt;p style=&quot;line-height: 90%;&quot;&gt;&lt;font style=&quot;font-size: 17px;&quot;&gt;Business Understanding&lt;/font&gt;&lt;/p&gt;" style="shape=step;whiteSpace=wrap;html=1;fontSize=28;" parent="1" vertex="1">
          <mxGeometry x="90" y="180" width="170" height="80" as="geometry" />
        </mxCell>
        <mxCell id="PVq4YRzgVUNTSGlAnKc7-7" value="&lt;font style=&quot;font-size: 18px;&quot;&gt;Data &lt;br&gt;Preperation&lt;/font&gt;" style="shape=step;whiteSpace=wrap;html=1;fontSize=28;" parent="1" vertex="1">
          <mxGeometry x="390" y="180" width="170" height="80" as="geometry" />
        </mxCell>
        <mxCell id="PVq4YRzgVUNTSGlAnKc7-8" value="&lt;font style=&quot;font-size: 18px;&quot;&gt;Modelling&lt;/font&gt;" style="shape=step;whiteSpace=wrap;html=1;fontSize=28;" parent="1" vertex="1">
          <mxGeometry x="540" y="180" width="170" height="80" as="geometry" />
        </mxCell>
        <mxCell id="PVq4YRzgVUNTSGlAnKc7-9" value="&lt;font style=&quot;font-size: 18px;&quot;&gt;Evaluation&lt;/font&gt;" style="shape=step;whiteSpace=wrap;html=1;fontSize=28;fillColor=#d5e8d4;strokeColor=#82B366;" parent="1" vertex="1">
          <mxGeometry x="690" y="180" width="170" height="80" as="geometry" />
        </mxCell>
        <mxCell id="PVq4YRzgVUNTSGlAnKc7-10" value="&lt;font style=&quot;font-size: 18px;&quot;&gt;Deployment&lt;/font&gt;" style="shape=step;whiteSpace=wrap;html=1;fontSize=28;" parent="1" vertex="1">
          <mxGeometry x="840" y="180" width="170" height="80" as="geometry" />
        </mxCell>
        <mxCell id="PVq4YRzgVUNTSGlAnKc7-11" value="" style="endArrow=none;html=1;rounded=0;exitX=0.5;exitY=1;exitDx=0;exitDy=0;edgeStyle=orthogonalEdgeStyle;entryX=0.5;entryY=1;entryDx=0;entryDy=0;" parent="1" source="PVq4YRzgVUNTSGlAnKc7-13" target="PVq4YRzgVUNTSGlAnKc7-9" edge="1">
          <mxGeometry width="50" height="50" relative="1" as="geometry">
            <mxPoint x="330" y="380" as="sourcePoint" />
            <mxPoint x="160" y="300" as="targetPoint" />
            <Array as="points">
              <mxPoint x="160" y="290" />
              <mxPoint x="770" y="290" />
              <mxPoint x="770" y="260" />
            </Array>
          </mxGeometry>
        </mxCell>
        <mxCell id="PVq4YRzgVUNTSGlAnKc7-12" value="Review Process" style="shape=process;whiteSpace=wrap;html=1;backgroundOutline=1;fillColor=#d5e8d4;strokeColor=#82b366;" parent="1" vertex="1">
          <mxGeometry x="100" y="410" width="120" height="60" as="geometry" />
        </mxCell>
        <mxCell id="PVq4YRzgVUNTSGlAnKc7-13" value="Determine Next Steps" style="shape=process;whiteSpace=wrap;html=1;backgroundOutline=1;fillColor=#d5e8d4;strokeColor=#82b366;glass=0;shadow=0;" parent="1" vertex="1">
          <mxGeometry x="100" y="490" width="120" height="60" as="geometry" />
        </mxCell>
        <mxCell id="PVq4YRzgVUNTSGlAnKc7-15" value="List of possible Actions" style="rounded=1;whiteSpace=wrap;html=1;" parent="1" vertex="1">
          <mxGeometry x="260" y="490" width="120" height="60" as="geometry" />
        </mxCell>
        <mxCell id="PVq4YRzgVUNTSGlAnKc7-16" value="" style="endArrow=none;dashed=1;html=1;rounded=0;entryX=1;entryY=0.5;entryDx=0;entryDy=0;" parent="1" target="PVq4YRzgVUNTSGlAnKc7-17" edge="1">
          <mxGeometry width="50" height="50" relative="1" as="geometry">
            <mxPoint x="220" y="440" as="sourcePoint" />
            <mxPoint x="580" y="440" as="targetPoint" />
          </mxGeometry>
        </mxCell>
        <mxCell id="PVq4YRzgVUNTSGlAnKc7-17" value="Review of Process" style="rounded=1;whiteSpace=wrap;html=1;" parent="1" vertex="1">
          <mxGeometry x="260" y="410" width="120" height="60" as="geometry" />
        </mxCell>
        <mxCell id="PVq4YRzgVUNTSGlAnKc7-20" value="Evaluate&amp;nbsp;&lt;br&gt;Results" style="shape=process;whiteSpace=wrap;html=1;backgroundOutline=1;fillColor=#d5e8d4;strokeColor=#82b366;" parent="1" vertex="1">
          <mxGeometry x="100" y="330" width="120" height="60" as="geometry" />
        </mxCell>
        <mxCell id="PVq4YRzgVUNTSGlAnKc7-21" value="Assessment of Data Mining Results" style="rounded=1;whiteSpace=wrap;html=1;" parent="1" vertex="1">
          <mxGeometry x="260" y="330" width="120" height="60" as="geometry" />
        </mxCell>
        <mxCell id="PVq4YRzgVUNTSGlAnKc7-22" value="Approved Models" style="rounded=1;whiteSpace=wrap;html=1;" parent="1" vertex="1">
          <mxGeometry x="420" y="330" width="120" height="60" as="geometry" />
        </mxCell>
        <mxCell id="PVq4YRzgVUNTSGlAnKc7-23" value="Desicion" style="rounded=1;whiteSpace=wrap;html=1;" parent="1" vertex="1">
          <mxGeometry x="420" y="490" width="120" height="60" as="geometry" />
        </mxCell>
      </root>
    </mxGraphModel>
  </diagram>
  <diagram id="04h-0X7T01oJDylta4Ks" name="Phase 6 (Monitoring &amp; Maintenance))">
    <mxGraphModel dx="1175" dy="1197" grid="1" gridSize="10" guides="1" tooltips="1" connect="1" arrows="1" fold="1" page="1" pageScale="1" pageWidth="827" pageHeight="1169" math="0" shadow="0">
      <root>
        <mxCell id="0" />
        <mxCell id="1" parent="0" />
        <mxCell id="dUGisrQodVdK9-08bxiH-1" value="" style="endArrow=none;dashed=1;html=1;rounded=0;entryX=1;entryY=0.5;entryDx=0;entryDy=0;" parent="1" target="dUGisrQodVdK9-08bxiH-13" edge="1">
          <mxGeometry width="50" height="50" relative="1" as="geometry">
            <mxPoint x="220" y="439.52" as="sourcePoint" />
            <mxPoint x="900" y="439.96108108108115" as="targetPoint" />
          </mxGeometry>
        </mxCell>
        <mxCell id="dUGisrQodVdK9-08bxiH-2" value="&lt;font style=&quot;font-size: 18px;&quot;&gt;Data &lt;br&gt;Understanding&lt;/font&gt;" style="shape=step;whiteSpace=wrap;html=1;fontSize=28;" parent="1" vertex="1">
          <mxGeometry x="240" y="180" width="170" height="80" as="geometry" />
        </mxCell>
        <mxCell id="dUGisrQodVdK9-08bxiH-3" value="&lt;p&gt;&lt;font style=&quot;font-size: 18px;&quot;&gt;Business Understanding&lt;/font&gt;&lt;/p&gt;" style="shape=step;whiteSpace=wrap;html=1;fontSize=28;" parent="1" vertex="1">
          <mxGeometry x="90" y="180" width="170" height="80" as="geometry" />
        </mxCell>
        <mxCell id="dUGisrQodVdK9-08bxiH-4" value="&lt;font style=&quot;font-size: 18px;&quot;&gt;Data &lt;br&gt;Preperation&lt;/font&gt;" style="shape=step;whiteSpace=wrap;html=1;fontSize=28;" parent="1" vertex="1">
          <mxGeometry x="390" y="180" width="170" height="80" as="geometry" />
        </mxCell>
        <mxCell id="dUGisrQodVdK9-08bxiH-5" value="&lt;font style=&quot;font-size: 18px;&quot;&gt;Modelling&lt;/font&gt;" style="shape=step;whiteSpace=wrap;html=1;fontSize=28;" parent="1" vertex="1">
          <mxGeometry x="540" y="180" width="170" height="80" as="geometry" />
        </mxCell>
        <mxCell id="dUGisrQodVdK9-08bxiH-6" value="&lt;font style=&quot;font-size: 18px;&quot;&gt;Evaluation&lt;/font&gt;" style="shape=step;whiteSpace=wrap;html=1;fontSize=28;" parent="1" vertex="1">
          <mxGeometry x="690" y="180" width="170" height="80" as="geometry" />
        </mxCell>
        <mxCell id="dUGisrQodVdK9-08bxiH-7" value="&lt;font style=&quot;font-size: 18px;&quot;&gt;Deployment&lt;/font&gt;" style="shape=step;whiteSpace=wrap;html=1;fontSize=28;fillColor=#d5e8d4;strokeColor=#82b366;" parent="1" vertex="1">
          <mxGeometry x="840" y="180" width="170" height="80" as="geometry" />
        </mxCell>
        <mxCell id="dUGisrQodVdK9-08bxiH-8" value="" style="endArrow=none;html=1;rounded=0;exitX=0.5;exitY=0;exitDx=0;exitDy=0;edgeStyle=orthogonalEdgeStyle;entryX=0.5;entryY=1;entryDx=0;entryDy=0;" parent="1" source="dUGisrQodVdK9-08bxiH-12" target="dUGisrQodVdK9-08bxiH-7" edge="1">
          <mxGeometry width="50" height="50" relative="1" as="geometry">
            <mxPoint x="330" y="380" as="sourcePoint" />
            <mxPoint x="160" y="300" as="targetPoint" />
            <Array as="points">
              <mxPoint x="160" y="290" />
              <mxPoint x="925" y="290" />
            </Array>
          </mxGeometry>
        </mxCell>
        <mxCell id="dUGisrQodVdK9-08bxiH-9" value="Plan&amp;nbsp;&lt;br&gt;Deployment" style="shape=process;whiteSpace=wrap;html=1;backgroundOutline=1;fillColor=#d5e8d4;strokeColor=#82b366;" parent="1" vertex="1">
          <mxGeometry x="100" y="330" width="120" height="60" as="geometry" />
        </mxCell>
        <mxCell id="dUGisrQodVdK9-08bxiH-10" value="Plan&lt;br&gt;Monitoring and&amp;nbsp;&lt;br&gt;Maintenance" style="shape=process;whiteSpace=wrap;html=1;backgroundOutline=1;fillColor=#d5e8d4;strokeColor=#82b366;" parent="1" vertex="1">
          <mxGeometry x="100" y="410" width="120" height="60" as="geometry" />
        </mxCell>
        <mxCell id="dUGisrQodVdK9-08bxiH-11" value="Produce Final Report" style="shape=process;whiteSpace=wrap;html=1;backgroundOutline=1;fillColor=#d5e8d4;strokeColor=#82b366;glass=0;shadow=0;" parent="1" vertex="1">
          <mxGeometry x="100" y="490" width="120" height="60" as="geometry" />
        </mxCell>
        <mxCell id="dUGisrQodVdK9-08bxiH-12" value="Review&amp;nbsp;&lt;br&gt;Project" style="shape=process;whiteSpace=wrap;html=1;backgroundOutline=1;fillColor=#d5e8d4;strokeColor=#82b366;" parent="1" vertex="1">
          <mxGeometry x="100" y="580" width="120" height="60" as="geometry" />
        </mxCell>
        <mxCell id="dUGisrQodVdK9-08bxiH-13" value="Monitoring and Maintenance Plan" style="rounded=1;whiteSpace=wrap;html=1;" parent="1" vertex="1">
          <mxGeometry x="260" y="410" width="120" height="60" as="geometry" />
        </mxCell>
        <mxCell id="dUGisrQodVdK9-08bxiH-14" value="" style="endArrow=none;dashed=1;html=1;rounded=0;entryX=1;entryY=0.5;entryDx=0;entryDy=0;" parent="1" target="dUGisrQodVdK9-08bxiH-15" edge="1">
          <mxGeometry width="50" height="50" relative="1" as="geometry">
            <mxPoint x="220" y="360" as="sourcePoint" />
            <mxPoint x="580" y="360" as="targetPoint" />
          </mxGeometry>
        </mxCell>
        <mxCell id="dUGisrQodVdK9-08bxiH-15" value="Deployment Plan" style="rounded=1;whiteSpace=wrap;html=1;" parent="1" vertex="1">
          <mxGeometry x="260" y="330" width="120" height="60" as="geometry" />
        </mxCell>
        <mxCell id="dUGisrQodVdK9-08bxiH-16" value="" style="endArrow=none;dashed=1;html=1;rounded=0;exitX=1;exitY=0.5;exitDx=0;exitDy=0;entryX=0;entryY=0.5;entryDx=0;entryDy=0;" parent="1" source="dUGisrQodVdK9-08bxiH-11" target="dUGisrQodVdK9-08bxiH-20" edge="1">
          <mxGeometry width="50" height="50" relative="1" as="geometry">
            <mxPoint x="610" y="500" as="sourcePoint" />
            <mxPoint x="420" y="520" as="targetPoint" />
          </mxGeometry>
        </mxCell>
        <mxCell id="dUGisrQodVdK9-08bxiH-17" value="Final Report" style="rounded=1;whiteSpace=wrap;html=1;" parent="1" vertex="1">
          <mxGeometry x="260" y="490" width="120" height="60" as="geometry" />
        </mxCell>
        <mxCell id="dUGisrQodVdK9-08bxiH-18" value="" style="endArrow=none;dashed=1;html=1;rounded=0;" parent="1" target="dUGisrQodVdK9-08bxiH-19" edge="1">
          <mxGeometry width="50" height="50" relative="1" as="geometry">
            <mxPoint x="220" y="610" as="sourcePoint" />
            <mxPoint x="420" y="610" as="targetPoint" />
          </mxGeometry>
        </mxCell>
        <mxCell id="dUGisrQodVdK9-08bxiH-19" value="Experience&amp;nbsp;&lt;br&gt;Documentation" style="rounded=1;whiteSpace=wrap;html=1;" parent="1" vertex="1">
          <mxGeometry x="260" y="580" width="120" height="60" as="geometry" />
        </mxCell>
        <mxCell id="dUGisrQodVdK9-08bxiH-20" value="Final Presentation" style="rounded=1;whiteSpace=wrap;html=1;" parent="1" vertex="1">
          <mxGeometry x="420" y="490" width="120" height="60" as="geometry" />
        </mxCell>
      </root>
    </mxGraphModel>
  </diagram>
</mxfile>
